Nunito_Xheight_min_ExtraLight_01.ufo
<glyph name="exclam" format="1">
  <advance width="211"/>
  <unicode hex="0021"/>
  <outline>
    <contour>
      <point x="92" y="134.79898" type="line"/>
      <point x="119" y="134.79898" type="line"/>
      <point x="132" y="559.06502" type="line"/>
      <point x="79" y="559.06502" type="line"/>
    </contour>
    <contour>
      <point x="71" y="64.83922" type="line"/>
      <point x="71" y="0" type="line"/>
      <point x="140" y="0" type="line"/>
      <point x="140" y="64.83922" type="line"/>
    </contour>
  </outline>
</glyph>
<glyph name="numbersign" format="1">
  <advance width="600"/>
  <unicode hex="0023"/>
  <outline>
    <contour>
      <point x="573" y="379.36596" type="line"/>
      <point x="573" y="416.60178" type="line"/>
      <point x="469" y="416.60178" type="line"/>
      <point x="504" y="559.06502" type="line"/>
      <point x="461" y="559.06502" type="line"/>
      <point x="426" y="416.60178" type="line"/>
      <point x="238" y="416.60178" type="line"/>
      <point x="273" y="559.06502" type="line"/>
      <point x="231" y="559.06502" type="line"/>
      <point x="195" y="416.60178" type="line"/>
      <point x="46" y="416.60178" type="line"/>
      <point x="46" y="379.36596" type="line"/>
      <point x="188" y="379.36596" type="line"/>
      <point x="139" y="186.04306" type="line"/>
      <point x="27" y="186.04306" type="line"/>
      <point x="27" y="148.80724" type="line"/>
      <point x="132" y="148.80724" type="line"/>
      <point x="94" y="0" type="line"/>
      <point x="137" y="0" type="line"/>
      <point x="174" y="148.80724" type="line"/>
      <point x="361" y="148.80724" type="line"/>
      <point x="324" y="0" type="line"/>
      <point x="367" y="0" type="line"/>
      <point x="405" y="148.80724" type="line"/>
      <point x="554" y="148.80724" type="line"/>
      <point x="554" y="186.04306" type="line"/>
      <point x="412" y="186.04306" type="line"/>
      <point x="461" y="379.36596" type="line"/>
    </contour>
    <contour>
      <point x="369" y="186.04306" type="line"/>
      <point x="181" y="186.04306" type="line"/>
      <point x="230" y="379.36596" type="line"/>
      <point x="418" y="379.36596" type="line"/>
    </contour>
  </outline>
</glyph>
<glyph name="dollar" format="1">
  <advance width="600"/>
  <unicode hex="0024"/>
  <outline>
    <contour>
      <point x="290" y="-91.195" type="line"/>
      <point x="330" y="-91.195" type="line"/>
      <point x="330" y="8.81525" type="line"/>
      <point x="317" y="-3.1039" type="line"/>
      <point x="446" y="1.81445"/>
      <point x="538" y="57.68909"/>
      <point x="538" y="147.18606" type="curve" smooth="yes"/>
      <point x="538" y="221.68412"/>
      <point x="477" y="263.21667"/>
      <point x="346" y="284.69576" type="curve" smooth="yes"/>
      <point x="251" y="300.96434" type="line" smooth="yes"/>
      <point x="155" y="316.27957"/>
      <point x="113" y="347.54268"/>
      <point x="113" y="403.72489" type="curve" smooth="yes"/>
      <point x="113" y="473.77253"/>
      <point x="188" y="520.87148"/>
      <point x="301" y="520.87148" type="curve" smooth="yes"/>
      <point x="383" y="520.87148"/>
      <point x="446" y="501.31887"/>
      <point x="502" y="454.85257" type="curve"/>
      <point x="522" y="491.57214" type="line"/>
      <point x="469" y="537.72212"/>
      <point x="391" y="559.85802"/>
      <point x="323" y="561.71641" type="curve"/>
      <point x="330" y="551.58754" type="line"/>
      <point x="330" y="650.26003" type="line"/>
      <point x="290" y="650.26003" type="line"/>
      <point x="290" y="551.58754" type="line"/>
      <point x="295" y="562.23702" type="line"/>
      <point x="162" y="559.49338"/>
      <point x="72" y="494.0588"/>
      <point x="72" y="403.11203" type="curve" smooth="yes"/>
      <point x="72" y="324.78515"/>
      <point x="129" y="278.83509"/>
      <point x="249" y="258.8058" type="curve" smooth="yes"/>
      <point x="344" y="242.53722" type="line" smooth="yes"/>
      <point x="451" y="225.11538"/>
      <point x="495" y="197.40869"/>
      <point x="495" y="145.37161" type="curve" smooth="yes"/>
      <point x="495" y="81.59988"/>
      <point x="430" y="38.19354"/>
      <point x="303" y="38.19354" type="curve" smooth="yes"/>
      <point x="203" y="38.19354"/>
      <point x="143" y="58.15473"/>
      <point x="78" y="101.99381" type="curve"/>
      <point x="56" y="64.59327" type="line"/>
      <point x="121" y="17.65029"/>
      <point x="208" y="-3.03581"/>
      <point x="303" y="-3.37629" type="curve"/>
      <point x="290" y="8.09035" type="line"/>
    </contour>
  </outline>
</glyph>
<glyph name="percent" format="1">
  <advance width="916"/>
  <unicode hex="0025"/>
  <outline>
    <contour>
      <point x="229" y="223.17349" type="curve" smooth="yes"/>
      <point x="330" y="223.17349"/>
      <point x="392" y="285.70846"/>
      <point x="392" y="394.52959" type="curve" smooth="yes"/>
      <point x="392" y="502.48963"/>
      <point x="329" y="564.9565"/>
      <point x="229" y="564.9565" type="curve" smooth="yes"/>
      <point x="129" y="564.9565"/>
      <point x="66" y="502.76202"/>
      <point x="66" y="394.52959" type="curve" smooth="yes"/>
      <point x="66" y="284.98355"/>
      <point x="128" y="223.17349"/>
    </contour>
    <contour>
      <point x="229" y="258.43888" type="curve" smooth="yes"/>
      <point x="154" y="258.43888"/>
      <point x="108" y="304.60864"/>
      <point x="108" y="394.52959" type="curve" smooth="yes"/>
      <point x="108" y="483.72564"/>
      <point x="154" y="529.69111"/>
      <point x="229" y="529.69111" type="curve" smooth="yes"/>
      <point x="304" y="529.69111"/>
      <point x="350" y="483.52135"/>
      <point x="350" y="394.52959" type="curve" smooth="yes"/>
      <point x="350" y="304.81293"/>
      <point x="304" y="258.43888"/>
    </contour>
    <contour>
      <point x="267" y="-18.26316" type="line"/>
      <point x="684" y="557.72287" type="line"/>
      <point x="649" y="577.32818" type="line"/>
      <point x="232" y="1.34215" type="line"/>
    </contour>
    <contour>
      <point x="687" y="-6.61639" type="curve" smooth="yes"/>
      <point x="788" y="-6.61639"/>
      <point x="850" y="55.91858"/>
      <point x="850" y="164.73972" type="curve" smooth="yes"/>
      <point x="850" y="272.69976"/>
      <point x="787" y="335.16663"/>
      <point x="687" y="335.16663" type="curve" smooth="yes"/>
      <point x="587" y="335.16663"/>
      <point x="524" y="272.97214"/>
      <point x="524" y="164.73972" type="curve" smooth="yes"/>
      <point x="524" y="55.19368"/>
      <point x="586" y="-6.61639"/>
    </contour>
    <contour>
      <point x="687" y="28.64901" type="curve" smooth="yes"/>
      <point x="612" y="28.64901"/>
      <point x="566" y="74.81876"/>
      <point x="566" y="164.73972" type="curve" smooth="yes"/>
      <point x="566" y="253.93577"/>
      <point x="612" y="299.90123"/>
      <point x="687" y="299.90123" type="curve" smooth="yes"/>
      <point x="762" y="299.90123"/>
      <point x="808" y="253.73148"/>
      <point x="808" y="164.73972" type="curve" smooth="yes"/>
      <point x="808" y="75.02305"/>
      <point x="762" y="28.64901"/>
    </contour>
  </outline>
</glyph>
<glyph name="ampersand" format="1">
  <advance width="664"/>
  <unicode hex="0026"/>
  <outline>
    <contour>
      <point x="275" y="-6.61639" type="curve" smooth="yes"/>
      <point x="369" y="-6.61639"/>
      <point x="451" y="26.73355"/>
      <point x="503" y="84.57424" type="curve"/>
      <point x="489" y="84.57424" type="line"/>
      <point x="584" y="0" type="line"/>
      <point x="635" y="0" type="line"/>
      <point x="511" y="117.66492" type="line"/>
      <point x="513" y="101.62042" type="line"/>
      <point x="554" y="157.74329"/>
      <point x="580" y="234.48416"/>
      <point x="583" y="322.95968" type="curve"/>
      <point x="542" y="322.95968" type="line"/>
      <point x="540" y="248.94266"/>
      <point x="519" y="178.16575"/>
      <point x="487" y="134.61884" type="curve"/>
      <point x="497" y="134.61884" type="line"/>
      <point x="295" y="313.55134" type="line"/>
      <point x="293" y="301.60802" type="line"/>
      <point x="416" y="363.63778"/>
      <point x="447" y="402.33881"/>
      <point x="447" y="457.28426" type="curve" smooth="yes"/>
      <point x="447" y="524.01267"/>
      <point x="385" y="565.68141"/>
      <point x="308" y="565.68141" type="curve" smooth="yes"/>
      <point x="213" y="565.68141"/>
      <point x="153" y="517.60057"/>
      <point x="153" y="447.49587" type="curve" smooth="yes"/>
      <point x="153" y="405.12639"/>
      <point x="175" y="369.21294"/>
      <point x="244" y="310.08279" type="curve"/>
      <point x="249" y="318.46969" type="line"/>
      <point x="218" y="301.29607" type="line" smooth="yes"/>
      <point x="113" y="244.34064"/>
      <point x="66" y="200.24896"/>
      <point x="66" y="129.53577" type="curve" smooth="yes"/>
      <point x="66" y="47.01545"/>
      <point x="142" y="-6.61639"/>
    </contour>
    <contour>
      <point x="275" y="32.2098" type="curve" smooth="yes"/>
      <point x="165" y="32.2098"/>
      <point x="108" y="68.84378"/>
      <point x="108" y="131.28212" type="curve" smooth="yes"/>
      <point x="108" y="187.78503"/>
      <point x="142" y="221.20307"/>
      <point x="242" y="273.69267" type="curve" smooth="yes"/>
      <point x="274" y="291.11451" type="line"/>
      <point x="261" y="291.11451" type="line"/>
      <point x="478" y="98.56045" type="line"/>
      <point x="478" y="116.12286" type="line"/>
      <point x="431" y="61.43439"/>
      <point x="363" y="32.2098"/>
    </contour>
    <contour>
      <point x="265" y="326.99277" type="curve"/>
      <point x="281" y="329.89239" type="line"/>
      <point x="212" y="390.06376"/>
      <point x="195" y="411.92728"/>
      <point x="195" y="447.90445" type="curve" smooth="yes"/>
      <point x="195" y="495.82056"/>
      <point x="241" y="528.42144"/>
      <point x="308" y="528.42144" type="curve" smooth="yes"/>
      <point x="367" y="528.42144"/>
      <point x="407" y="499.12875"/>
      <point x="407" y="453.97606" type="curve" smooth="yes"/>
      <point x="407" y="413.62532"/>
      <point x="371" y="380.02715"/>
    </contour>
  </outline>
</glyph>
<glyph name="quotesingle" format="1">
  <advance width="202"/>
  <unicode hex="0027"/>
  <outline>
    <contour>
      <point x="88" y="345.44709" type="line"/>
      <point x="116" y="345.44709" type="line"/>
      <point x="127" y="559.06502" type="line"/>
      <point x="75" y="559.06502" type="line"/>
    </contour>
  </outline>
</glyph>
<glyph name="parenleft" format="1">
  <advance width="281"/>
  <unicode hex="0028"/>
  <outline>
    <contour>
      <point x="211" y="-151.35097" type="curve"/>
      <point x="246" y="-138.83873" type="line"/>
      <point x="181" y="-22.69608"/>
      <point x="148" y="91.53549"/>
      <point x="148" y="208.55901" type="curve" smooth="yes"/>
      <point x="148" y="325.58253"/>
      <point x="181" y="439.8141"/>
      <point x="246" y="555.95674" type="curve"/>
      <point x="211" y="568.46899" type="line"/>
      <point x="139" y="449.92756"/>
      <point x="104" y="332.74369"/>
      <point x="104" y="208.55901" type="curve" smooth="yes"/>
      <point x="104" y="84.37433"/>
      <point x="139" y="-33.53445"/>
    </contour>
  </outline>
</glyph>
<glyph name="parenright" format="1">
  <advance width="281"/>
  <unicode hex="0029"/>
  <outline>
    <contour>
      <point x="70" y="-151.35097" type="line"/>
      <point x="142" y="-33.53445"/>
      <point x="177" y="84.37433"/>
      <point x="177" y="208.55901" type="curve" smooth="yes"/>
      <point x="177" y="332.01878"/>
      <point x="142" y="449.20266"/>
      <point x="70" y="568.46899" type="curve"/>
      <point x="35" y="555.95674" type="line"/>
      <point x="100" y="437.57129"/>
      <point x="132" y="324.06463"/>
      <point x="132" y="208.55901" type="curve" smooth="yes"/>
      <point x="132" y="93.05339"/>
      <point x="100" y="-20.45327"/>
      <point x="35" y="-138.83873" type="curve"/>
    </contour>
  </outline>
</glyph>
<glyph name="asterisk" format="1">
  <advance width="448"/>
  <unicode hex="002A"/>
  <outline>
    <contour>
      <point x="412" y="444.98943" type="line"/>
      <point x="241" y="441.06837" type="line"/>
      <point x="247" y="433.65461" type="line"/>
      <point x="334" y="546.96136" type="line"/>
      <point x="301" y="565.50128" type="line"/>
      <point x="221" y="450.26804" type="line"/>
      <point x="227" y="450.26804" type="line"/>
      <point x="146" y="565.50128" type="line"/>
      <point x="113" y="547.09755" type="line"/>
      <point x="201" y="433.51841" type="line"/>
      <point x="206" y="441.06837" type="line"/>
      <point x="36" y="444.98943" type="line"/>
      <point x="36" y="407.59326" type="line"/>
      <point x="206" y="411.44623" type="line"/>
      <point x="201" y="419.5168" type="line"/>
      <point x="113" y="306.21005" type="line"/>
      <point x="146" y="287.08142" type="line"/>
      <point x="227" y="402.38275" type="line"/>
      <point x="221" y="402.38275" type="line"/>
      <point x="301" y="287.67013" type="line"/>
      <point x="334" y="306.21005" type="line"/>
      <point x="247" y="419.5168" type="line"/>
      <point x="241" y="411.44623" type="line"/>
      <point x="412" y="407.52517" type="line"/>
    </contour>
  </outline>
</glyph>
<glyph name="plus" format="1">
  <advance width="600"/>
  <unicode hex="002B"/>
  <outline>
    <contour>
      <point x="544" y="245.99474" type="line"/>
      <point x="320" y="245.99474" type="line"/>
      <point x="320" y="418.70402" type="line"/>
      <point x="280" y="418.70402" type="line"/>
      <point x="280" y="245.99474" type="line"/>
      <point x="56" y="245.99474" type="line"/>
      <point x="56" y="208.46238" type="line"/>
      <point x="280" y="208.46238" type="line"/>
      <point x="280" y="31.72" type="line"/>
      <point x="320" y="31.72" type="line"/>
      <point x="320" y="208.46238" type="line"/>
      <point x="544" y="208.46238" type="line"/>
    </contour>
  </outline>
</glyph>
<glyph name="comma" format="1">
  <advance width="211"/>
  <unicode hex="002C"/>
  <outline>
    <contour>
      <point x="96" y="-82.48075" type="line"/>
      <point x="130" y="-52.83883"/>
      <point x="140" y="-20.52575"/>
      <point x="140" y="16.25317" type="curve" smooth="yes"/>
      <point x="140" y="64.83922" type="line"/>
      <point x="71" y="64.83922" type="line"/>
      <point x="71" y="0" type="line"/>
      <point x="113" y="0" type="line"/>
      <point x="103" y="7.82234" type="line"/>
      <point x="103" y="-14.97475"/>
      <point x="99" y="-36.88658"/>
      <point x="70" y="-63.8288" type="curve"/>
    </contour>
  </outline>
</glyph>
<glyph name="hyphen" format="1">
  <advance width="416"/>
  <unicode hex="002D"/>
  <outline>
    <contour>
      <point x="76" y="191.19651" type="line"/>
      <point x="340" y="191.19651" type="line"/>
      <point x="340" y="229.63828" type="line"/>
      <point x="76" y="229.63828" type="line"/>
    </contour>
  </outline>
</glyph>
<glyph name="slash" format="1">
  <advance width="256"/>
  <unicode hex="002F"/>
  <outline>
    <contour>
      <point x="20" y="-45.79409" type="line"/>
      <point x="274" y="581.13283" type="line"/>
      <point x="236" y="592.10301" type="line"/>
      <point x="-18" y="-34.8239" type="line"/>
    </contour>
  </outline>
</glyph>
<glyph name="zero" format="1">
  <advance width="600"/>
  <unicode hex="0030"/>
  <outline>
    <contour>
      <point x="300" y="-6.61639" type="curve" smooth="yes"/>
      <point x="455" y="-6.61639"/>
      <point x="538" y="93.12149"/>
      <point x="538" y="280.1333" type="curve" smooth="yes"/>
      <point x="538" y="467.87002"/>
      <point x="457" y="565.68141"/>
      <point x="300" y="565.68141" type="curve" smooth="yes"/>
      <point x="144" y="565.68141"/>
      <point x="62" y="467.14511"/>
      <point x="62" y="279.4084" type="curve" smooth="yes"/>
      <point x="62" y="93.12149"/>
      <point x="144" y="-6.61639"/>
    </contour>
    <contour>
      <point x="300" y="34.68106" type="curve" smooth="yes"/>
      <point x="169" y="34.68106"/>
      <point x="107" y="113.29572"/>
      <point x="107" y="280.1333" type="curve" smooth="yes"/>
      <point x="107" y="446.97088"/>
      <point x="169" y="524.38396"/>
      <point x="300" y="524.38396" type="curve" smooth="yes"/>
      <point x="432" y="524.38396"/>
      <point x="493" y="448.42069"/>
      <point x="493" y="280.1333" type="curve" smooth="yes"/>
      <point x="493" y="113.29572"/>
      <point x="431" y="34.68106"/>
    </contour>
  </outline>
</glyph>
<glyph name="one" format="1">
  <advance width="600"/>
  <unicode hex="0031"/>
  <outline>
    <contour>
      <point x="342" y="40.12002" type="line"/>
      <point x="342" y="559.06502" type="line"/>
      <point x="311" y="559.06502" type="line"/>
      <point x="148" y="469.65593" type="line"/>
      <point x="170" y="435.17916" type="line"/>
      <point x="327" y="519.32942" type="line"/>
      <point x="300" y="519.32942" type="line"/>
      <point x="300" y="40.12002" type="line"/>
      <point x="138" y="40.12002" type="line"/>
      <point x="138" y="0" type="line"/>
      <point x="494" y="0" type="line"/>
      <point x="494" y="40.12002" type="line"/>
    </contour>
  </outline>
</glyph>
<glyph name="two" format="1">
  <advance width="600"/>
  <unicode hex="0032"/>
  <outline>
    <contour>
      <point x="98" y="0" type="line"/>
      <point x="531" y="0" type="line"/>
      <point x="531" y="40.12002" type="line"/>
      <point x="141" y="40.12002" type="line"/>
      <point x="141" y="25.56926" type="line"/>
      <point x="375" y="217.05356" type="line" smooth="yes"/>
      <point x="459" y="289.01227"/>
      <point x="501" y="351.1826"/>
      <point x="501" y="418.6557" type="curve" smooth="yes"/>
      <point x="501" y="512.00563"/>
      <point x="426" y="565.68141"/>
      <point x="295" y="565.68141" type="curve" smooth="yes"/>
      <point x="207" y="565.68141"/>
      <point x="124" y="536.22837"/>
      <point x="76" y="493.15814" type="curve"/>
      <point x="96" y="456.43857" type="line"/>
      <point x="152" y="501.79554"/>
      <point x="216" y="524.04348"/>
      <point x="295" y="524.04348" type="curve" smooth="yes"/>
      <point x="401" y="524.04348"/>
      <point x="457" y="486.36828"/>
      <point x="457" y="416.16029" type="curve" smooth="yes"/>
      <point x="457" y="360.99515"/>
      <point x="425" y="310.45181"/>
      <point x="351" y="248.3298" type="curve" smooth="yes"/>
      <point x="98" y="33.95615" type="line"/>
    </contour>
  </outline>
</glyph>
<glyph name="three" format="1">
  <advance width="600"/>
  <unicode hex="0033"/>
  <outline>
    <contour>
      <point x="297" y="-6.61639" type="curve" smooth="yes"/>
      <point x="434" y="-6.61639"/>
      <point x="518" y="53.85591"/>
      <point x="518" y="149.76497" type="curve" smooth="yes"/>
      <point x="518" y="225.75678"/>
      <point x="462" y="278.16288"/>
      <point x="363" y="292.23259" type="curve"/>
      <point x="363" y="283.96211" type="line"/>
      <point x="447" y="301.20382"/>
      <point x="499" y="355.37605"/>
      <point x="499" y="424.54718" type="curve" smooth="yes"/>
      <point x="499" y="512.79863"/>
      <point x="423" y="565.68141"/>
      <point x="295" y="565.68141" type="curve" smooth="yes"/>
      <point x="209" y="565.68141"/>
      <point x="126" y="538.40308"/>
      <point x="76" y="493.15814" type="curve"/>
      <point x="96" y="456.43857" type="line"/>
      <point x="153" y="502.45235"/>
      <point x="217" y="524.04348"/>
      <point x="295" y="524.04348" type="curve" smooth="yes"/>
      <point x="397" y="524.04348"/>
      <point x="455" y="487.29747"/>
      <point x="455" y="422.57239" type="curve" smooth="yes"/>
      <point x="455" y="349.21656"/>
      <point x="389" y="303.8398"/>
      <point x="286" y="303.8398" type="curve" smooth="yes"/>
      <point x="192" y="303.8398" type="line"/>
      <point x="192" y="264.12835" type="line"/>
      <point x="288" y="264.12835" type="line" smooth="yes"/>
      <point x="409" y="264.12835"/>
      <point x="474" y="225.41192"/>
      <point x="474" y="151.195" type="curve" smooth="yes"/>
      <point x="474" y="76.11697"/>
      <point x="411" y="35.02154"/>
      <point x="297" y="35.02154" type="curve" smooth="yes"/>
      <point x="217" y="35.02154"/>
      <point x="151" y="53.78116"/>
      <point x="84" y="98.34513" type="curve"/>
      <point x="64" y="61.42127" type="line"/>
      <point x="123" y="17.10552"/>
      <point x="207" y="-6.61639"/>
    </contour>
  </outline>
</glyph>
<glyph name="four" format="1">
  <advance width="600"/>
  <unicode hex="0034"/>
  <outline>
    <contour>
      <point x="555" y="167.60414" type="line"/>
      <point x="444" y="167.60414" type="line"/>
      <point x="444" y="559.06502" type="line"/>
      <point x="409" y="559.06502" type="line"/>
      <point x="60" y="161.7566" type="line"/>
      <point x="60" y="127.75651" type="line"/>
      <point x="402" y="127.75651" type="line"/>
      <point x="402" y="0" type="line"/>
      <point x="444" y="0" type="line"/>
      <point x="444" y="127.75651" type="line"/>
      <point x="555" y="127.75651" type="line"/>
    </contour>
    <contour>
      <point x="104" y="167.60414" type="line"/>
      <point x="104" y="152.36804" type="line"/>
      <point x="422" y="503.80115" type="line"/>
      <point x="402" y="503.80115" type="line"/>
      <point x="402" y="167.60414" type="line"/>
    </contour>
  </outline>
</glyph>
<glyph name="five" format="1">
  <advance width="600"/>
  <unicode hex="0035"/>
  <outline>
    <contour>
      <point x="323" y="-6.61639" type="curve" smooth="yes"/>
      <point x="460" y="-6.61639"/>
      <point x="545" y="66.612"/>
      <point x="545" y="169.54603" type="curve" smooth="yes"/>
      <point x="545" y="275.21933"/>
      <point x="463" y="346.65742"/>
      <point x="332" y="346.65742" type="curve" smooth="yes"/>
      <point x="249" y="346.65742"/>
      <point x="181" y="318.67835"/>
      <point x="145" y="271.69144" type="curve"/>
      <point x="159" y="271.69144" type="line"/>
      <point x="159" y="519.0131" type="line"/>
      <point x="504" y="519.0131" type="line"/>
      <point x="504" y="559.06502" type="line"/>
      <point x="117" y="559.06502" type="line"/>
      <point x="117" y="230.62244" type="line"/>
      <point x="154" y="230.62244" type="line"/>
      <point x="196" y="282.13891"/>
      <point x="253" y="305.42808"/>
      <point x="330" y="305.42808" type="curve" smooth="yes"/>
      <point x="437" y="305.42808"/>
      <point x="501" y="247.31938"/>
      <point x="501" y="166.23784" type="curve" smooth="yes"/>
      <point x="501" y="88.05591"/>
      <point x="433" y="35.02154"/>
      <point x="323" y="35.02154" type="curve" smooth="yes"/>
      <point x="244" y="35.02154"/>
      <point x="179" y="54.57416"/>
      <point x="113" y="98.34513" type="curve"/>
      <point x="93" y="61.42127" type="line"/>
      <point x="151" y="17.89852"/>
      <point x="234" y="-6.61639"/>
    </contour>
  </outline>
</glyph>
<glyph name="six" format="1">
  <advance width="600"/>
  <unicode hex="0036"/>
  <outline>
    <contour>
      <point x="323" y="-6.61639" type="curve" smooth="yes"/>
      <point x="449" y="-6.61639"/>
      <point x="539" y="67.88168"/>
      <point x="539" y="171.33632" type="curve" smooth="yes"/>
      <point x="539" y="273.90571"/>
      <point x="451" y="346.61349"/>
      <point x="323" y="346.61349" type="curve" smooth="yes"/>
      <point x="208" y="346.61349"/>
      <point x="121" y="286.28176"/>
      <point x="111" y="190.42539" type="curve"/>
      <point x="117" y="190.42539" type="line"/>
      <point x="117" y="272.88864" type="line" smooth="yes"/>
      <point x="117" y="439.31327"/>
      <point x="199" y="524.04348"/>
      <point x="342" y="524.04348" type="curve" smooth="yes"/>
      <point x="405" y="524.04348"/>
      <point x="467" y="502.58854"/>
      <point x="516" y="459.02185" type="curve"/>
      <point x="536" y="495.74143" type="line"/>
      <point x="493" y="538.01866"/>
      <point x="413" y="565.68141"/>
      <point x="343" y="565.68141" type="curve" smooth="yes"/>
      <point x="174" y="565.68141"/>
      <point x="74" y="458.42211"/>
      <point x="74" y="263.70875" type="curve" smooth="yes"/>
      <point x="74" y="92.9172"/>
      <point x="163" y="-6.61639"/>
    </contour>
    <contour>
      <point x="319" y="34.13629" type="curve" smooth="yes"/>
      <point x="215" y="34.13629"/>
      <point x="143" y="89.89014"/>
      <point x="143" y="169.99855" type="curve" smooth="yes"/>
      <point x="143" y="250.10696"/>
      <point x="215" y="305.86081"/>
      <point x="319" y="305.86081" type="curve" smooth="yes"/>
      <point x="423" y="305.86081"/>
      <point x="495" y="250.10696"/>
      <point x="495" y="169.99855" type="curve" smooth="yes"/>
      <point x="495" y="89.89014"/>
      <point x="423" y="34.13629"/>
    </contour>
  </outline>
</glyph>
<glyph name="seven" format="1">
  <advance width="600"/>
  <unicode hex="0037"/>
  <outline>
    <contour>
      <point x="182" y="0" type="line"/>
      <point x="521" y="525.62948" type="line"/>
      <point x="521" y="559.06502" type="line"/>
      <point x="78" y="559.06502" type="line"/>
      <point x="78" y="518.67261" type="line"/>
      <point x="486" y="518.67261" type="line"/>
      <point x="486" y="543.19189" type="line"/>
      <point x="135" y="0" type="line"/>
    </contour>
  </outline>
</glyph>
<glyph name="eight" format="1">
  <advance width="600"/>
  <unicode hex="0038"/>
  <outline>
    <contour>
      <point x="300" y="-6.61639" type="curve" smooth="yes"/>
      <point x="453" y="-6.61639"/>
      <point x="542" y="49.43839"/>
      <point x="542" y="146.66107" type="curve" smooth="yes"/>
      <point x="542" y="223.71826"/>
      <point x="478" y="278.57146"/>
      <point x="382" y="288.94855" type="curve"/>
      <point x="382" y="280.24534" type="line"/>
      <point x="471" y="294.83566"/>
      <point x="526" y="350.34566"/>
      <point x="526" y="417.57053" type="curve" smooth="yes"/>
      <point x="526" y="510.62392"/>
      <point x="437" y="565.68141"/>
      <point x="300" y="565.68141" type="curve" smooth="yes"/>
      <point x="163" y="565.68141"/>
      <point x="74" y="510.62392"/>
      <point x="74" y="417.57053" type="curve" smooth="yes"/>
      <point x="74" y="349.75695"/>
      <point x="129" y="295.03995"/>
      <point x="218" y="280.10914" type="curve"/>
      <point x="218" y="288.94855" type="line"/>
      <point x="122" y="278.77575"/>
      <point x="58" y="223.92255"/>
      <point x="58" y="146.66107" type="curve" smooth="yes"/>
      <point x="58" y="49.43839"/>
      <point x="147" y="-6.61639"/>
    </contour>
    <contour>
      <point x="300" y="33.27519" type="curve" smooth="yes"/>
      <point x="170" y="33.27519"/>
      <point x="102" y="71.08659"/>
      <point x="102" y="148.54361" type="curve" smooth="yes"/>
      <point x="102" y="226.00063"/>
      <point x="170" y="263.08713"/>
      <point x="300" y="263.08713" type="curve" smooth="yes"/>
      <point x="430" y="263.08713"/>
      <point x="498" y="226.00063"/>
      <point x="498" y="148.54361" type="curve" smooth="yes"/>
      <point x="498" y="71.08659"/>
      <point x="430" y="33.27519"/>
    </contour>
    <contour>
      <point x="300" y="302.9787" type="curve" smooth="yes"/>
      <point x="186" y="302.9787"/>
      <point x="118" y="345.20762"/>
      <point x="118" y="415.14322" type="curve" smooth="yes"/>
      <point x="118" y="485.01072"/>
      <point x="186" y="525.78983"/>
      <point x="300" y="525.78983" type="curve" smooth="yes"/>
      <point x="414" y="525.78983"/>
      <point x="482" y="485.01072"/>
      <point x="482" y="415.14322" type="curve" smooth="yes"/>
      <point x="482" y="345.20762"/>
      <point x="414" y="302.9787"/>
    </contour>
  </outline>
</glyph>
<glyph name="nine" format="1">
  <advance width="600"/>
  <unicode hex="0039"/>
  <outline>
    <contour>
      <point x="277" y="565.68141" type="curve" smooth="yes"/>
      <point x="151" y="565.68141"/>
      <point x="61" y="491.18334"/>
      <point x="61" y="387.7287" type="curve" smooth="yes"/>
      <point x="61" y="285.15931"/>
      <point x="149" y="212.45154"/>
      <point x="277" y="212.45154" type="curve" smooth="yes"/>
      <point x="392" y="212.45154"/>
      <point x="479" y="272.78326"/>
      <point x="489" y="368.63963" type="curve"/>
      <point x="483" y="368.63963" type="line"/>
      <point x="483" y="286.17638" type="line" smooth="yes"/>
      <point x="483" y="119.75176"/>
      <point x="401" y="35.02154"/>
      <point x="258" y="35.02154" type="curve" smooth="yes"/>
      <point x="195" y="35.02154"/>
      <point x="133" y="56.47648"/>
      <point x="84" y="100.04317" type="curve"/>
      <point x="64" y="63.32359" type="line"/>
      <point x="107" y="21.04636"/>
      <point x="187" y="-6.61639"/>
      <point x="257" y="-6.61639" type="curve" smooth="yes"/>
      <point x="426" y="-6.61639"/>
      <point x="526" y="100.64291"/>
      <point x="526" y="295.35628" type="curve" smooth="yes"/>
      <point x="526" y="466.14783"/>
      <point x="437" y="565.68141"/>
    </contour>
    <contour>
      <point x="281" y="524.92874" type="curve" smooth="yes"/>
      <point x="385" y="524.92874"/>
      <point x="457" y="469.17488"/>
      <point x="457" y="389.06647" type="curve" smooth="yes"/>
      <point x="457" y="308.95806"/>
      <point x="385" y="253.20421"/>
      <point x="281" y="253.20421" type="curve" smooth="yes"/>
      <point x="177" y="253.20421"/>
      <point x="105" y="308.95806"/>
      <point x="105" y="389.06647" type="curve" smooth="yes"/>
      <point x="105" y="469.17488"/>
      <point x="177" y="524.92874"/>
    </contour>
  </outline>
</glyph>
<glyph name="colon" format="1">
  <advance width="211"/>
  <unicode hex="003A"/>
  <outline>
    <contour>
      <point x="71" y="64.83922" type="line"/>
      <point x="71" y="0" type="line"/>
      <point x="140" y="0" type="line"/>
      <point x="140" y="64.83922" type="line"/>
    </contour>
    <contour>
      <point x="71" y="384.49298" type="line"/>
      <point x="71" y="319.65376" type="line"/>
      <point x="140" y="319.65376" type="line"/>
      <point x="140" y="384.49298" type="line"/>
    </contour>
  </outline>
</glyph>
<glyph name="less" format="1">
  <advance width="600"/>
  <unicode hex="003C"/>
  <outline>
    <contour>
      <point x="56" y="209.36741" type="line"/>
      <point x="544" y="28.72813" type="line"/>
      <point x="544" y="70.77026" type="line"/>
      <point x="84" y="238.96977" type="line"/>
      <point x="84" y="216.14415" type="line"/>
      <point x="544" y="385.06856" type="line"/>
      <point x="544" y="426.45388" type="line"/>
      <point x="56" y="245.8827" type="line"/>
    </contour>
  </outline>
</glyph>
<glyph name="equal" format="1">
  <advance width="600"/>
  <unicode hex="003D"/>
  <outline>
    <contour>
      <point x="544" y="325.29474" type="line"/>
      <point x="56" y="325.29474" type="line"/>
      <point x="56" y="287.76238" type="line"/>
      <point x="544" y="287.76238" type="line"/>
    </contour>
    <contour>
      <point x="544" y="167.41964" type="line"/>
      <point x="56" y="167.41964" type="line"/>
      <point x="56" y="129.88728" type="line"/>
      <point x="544" y="129.88728" type="line"/>
    </contour>
  </outline>
</glyph>
<glyph name="greater" format="1">
  <advance width="600"/>
  <unicode hex="003E"/>
  <outline>
    <contour>
      <point x="544" y="209.36741" type="line"/>
      <point x="544" y="245.8827" type="line"/>
      <point x="56" y="426.45388" type="line"/>
      <point x="56" y="385.06856" type="line"/>
      <point x="516" y="216.14415" type="line"/>
      <point x="516" y="238.96977" type="line"/>
      <point x="56" y="70.77026" type="line"/>
      <point x="56" y="28.72813" type="line"/>
    </contour>
  </outline>
</glyph>
<glyph name="question" format="1">
  <advance width="429"/>
  <unicode hex="003F"/>
  <outline>
    <contour>
      <point x="181" y="134.79898" type="line"/>
      <point x="211" y="134.79898" type="line"/>
      <point x="213" y="153.13023" type="line" smooth="yes"/>
      <point x="218" y="198.91557"/>
      <point x="243" y="237.79235"/>
      <point x="306" y="294.88398" type="curve" smooth="yes"/>
      <point x="373" y="356.0087"/>
      <point x="397" y="393.3478"/>
      <point x="397" y="444.55232" type="curve" smooth="yes"/>
      <point x="397" y="517.14806"/>
      <point x="327" y="565.68141"/>
      <point x="221" y="565.68141" type="curve" smooth="yes"/>
      <point x="133" y="565.68141"/>
      <point x="50" y="536.22837"/>
      <point x="2" y="493.15814" type="curve"/>
      <point x="22" y="456.43857" type="line"/>
      <point x="78" y="501.07064"/>
      <point x="142" y="524.04348"/>
      <point x="222" y="524.04348" type="curve" smooth="yes"/>
      <point x="303" y="524.04348"/>
      <point x="353" y="492.78037"/>
      <point x="353" y="442.71371" type="curve" smooth="yes"/>
      <point x="353" y="401.61828"/>
      <point x="333" y="369.42598"/>
      <point x="275" y="317.63712" type="curve" smooth="yes"/>
      <point x="205" y="253.95327"/>
      <point x="181" y="209.185"/>
      <point x="181" y="153.45093" type="curve" smooth="yes"/>
    </contour>
    <contour>
      <point x="162" y="0" type="line"/>
      <point x="230" y="0" type="line"/>
      <point x="230" y="64.83922" type="line"/>
      <point x="162" y="64.83922" type="line"/>
    </contour>
  </outline>
</glyph>
<glyph name="at" format="1">
  <advance width="943"/>
  <unicode hex="0040"/>
  <outline>
    <contour>
      <point x="484" y="-128.87458" type="curve" smooth="yes"/>
      <point x="606" y="-128.87458"/>
      <point x="711" y="-97.31493"/>
      <point x="776" y="-40.53963" type="curve"/>
      <point x="749" y="-10.46497" type="line"/>
      <point x="693" y="-62.48228"/>
      <point x="598" y="-92.77225"/>
      <point x="484" y="-92.77225" type="curve" smooth="yes"/>
      <point x="254" y="-92.77225"/>
      <point x="109" y="23.99867"/>
      <point x="109" y="218.36718" type="curve" smooth="yes"/>
      <point x="109" y="404.01706"/>
      <point x="265" y="529.57908"/>
      <point x="493" y="529.57908" type="curve" smooth="yes"/>
      <point x="695" y="529.57908"/>
      <point x="837" y="425.7927"/>
      <point x="837" y="273.76514" type="curve" smooth="yes"/>
      <point x="837" y="157.56315"/>
      <point x="778" y="81.16714"/>
      <point x="691" y="81.16714" type="curve" smooth="yes"/>
      <point x="645" y="81.16714"/>
      <point x="623" y="99.45008"/>
      <point x="623" y="136.69692" type="curve" smooth="yes"/>
      <point x="623" y="146.55341"/>
      <point x="624" y="158.20018"/>
      <point x="627" y="171.04853" type="curve" smooth="yes"/>
      <point x="674" y="384.49298" type="line"/>
      <point x="632" y="384.49298" type="line"/>
      <point x="616" y="309.29417" type="line"/>
      <point x="623" y="309.29417" type="line"/>
      <point x="611" y="360.59094"/>
      <point x="561" y="391.10937"/>
      <point x="487" y="391.10937" type="curve" smooth="yes"/>
      <point x="363" y="391.10937"/>
      <point x="269" y="305.60155"/>
      <point x="269" y="188.50994" type="curve" smooth="yes"/>
      <point x="269" y="99.80597"/>
      <point x="327" y="46.71891"/>
      <point x="427" y="46.71891" type="curve" smooth="yes"/>
      <point x="491" y="46.71891"/>
      <point x="557" y="79.32416"/>
      <point x="592" y="137.69421" type="curve"/>
      <point x="584" y="148.74352" type="line"/>
      <point x="570" y="86.68523"/>
      <point x="611" y="46.71891"/>
      <point x="688" y="46.71891" type="curve" smooth="yes"/>
      <point x="801" y="46.71891"/>
      <point x="876" y="135.98743"/>
      <point x="876" y="273.76514" type="curve" smooth="yes"/>
      <point x="876" y="447.6606"/>
      <point x="720" y="565.68141"/>
      <point x="494" y="565.68141" type="curve" smooth="yes"/>
      <point x="243" y="565.68141"/>
      <point x="67" y="423.7344"/>
      <point x="67" y="218.36718" type="curve" smooth="yes"/>
      <point x="67" y="4.89419"/>
      <point x="231" y="-128.87458"/>
    </contour>
    <contour>
      <point x="428" y="83.16172" type="curve" smooth="yes"/>
      <point x="354" y="83.16172"/>
      <point x="312" y="120.5206"/>
      <point x="312" y="188.64613" type="curve" smooth="yes"/>
      <point x="312" y="284.5025"/>
      <point x="388" y="354.53036"/>
      <point x="487" y="354.53036" type="curve" smooth="yes"/>
      <point x="566" y="354.53036"/>
      <point x="603" y="323.1069"/>
      <point x="603" y="258.56195" type="curve" smooth="yes"/>
      <point x="603" y="157.74329"/>
      <point x="528" y="83.16172"/>
    </contour>
  </outline>
</glyph>
<glyph name="A" format="1">
  <advance width="716"/>
  <unicode hex="0041"/>
  <outline>
    <contour>
      <point x="681" y="0" type="line"/>
      <point x="378" y="559.06502" type="line"/>
      <point x="338" y="559.06502" type="line"/>
      <point x="35" y="0" type="line"/>
      <point x="80" y="0" type="line"/>
      <point x="167" y="160.88675" type="line"/>
      <point x="139" y="150.27683" type="line"/>
      <point x="575" y="150.27683" type="line"/>
      <point x="548" y="160.88675" type="line"/>
      <point x="636" y="0" type="line"/>
    </contour>
    <contour>
      <point x="538" y="181.48497" type="line"/>
      <point x="558" y="189.71589" type="line"/>
      <point x="156" y="189.71589" type="line"/>
      <point x="178" y="181.48497" type="line"/>
      <point x="371" y="529.02555" type="line"/>
      <point x="345" y="529.02555" type="line"/>
    </contour>
    <contour>
      <point x="359" y="0" type="move" name="bottom"/>
    </contour>
    <contour>
      <point x="682" y="0" type="move" name="ogonek"/>
    </contour>
    <contour>
      <point x="359" y="559.06502" type="move" name="top"/>
    </contour>
  </outline>
</glyph>
<glyph name="B" format="1">
  <advance width="666"/>
  <unicode hex="0042"/>
  <outline>
    <contour>
      <point x="431" y="278.81969" type="line"/>
      <point x="521" y="294.02288"/>
      <point x="579" y="342.46398"/>
      <point x="579" y="412.56431" type="curve" smooth="yes"/>
      <point x="579" y="506.31844"/>
      <point x="497" y="559.06502"/>
      <point x="354" y="559.06502" type="curve" smooth="yes"/>
      <point x="96" y="559.06502" type="line"/>
      <point x="96" y="0" type="line"/>
      <point x="367" y="0" type="line" smooth="yes"/>
      <point x="513" y="0"/>
      <point x="595" y="52.49835"/>
      <point x="595" y="152.21207" type="curve" smooth="yes"/>
      <point x="595" y="231.6922"/>
      <point x="531" y="281.51501"/>
      <point x="431" y="290.12598" type="curve"/>
    </contour>
    <contour>
      <point x="351" y="520.17074" type="line"/>
      <point x="471" y="520.17074"/>
      <point x="535" y="482.11111"/>
      <point x="535" y="411.24632" type="curve" smooth="yes"/>
      <point x="535" y="340.38152"/>
      <point x="471" y="302.2538"/>
      <point x="351" y="302.2538" type="curve" smooth="yes"/>
      <point x="138" y="302.2538" type="line"/>
      <point x="138" y="520.17074" type="line"/>
    </contour>
    <contour>
      <point x="366" y="38.89429" type="curve" smooth="yes"/>
      <point x="138" y="38.89429" type="line"/>
      <point x="138" y="263.35951" type="line"/>
      <point x="366" y="263.35951" type="line" smooth="yes"/>
      <point x="489" y="263.35951"/>
      <point x="551" y="227.85902"/>
      <point x="551" y="151.1269" type="curve" smooth="yes"/>
      <point x="551" y="74.39478"/>
      <point x="489" y="38.89429"/>
    </contour>
    <contour>
      <point x="337" y="0" type="move" name="bottom"/>
    </contour>
    <contour>
      <point x="336" y="559.06502" type="move" name="top"/>
    </contour>
  </outline>
</glyph>
<glyph name="C" format="1">
  <advance width="667"/>
  <unicode hex="0043"/>
  <outline>
    <contour>
      <point x="381" y="-6.61639" type="curve" smooth="yes"/>
      <point x="479" y="-6.61639"/>
      <point x="561" y="18.69152"/>
      <point x="619" y="67.35669" type="curve"/>
      <point x="597" y="104.23661" type="line"/>
      <point x="534" y="55.91193"/>
      <point x="468" y="35.8387"/>
      <point x="380" y="35.8387" type="curve" smooth="yes"/>
      <point x="208" y="35.8387"/>
      <point x="112" y="124.8744"/>
      <point x="112" y="279.92901" type="curve" smooth="yes"/>
      <point x="112" y="434.19063"/>
      <point x="208" y="523.22632"/>
      <point x="380" y="523.22632" type="curve" smooth="yes"/>
      <point x="468" y="523.22632"/>
      <point x="534" y="503.15309"/>
      <point x="597" y="454.82841" type="curve"/>
      <point x="619" y="491.70833" type="line"/>
      <point x="561" y="540.3735"/>
      <point x="479" y="565.68141"/>
      <point x="381" y="565.68141" type="curve" smooth="yes"/>
      <point x="183" y="565.68141"/>
      <point x="67" y="456.49563"/>
      <point x="67" y="279.92901" type="curve" smooth="yes"/>
      <point x="67" y="102.56939"/>
      <point x="183" y="-6.61639"/>
    </contour>
    <contour>
      <point x="380" y="0" type="move" name="bottom"/>
    </contour>
    <contour>
      <point x="382" y="559.06502" type="move" name="top"/>
    </contour>
  </outline>
</glyph>
<glyph name="D" format="1">
  <advance width="725"/>
  <unicode hex="0044"/>
  <outline>
    <contour>
      <point x="96" y="0" type="line"/>
      <point x="313" y="0" type="line" smooth="yes"/>
      <point x="534" y="0"/>
      <point x="658" y="98.01568"/>
      <point x="658" y="279.92901" type="curve" smooth="yes"/>
      <point x="658" y="461.77425"/>
      <point x="534" y="559.06502"/>
      <point x="313" y="559.06502" type="curve" smooth="yes"/>
      <point x="96" y="559.06502" type="line"/>
    </contour>
    <contour>
      <point x="138" y="40.12002" type="line"/>
      <point x="138" y="518.945" type="line"/>
      <point x="309" y="518.945" type="line" smooth="yes"/>
      <point x="512" y="518.945"/>
      <point x="613" y="439.01672"/>
      <point x="613" y="279.92901" type="curve" smooth="yes"/>
      <point x="613" y="120.8413"/>
      <point x="512" y="40.12002"/>
      <point x="309" y="40.12002" type="curve" smooth="yes"/>
    </contour>
    <contour>
      <point x="363" y="0" type="move" name="bottom"/>
    </contour>
    <contour>
      <point x="173" y="283.89401" type="move" name="center"/>
    </contour>
    <contour>
      <point x="362" y="559.06502" type="move" name="top"/>
    </contour>
  </outline>
</glyph>
<glyph name="E" format="1">
  <advance width="570"/>
  <unicode hex="0045"/>
  <outline>
    <contour>
      <point x="520" y="519.62596" type="line"/>
      <point x="520" y="559.06502" type="line"/>
      <point x="96" y="559.06502" type="line"/>
      <point x="96" y="0" type="line"/>
      <point x="520" y="0" type="line"/>
      <point x="520" y="39.43906" type="line"/>
      <point x="138" y="39.43906" type="line"/>
      <point x="138" y="263.81203" type="line"/>
      <point x="500" y="263.81203" type="line"/>
      <point x="500" y="303.25109" type="line"/>
      <point x="138" y="303.25109" type="line"/>
      <point x="138" y="519.62596" type="line"/>
    </contour>
    <contour>
      <point x="320" y="0" type="move" name="bottom"/>
    </contour>
    <contour>
      <point x="490" y="0" type="move" name="ogonek"/>
    </contour>
    <contour>
      <point x="320" y="559.06502" type="move" name="top"/>
    </contour>
    <contour>
      <point x="27" y="559.06502" type="move" name="topleft"/>
    </contour>
  </outline>
</glyph>
<glyph name="F" format="1">
  <advance width="536"/>
  <unicode hex="0046"/>
  <outline>
    <contour>
      <point x="510" y="519.62596" type="line"/>
      <point x="510" y="559.06502" type="line"/>
      <point x="96" y="559.06502" type="line"/>
      <point x="96" y="0" type="line"/>
      <point x="138" y="0" type="line"/>
      <point x="138" y="263.19916" type="line"/>
      <point x="490" y="263.19916" type="line"/>
      <point x="490" y="302.63822" type="line"/>
      <point x="138" y="302.63822" type="line"/>
      <point x="138" y="519.62596" type="line"/>
    </contour>
    <contour>
      <point x="293" y="0" type="move" name="bottom"/>
    </contour>
    <contour>
      <point x="293" y="559.06502" type="move" name="top"/>
    </contour>
  </outline>
</glyph>
<glyph name="G" format="1">
  <advance width="718"/>
  <unicode hex="0047"/>
  <outline>
    <contour>
      <point x="402" y="-6.61639" type="curve" smooth="yes"/>
      <point x="482" y="-6.61639"/>
      <point x="579" y="9.90042"/>
      <point x="628" y="31.99239" type="curve"/>
      <point x="628" y="284.98793" type="line"/>
      <point x="394" y="284.98793" type="line"/>
      <point x="394" y="246.63842" type="line"/>
      <point x="588" y="246.63842" type="line"/>
      <point x="588" y="32.86224" type="line"/>
      <point x="600" y="65.652" type="line"/>
      <point x="543" y="45.91925"/>
      <point x="475" y="35.29393"/>
      <point x="401" y="35.29393" type="curve" smooth="yes"/>
      <point x="208" y="35.29393"/>
      <point x="112" y="120.63701"/>
      <point x="112" y="279.58853" type="curve" smooth="yes"/>
      <point x="112" y="434.32682"/>
      <point x="208" y="523.49871"/>
      <point x="380" y="523.49871" type="curve" smooth="yes"/>
      <point x="470" y="523.49871"/>
      <point x="537" y="503.62977"/>
      <point x="602" y="455.57747" type="curve"/>
      <point x="624" y="492.18501" type="line"/>
      <point x="564" y="540.57779"/>
      <point x="481" y="565.68141"/>
      <point x="381" y="565.68141" type="curve" smooth="yes"/>
      <point x="183" y="565.68141"/>
      <point x="67" y="456.49563"/>
      <point x="67" y="279.58853" type="curve" smooth="yes"/>
      <point x="67" y="99.14916"/>
      <point x="183" y="-6.61639"/>
    </contour>
    <contour>
      <point x="390" y="0" type="move" name="bottom"/>
    </contour>
    <contour>
      <point x="383" y="559.06502" type="move" name="top"/>
    </contour>
  </outline>
</glyph>
<glyph name="H" format="1">
  <advance width="751"/>
  <unicode hex="0048"/>
  <outline>
    <contour>
      <point x="613" y="559.06502" type="line"/>
      <point x="613" y="303.59157" type="line"/>
      <point x="138" y="303.59157" type="line"/>
      <point x="138" y="559.06502" type="line"/>
      <point x="96" y="559.06502" type="line"/>
      <point x="96" y="0" type="line"/>
      <point x="138" y="0" type="line"/>
      <point x="138" y="263.33535" type="line"/>
      <point x="613" y="263.33535" type="line"/>
      <point x="613" y="0" type="line"/>
      <point x="655" y="0" type="line"/>
      <point x="655" y="559.06502" type="line"/>
    </contour>
    <contour>
      <point x="376" y="0" type="move" name="bottom"/>
    </contour>
    <contour>
      <point x="376" y="434.95281" type="move" name="center"/>
    </contour>
    <contour>
      <point x="375" y="559.06502" type="move" name="top"/>
    </contour>
    <contour>
      <point x="27" y="559.06502" type="move" name="topleft"/>
    </contour>
  </outline>
</glyph>
<glyph name="I" format="1">
  <advance width="234"/>
  <unicode hex="0049"/>
  <outline>
    <contour>
      <point x="96" y="0" type="line"/>
      <point x="138" y="0" type="line"/>
      <point x="138" y="559.06502" type="line"/>
      <point x="96" y="559.06502" type="line"/>
    </contour>
    <contour>
      <point x="117" y="0" type="move" name="bottom"/>
    </contour>
    <contour>
      <point x="138" y="0" type="move" name="ogonek"/>
    </contour>
    <contour>
      <point x="117" y="559.06502" type="move" name="top"/>
    </contour>
    <contour>
      <point x="28" y="559.06502" type="move" name="topleft"/>
    </contour>
  </outline>
</glyph>
<glyph name="J" format="1">
  <advance width="297"/>
  <unicode hex="004A"/>
  <outline>
    <contour>
      <point x="-6" y="-5.16658" type="line"/>
      <point x="44" y="-1.92648" type="line" smooth="yes"/>
      <point x="145" y="3.76071"/>
      <point x="201" y="55.91858"/>
      <point x="201" y="143.35725" type="curve" smooth="yes"/>
      <point x="201" y="559.06502" type="line"/>
      <point x="159" y="559.06502" type="line"/>
      <point x="159" y="144.53467" type="line" smooth="yes"/>
      <point x="159" y="81.64382"/>
      <point x="116" y="41.74996"/>
      <point x="41" y="37.26435" type="curve" smooth="yes"/>
      <point x="-10" y="34.02425" type="line"/>
    </contour>
    <contour>
      <point x="181" y="0" type="move" name="bottom"/>
    </contour>
    <contour>
      <point x="180" y="559.06502" type="move" name="top"/>
    </contour>
  </outline>
</glyph>
<glyph name="K" format="1">
  <advance width="590"/>
  <unicode hex="004B"/>
  <outline>
    <contour>
      <point x="594" y="0" type="line"/>
      <point x="160" y="299.44206" type="line"/>
      <point x="158" y="270.45695" type="line"/>
      <point x="568" y="559.06502" type="line"/>
      <point x="509" y="559.06502" type="line"/>
      <point x="140" y="301.072" type="line"/>
      <point x="138" y="301.072" type="line"/>
      <point x="138" y="559.06502" type="line"/>
      <point x="96" y="559.06502" type="line"/>
      <point x="96" y="0" type="line"/>
      <point x="138" y="0" type="line"/>
      <point x="138" y="266.3997" type="line"/>
      <point x="140" y="266.3997" type="line"/>
      <point x="532" y="0" type="line"/>
    </contour>
    <contour>
      <point x="302" y="0" type="move" name="bottom"/>
    </contour>
    <contour>
      <point x="301" y="559.06502" type="move" name="top"/>
    </contour>
    <contour>
      <point x="27" y="559.06502" type="move" name="topleft"/>
    </contour>
  </outline>
</glyph>
<glyph name="L" format="1">
  <advance width="527"/>
  <unicode hex="004C"/>
  <outline>
    <contour>
      <point x="96" y="0" type="line"/>
      <point x="514" y="0" type="line"/>
      <point x="514" y="40.39241" type="line"/>
      <point x="138" y="40.39241" type="line"/>
      <point x="138" y="559.06502" type="line"/>
      <point x="96" y="559.06502" type="line"/>
    </contour>
    <contour>
      <point x="305" y="0" type="move" name="bottom"/>
    </contour>
    <contour>
      <point x="161" y="306.89101" type="move" name="center"/>
    </contour>
    <contour>
      <point x="384" y="307.18756" type="move" name="dot"/>
    </contour>
    <contour>
      <point x="117" y="559.06502" type="move" name="top"/>
    </contour>
    <contour>
      <point x="260" y="559.06502" type="move" name="topright"/>
    </contour>
  </outline>
</glyph>
<glyph name="M" format="1">
  <advance width="844"/>
  <unicode hex="004D"/>
  <outline>
    <contour>
      <point x="98" y="0" type="line"/>
      <point x="137" y="0" type="line"/>
      <point x="137" y="507.64099" type="line"/>
      <point x="112" y="507.64099" type="line"/>
      <point x="406" y="86.75333" type="line"/>
      <point x="441" y="86.75333" type="line"/>
      <point x="731" y="506.91608" type="line"/>
      <point x="707" y="506.91608" type="line"/>
      <point x="707" y="0" type="line"/>
      <point x="746" y="0" type="line"/>
      <point x="746" y="559.06502" type="line"/>
      <point x="710" y="559.06502" type="line"/>
      <point x="409" y="112.55979" type="line"/>
      <point x="437" y="112.55979" type="line"/>
      <point x="134" y="559.06502" type="line"/>
      <point x="98" y="559.06502" type="line"/>
    </contour>
    <contour>
      <point x="422" y="0" type="move" name="bottom"/>
    </contour>
    <contour>
      <point x="422" y="559.06502" type="move" name="top"/>
    </contour>
  </outline>
</glyph>
<glyph name="N" format="1">
  <advance width="732"/>
  <unicode hex="004E"/>
  <outline>
    <contour>
      <point x="96" y="0" type="line"/>
      <point x="135" y="0" type="line"/>
      <point x="135" y="507.16869" type="line"/>
      <point x="114" y="507.16869" type="line"/>
      <point x="602" y="0" type="line"/>
      <point x="636" y="0" type="line"/>
      <point x="636" y="559.06502" type="line"/>
      <point x="597" y="559.06502" type="line"/>
      <point x="597" y="51.89633" type="line"/>
      <point x="619" y="51.89633" type="line"/>
      <point x="131" y="559.06502" type="line"/>
      <point x="96" y="559.06502" type="line"/>
    </contour>
    <contour>
      <point x="366" y="0" type="move" name="bottom"/>
    </contour>
    <contour>
      <point x="366" y="559.06502" type="move" name="top"/>
    </contour>
  </outline>
</glyph>
<glyph name="O" format="1">
  <advance width="751"/>
  <unicode hex="004F"/>
  <outline>
    <contour>
      <point x="375" y="-6.61639" type="curve" smooth="yes"/>
      <point x="566" y="-6.61639"/>
      <point x="684" y="103.43049"/>
      <point x="684" y="280.65391" type="curve" smooth="yes"/>
      <point x="684" y="456.42754"/>
      <point x="567" y="565.68141"/>
      <point x="375" y="565.68141" type="curve" smooth="yes"/>
      <point x="183" y="565.68141"/>
      <point x="67" y="456.42754"/>
      <point x="67" y="279.92901" type="curve" smooth="yes"/>
      <point x="67" y="103.49858"/>
      <point x="185" y="-6.61639"/>
    </contour>
    <contour>
      <point x="375" y="35.29393" type="curve" smooth="yes"/>
      <point x="208" y="35.29393"/>
      <point x="112" y="125.5312"/>
      <point x="112" y="279.92901" type="curve" smooth="yes"/>
      <point x="112" y="434.32682"/>
      <point x="208" y="523.7711"/>
      <point x="375" y="523.7711" type="curve" smooth="yes"/>
      <point x="544" y="523.7711"/>
      <point x="639" y="434.98363"/>
      <point x="639" y="279.92901" type="curve" smooth="yes"/>
      <point x="639" y="124.8744"/>
      <point x="543" y="35.29393"/>
    </contour>
    <contour>
      <point x="375" y="-6.61639" type="move" name="Qtail"/>
    </contour>
    <contour>
      <point x="375" y="0" type="move" name="bottom"/>
    </contour>
    <contour>
      <point x="376" y="279.92901" type="move" name="center"/>
    </contour>
    <contour>
      <point x="430" y="0" type="move" name="ogonek"/>
    </contour>
    <contour>
      <point x="375" y="559.06502" type="move" name="top"/>
    </contour>
    <contour>
      <point x="26" y="559.06502" type="move" name="topleft"/>
    </contour>
    <contour>
      <point x="448" y="559.06502" type="move" name="topright"/>
    </contour>
  </outline>
</glyph>
<glyph name="P" format="1">
  <advance width="616"/>
  <unicode hex="0050"/>
  <outline>
    <contour>
      <point x="351" y="559.06502" type="curve" smooth="yes"/>
      <point x="96" y="559.06502" type="line"/>
      <point x="96" y="0" type="line"/>
      <point x="138" y="0" type="line"/>
      <point x="138" y="231.02664" type="line"/>
      <point x="351" y="231.02664" type="line" smooth="yes"/>
      <point x="499" y="231.02664"/>
      <point x="580" y="290.07329"/>
      <point x="580" y="395.04583" type="curve" smooth="yes"/>
      <point x="580" y="500.01838"/>
      <point x="499" y="559.06502"/>
    </contour>
    <contour>
      <point x="350" y="270.4657" type="curve" smooth="yes"/>
      <point x="138" y="270.4657" type="line"/>
      <point x="138" y="519.62596" type="line"/>
      <point x="350" y="519.62596" type="line" smooth="yes"/>
      <point x="474" y="519.62596"/>
      <point x="536" y="476.74024"/>
      <point x="536" y="395.04583" type="curve" smooth="yes"/>
      <point x="536" y="313.35142"/>
      <point x="474" y="270.4657"/>
    </contour>
    <contour>
      <point x="316" y="0" type="move" name="bottom"/>
    </contour>
    <contour>
      <point x="316" y="559.06502" type="move" name="top"/>
    </contour>
  </outline>
</glyph>
<glyph name="R" format="1">
  <advance width="654"/>
  <unicode hex="0052"/>
  <outline>
    <contour>
      <point x="96" y="0" type="line"/>
      <point x="138" y="0" type="line"/>
      <point x="138" y="243.33022" type="line"/>
      <point x="295" y="243.33022" type="line" smooth="yes"/>
      <point x="373" y="243.33022"/>
      <point x="413" y="230.39399"/>
      <point x="450" y="179.08181" type="curve" smooth="yes"/>
      <point x="572" y="0" type="line"/>
      <point x="618" y="0" type="line"/>
      <point x="487" y="188.43309" type="line" smooth="yes"/>
      <point x="455" y="235.60451"/>
      <point x="421" y="255.6338"/>
      <point x="370" y="255.6338" type="curve" smooth="yes"/>
      <point x="362" y="255.6338" type="line"/>
      <point x="351" y="245.64113" type="line"/>
      <point x="495" y="245.64113"/>
      <point x="580" y="302.24067"/>
      <point x="580" y="400.86922" type="curve" smooth="yes"/>
      <point x="580" y="502.46548"/>
      <point x="499" y="559.06502"/>
      <point x="351" y="559.06502" type="curve" smooth="yes"/>
      <point x="96" y="559.06502" type="line"/>
    </contour>
    <contour>
      <point x="138" y="281.81593" type="line"/>
      <point x="138" y="519.62596" type="line"/>
      <point x="347" y="519.62596" type="line" smooth="yes"/>
      <point x="473" y="519.62596"/>
      <point x="536" y="478.98305"/>
      <point x="536" y="401.11745" type="curve" smooth="yes"/>
      <point x="536" y="322.45884"/>
      <point x="473" y="281.81593"/>
      <point x="347" y="281.81593" type="curve" smooth="yes"/>
    </contour>
    <contour>
      <point x="334" y="0" type="move" name="bottom"/>
    </contour>
    <contour>
      <point x="334" y="559.06502" type="move" name="top"/>
    </contour>
  </outline>
</glyph>
<glyph name="S" format="1">
  <advance width="600"/>
  <unicode hex="0053"/>
  <outline>
    <contour>
      <point x="310" y="-6.61639" type="curve" smooth="yes"/>
      <point x="462" y="-6.61639"/>
      <point x="555" y="55.53416"/>
      <point x="555" y="145.73625" type="curve" smooth="yes"/>
      <point x="555" y="221.68412"/>
      <point x="491" y="262.49176"/>
      <point x="355" y="284.69576" type="curve" smooth="yes"/>
      <point x="256" y="300.96434" type="line" smooth="yes"/>
      <point x="155" y="316.21147"/>
      <point x="112" y="347.54268"/>
      <point x="112" y="405.31089" type="curve" smooth="yes"/>
      <point x="112" y="476.94453"/>
      <point x="190" y="524.04348"/>
      <point x="308" y="524.04348" type="curve" smooth="yes"/>
      <point x="393" y="524.04348"/>
      <point x="456" y="504.49087"/>
      <point x="519" y="458.02457" type="curve"/>
      <point x="539" y="494.74414" type="line"/>
      <point x="482" y="541.2346"/>
      <point x="403" y="565.68141"/>
      <point x="308" y="565.68141" type="curve" smooth="yes"/>
      <point x="167" y="565.68141"/>
      <point x="68" y="500.56315"/>
      <point x="68" y="404.56183" type="curve" smooth="yes"/>
      <point x="68" y="324.78515"/>
      <point x="129" y="278.83509"/>
      <point x="254" y="258.8058" type="curve" smooth="yes"/>
      <point x="353" y="242.53722" type="line" smooth="yes"/>
      <point x="465" y="225.11538"/>
      <point x="511" y="197.40869"/>
      <point x="511" y="143.78561" type="curve" smooth="yes"/>
      <point x="511" y="78.42788"/>
      <point x="443" y="35.02154"/>
      <point x="310" y="35.02154" type="curve" smooth="yes"/>
      <point x="205" y="35.02154"/>
      <point x="142" y="54.98273"/>
      <point x="72" y="98.82181" type="curve"/>
      <point x="52" y="61.42127" type="line"/>
      <point x="116" y="17.10552"/>
      <point x="200" y="-6.61639"/>
    </contour>
    <contour>
      <point x="310" y="0" type="move" name="bottom"/>
    </contour>
    <contour>
      <point x="304" y="559.06502" type="move" name="top"/>
    </contour>
  </outline>
</glyph>
<glyph name="T" format="1">
  <advance width="586"/>
  <unicode hex="0054"/>
  <outline>
    <contour>
      <point x="272" y="0" type="line"/>
      <point x="314" y="0" type="line"/>
      <point x="314" y="518.945" type="line"/>
      <point x="583" y="518.945" type="line"/>
      <point x="583" y="559.06502" type="line"/>
      <point x="3" y="559.06502" type="line"/>
      <point x="3" y="518.945" type="line"/>
      <point x="272" y="518.945" type="line"/>
    </contour>
    <contour>
      <point x="293" y="0" type="move" name="bottom"/>
    </contour>
    <contour>
      <point x="293" y="283.89401" type="move" name="center"/>
    </contour>
    <contour>
      <point x="293" y="559.06502" type="move" name="top"/>
    </contour>
  </outline>
</glyph>
<glyph name="U" format="1">
  <advance width="720"/>
  <unicode hex="0055"/>
  <outline>
    <contour>
      <point x="360" y="-6.61639" type="curve" smooth="yes"/>
      <point x="536" y="-6.61639"/>
      <point x="629" y="71.57429"/>
      <point x="629" y="217.35448" type="curve" smooth="yes"/>
      <point x="629" y="559.06502" type="line"/>
      <point x="587" y="559.06502" type="line"/>
      <point x="587" y="221.43152" type="line" smooth="yes"/>
      <point x="587" y="96.41865"/>
      <point x="510" y="35.29393"/>
      <point x="360" y="35.29393" type="curve" smooth="yes"/>
      <point x="210" y="35.29393"/>
      <point x="133" y="96.41865"/>
      <point x="133" y="221.43152" type="curve" smooth="yes"/>
      <point x="133" y="559.06502" type="line"/>
      <point x="91" y="559.06502" type="line"/>
      <point x="91" y="217.35448" type="line" smooth="yes"/>
      <point x="91" y="71.57429"/>
      <point x="184" y="-6.61639"/>
    </contour>
    <contour>
      <point x="360" y="0" type="move" name="bottom"/>
    </contour>
    <contour>
      <point x="417" y="0" type="move" name="ogonek"/>
    </contour>
    <contour>
      <point x="360" y="559.06502" type="move" name="top"/>
    </contour>
    <contour>
      <point x="588" y="559.06502" type="move" name="topright"/>
    </contour>
  </outline>
</glyph>
<glyph name="V" format="1">
  <advance width="667"/>
  <unicode hex="0056"/>
  <outline>
    <contour>
      <point x="311" y="0" type="line"/>
      <point x="356" y="0" type="line"/>
      <point x="659" y="559.06502" type="line"/>
      <point x="615" y="559.06502" type="line"/>
      <point x="323" y="31.22127" type="line"/>
      <point x="346" y="31.22127" type="line"/>
      <point x="53" y="559.06502" type="line"/>
      <point x="8" y="559.06502" type="line"/>
    </contour>
    <contour>
      <point x="334" y="0" type="move" name="bottom"/>
    </contour>
    <contour>
      <point x="333" y="559.06502" type="move" name="top"/>
    </contour>
  </outline>
</glyph>
<glyph name="W" format="1">
  <advance width="1091"/>
  <unicode hex="0057"/>
  <outline>
    <contour>
      <point x="282" y="0" type="line"/>
      <point x="323" y="0" type="line"/>
      <point x="555" y="514.46604" type="line"/>
      <point x="535" y="514.46604" type="line"/>
      <point x="766" y="0" type="line"/>
      <point x="809" y="0" type="line"/>
      <point x="1053" y="559.06502" type="line"/>
      <point x="1010" y="559.06502" type="line"/>
      <point x="773" y="29.70774" type="line"/>
      <point x="801" y="29.70774" type="line"/>
      <point x="564" y="559.06502" type="line"/>
      <point x="525" y="559.06502" type="line"/>
      <point x="288" y="29.70774" type="line"/>
      <point x="318" y="29.70774" type="line"/>
      <point x="82" y="559.06502" type="line"/>
      <point x="38" y="559.06502" type="line"/>
    </contour>
    <contour>
      <point x="546" y="0" type="move" name="bottom"/>
    </contour>
    <contour>
      <point x="545" y="559.06502" type="move" name="top"/>
    </contour>
  </outline>
</glyph>
<glyph name="X" format="1">
  <advance width="631"/>
  <unicode hex="0058"/>
  <outline>
    <contour>
      <point x="336" y="279.56" type="line"/>
      <point x="592" y="559.06502" type="line"/>
      <point x="542" y="559.06502" type="line"/>
      <point x="311" y="311.93015" type="line"/>
      <point x="323" y="311.93015" type="line"/>
      <point x="89" y="559.06502" type="line"/>
      <point x="39" y="559.06502" type="line"/>
      <point x="295" y="279.56" type="line"/>
      <point x="295" y="293.55058" type="line"/>
      <point x="24" y="0" type="line"/>
      <point x="75" y="0" type="line"/>
      <point x="326" y="264.60065" type="line"/>
      <point x="305" y="264.60065" type="line"/>
      <point x="556" y="0" type="line"/>
      <point x="607" y="0" type="line"/>
      <point x="336" y="293.55058" type="line"/>
    </contour>
    <contour>
      <point x="316" y="0" type="move" name="bottom"/>
    </contour>
    <contour>
      <point x="316" y="559.06502" type="move" name="top"/>
    </contour>
  </outline>
</glyph>
<glyph name="Y" format="1">
  <advance width="577"/>
  <unicode hex="0059"/>
  <outline>
    <contour>
      <point x="267" y="0" type="line"/>
      <point x="309" y="0" type="line"/>
      <point x="309" y="290.48624" type="line"/>
      <point x="299" y="254.31581" type="line"/>
      <point x="578" y="559.06502" type="line"/>
      <point x="531" y="559.06502" type="line"/>
      <point x="282" y="298.56556" type="line"/>
      <point x="297" y="298.56556" type="line"/>
      <point x="48" y="559.06502" type="line"/>
      <point x="-1" y="559.06502" type="line"/>
      <point x="278" y="254.31581" type="line"/>
      <point x="267" y="290.48624" type="line"/>
    </contour>
    <contour>
      <point x="288" y="0" type="move" name="bottom"/>
    </contour>
    <contour>
      <point x="288" y="559.06502" type="move" name="top"/>
    </contour>
    <contour>
      <point x="17" y="559.06502" type="move" name="topleft"/>
    </contour>
  </outline>
</glyph>
<glyph name="Z" format="1">
  <advance width="575"/>
  <unicode hex="005A"/>
  <outline>
    <contour>
      <point x="49" y="0" type="line"/>
      <point x="552" y="0" type="line"/>
      <point x="552" y="40.25622" type="line"/>
      <point x="88" y="40.25622" type="line"/>
      <point x="88" y="19.56574" type="line"/>
      <point x="538" y="525.83377" type="line"/>
      <point x="538" y="559.06502" type="line"/>
      <point x="49" y="559.06502" type="line"/>
      <point x="49" y="518.80881" type="line"/>
      <point x="499" y="518.80881" type="line"/>
      <point x="499" y="539.49928" type="line"/>
      <point x="49" y="33.23125" type="line"/>
    </contour>
    <contour>
      <point x="301" y="0" type="move" name="bottom"/>
    </contour>
    <contour>
      <point x="300" y="559.06502" type="move" name="top"/>
    </contour>
  </outline>
</glyph>
<glyph name="bracketleft" format="1">
  <advance width="281"/>
  <unicode hex="005B"/>
  <outline>
    <contour>
      <point x="112" y="-142.74001" type="line"/>
      <point x="277" y="-142.74001" type="line"/>
      <point x="277" y="-105.56791" type="line"/>
      <point x="154" y="-105.56791" type="line"/>
      <point x="154" y="521.89293" type="line"/>
      <point x="277" y="521.89293" type="line"/>
      <point x="277" y="559.06502" type="line"/>
      <point x="112" y="559.06502" type="line"/>
    </contour>
  </outline>
</glyph>
<glyph name="backslash" format="1">
  <advance width="256"/>
  <unicode hex="005C"/>
  <outline>
    <contour>
      <point x="236" y="-45.79409" type="line"/>
      <point x="274" y="-34.8239" type="line"/>
      <point x="20" y="592.10301" type="line"/>
      <point x="-18" y="581.13283" type="line"/>
    </contour>
  </outline>
</glyph>
<glyph name="bracketright" format="1">
  <advance width="281"/>
  <unicode hex="005D"/>
  <outline>
    <contour>
      <point x="169" y="-142.74001" type="line"/>
      <point x="169" y="559.06502" type="line"/>
      <point x="4" y="559.06502" type="line"/>
      <point x="4" y="521.89293" type="line"/>
      <point x="127" y="521.89293" type="line"/>
      <point x="127" y="-105.56791" type="line"/>
      <point x="4" y="-105.56791" type="line"/>
      <point x="4" y="-142.74001" type="line"/>
    </contour>
  </outline>
</glyph>
<glyph name="asciicircum" format="1">
  <advance width="600"/>
  <unicode hex="005E"/>
  <outline>
    <contour>
      <point x="318" y="498.00402" type="line"/>
      <point x="282" y="498.00402" type="line"/>
      <point x="51" y="111.02" type="line"/>
      <point x="93" y="111.02" type="line"/>
      <point x="311" y="473.78128" type="line"/>
      <point x="289" y="473.78128" type="line"/>
      <point x="507" y="111.02" type="line"/>
      <point x="549" y="111.02" type="line"/>
    </contour>
  </outline>
</glyph>
<glyph name="a" format="1">
  <advance width="514"/>
  <unicode hex="0061"/>
  <outline>
    <contour>
      <point x="231" y="-6.61639" type="curve" smooth="yes"/>
      <point x="316" y="-6.61639"/>
      <point x="380" y="31.55965"/>
      <point x="401" y="93.63772" type="curve"/>
      <point x="390" y="93.63772" type="line"/>
      <point x="390" y="0" type="line"/>
      <point x="431" y="0" type="line"/>
      <point x="431" y="247.13925" type="line" smooth="yes"/>
      <point x="431" y="345.61182"/>
      <point x="379" y="391.10937"/>
      <point x="269" y="391.10937" type="curve" smooth="yes"/>
      <point x="205" y="391.10937"/>
      <point x="135" y="373.32288"/>
      <point x="84" y="344.84298" type="curve"/>
      <point x="104" y="309.28104" type="line"/>
      <point x="161" y="339.73137"/>
      <point x="211" y="352.35127"/>
      <point x="271" y="352.35127" type="curve" smooth="yes"/>
      <point x="353" y="352.35127"/>
      <point x="389" y="321.08816"/>
      <point x="389" y="248.90976" type="curve" smooth="yes"/>
      <point x="389" y="158.91633" type="line" smooth="yes"/>
      <point x="389" y="85.01573"/>
      <point x="325" y="30.25916"/>
      <point x="234" y="30.25916" type="curve" smooth="yes"/>
      <point x="158" y="30.25916"/>
      <point x="110" y="64.03746"/>
      <point x="110" y="111.79322" type="curve" smooth="yes"/>
      <point x="110" y="169.4494"/>
      <point x="163" y="186.21444"/>
      <point x="361" y="186.21444" type="curve" smooth="yes"/>
      <point x="400" y="186.21444" type="line"/>
      <point x="400" y="219.84552" type="line"/>
      <point x="359" y="219.84552" type="line" smooth="yes"/>
      <point x="133" y="219.84552"/>
      <point x="64" y="193.19984"/>
      <point x="64" y="108.34884" type="curve" smooth="yes"/>
      <point x="64" y="43.81929"/>
      <point x="137" y="-6.61639"/>
    </contour>
    <contour>
      <point x="262" y="0" type="move" name="bottom"/>
    </contour>
    <contour>
      <point x="431" y="0" type="move" name="ogonek"/>
    </contour>
    <contour>
      <point x="265" y="383.81201" type="move" name="top"/>
    </contour>
  </outline>
</glyph>
<glyph name="b" format="1">
  <advance width="568"/>
  <unicode hex="0062"/>
  <outline>
    <contour>
      <point x="300" y="-6.61639" type="curve" smooth="yes"/>
      <point x="431" y="-6.61639"/>
      <point x="515" y="70.37271"/>
      <point x="515" y="192.24649" type="curve" smooth="yes"/>
      <point x="515" y="314.12027"/>
      <point x="432" y="391.10937"/>
      <point x="300" y="391.10937" type="curve" smooth="yes"/>
      <point x="207" y="391.10937"/>
      <point x="138" y="350.96291"/>
      <point x="116" y="288.18409" type="curve"/>
      <point x="127" y="288.18409" type="line"/>
      <point x="127" y="559.06502" type="line"/>
      <point x="85" y="559.06502" type="line"/>
      <point x="85" y="0" type="line"/>
      <point x="127" y="0" type="line"/>
      <point x="127" y="96.85366" type="line"/>
      <point x="116" y="96.85366" type="line"/>
      <point x="138" y="33.66627"/>
      <point x="207" y="-6.61639"/>
    </contour>
    <contour>
      <point x="299" y="32.00551" type="curve" smooth="yes"/>
      <point x="193" y="32.00551"/>
      <point x="126" y="90.45469"/>
      <point x="126" y="192.24649" type="curve" smooth="yes"/>
      <point x="126" y="294.03829"/>
      <point x="193" y="352.48746"/>
      <point x="299" y="352.48746" type="curve" smooth="yes"/>
      <point x="405" y="352.48746"/>
      <point x="472" y="294.03829"/>
      <point x="472" y="192.24649" type="curve" smooth="yes"/>
      <point x="472" y="90.45469"/>
      <point x="405" y="32.00551"/>
    </contour>
    <contour>
      <point x="310" y="0" type="move" name="bottom"/>
    </contour>
    <contour>
      <point x="300" y="559.06502" type="move" name="top"/>
    </contour>
  </outline>
</glyph>
<glyph name="c" format="1">
  <advance width="455"/>
  <unicode hex="0063"/>
  <outline>
    <contour>
      <point x="274" y="-6.61639" type="curve" smooth="yes"/>
      <point x="330" y="-6.61639"/>
      <point x="392" y="12.73194"/>
      <point x="430" y="44.49588" type="curve"/>
      <point x="410" y="78.08739" type="line"/>
      <point x="367" y="45.55461"/>
      <point x="317" y="32.2098"/>
      <point x="273" y="32.2098" type="curve" smooth="yes"/>
      <point x="159" y="32.2098"/>
      <point x="96" y="93.51466"/>
      <point x="96" y="194.4212" type="curve" smooth="yes"/>
      <point x="96" y="295.32774"/>
      <point x="159" y="352.28318"/>
      <point x="273" y="352.28318" type="curve" smooth="yes"/>
      <point x="317" y="352.28318"/>
      <point x="367" y="338.93837"/>
      <point x="410" y="306.40558" type="curve"/>
      <point x="430" y="339.9971" type="line"/>
      <point x="392" y="371.76104"/>
      <point x="332" y="391.10937"/>
      <point x="274" y="391.10937" type="curve" smooth="yes"/>
      <point x="136" y="391.10937"/>
      <point x="53" y="316.29498"/>
      <point x="53" y="195.1461" type="curve" smooth="yes"/>
      <point x="53" y="73.99723"/>
      <point x="136" y="-6.61639"/>
    </contour>
    <contour>
      <point x="273" y="0" type="move" name="bottom"/>
    </contour>
    <contour>
      <point x="273" y="383.81201" type="move" name="top"/>
    </contour>
  </outline>
</glyph>
<glyph name="d" format="1">
  <advance width="568"/>
  <unicode hex="0064"/>
  <outline>
    <contour>
      <point x="268" y="-6.61639" type="curve" smooth="yes"/>
      <point x="361" y="-6.61639"/>
      <point x="430" y="33.66627"/>
      <point x="452" y="96.85366" type="curve"/>
      <point x="441" y="96.85366" type="line"/>
      <point x="441" y="0" type="line"/>
      <point x="483" y="0" type="line"/>
      <point x="483" y="559.06502" type="line"/>
      <point x="441" y="559.06502" type="line"/>
      <point x="441" y="288.18409" type="line"/>
      <point x="452" y="288.18409" type="line"/>
      <point x="430" y="350.96291"/>
      <point x="361" y="391.10937"/>
      <point x="268" y="391.10937" type="curve" smooth="yes"/>
      <point x="136" y="391.10937"/>
      <point x="53" y="314.12027"/>
      <point x="53" y="192.24649" type="curve" smooth="yes"/>
      <point x="53" y="70.37271"/>
      <point x="137" y="-6.61639"/>
    </contour>
    <contour>
      <point x="269" y="32.00551" type="curve" smooth="yes"/>
      <point x="163" y="32.00551"/>
      <point x="96" y="90.45469"/>
      <point x="96" y="192.24649" type="curve" smooth="yes"/>
      <point x="96" y="294.03829"/>
      <point x="163" y="352.48746"/>
      <point x="269" y="352.48746" type="curve" smooth="yes"/>
      <point x="375" y="352.48746"/>
      <point x="442" y="294.03829"/>
      <point x="442" y="192.24649" type="curve" smooth="yes"/>
      <point x="442" y="90.45469"/>
      <point x="375" y="32.00551"/>
    </contour>
    <contour>
      <point x="286" y="0" type="move" name="bottom"/>
    </contour>
    <contour>
      <point x="286" y="194.4212" type="move" name="center"/>
    </contour>
    <contour>
      <point x="411" y="460.96146" type="move" name="stroke"/>
    </contour>
    <contour>
      <point x="284" y="383.81201" type="move" name="top"/>
    </contour>
    <contour>
      <point x="534" y="559.06502" type="move" name="topright"/>
    </contour>
  </outline>
</glyph>
<glyph name="e" format="1">
  <advance width="523"/>
  <unicode hex="0065"/>
  <outline>
    <contour>
      <point x="286" y="-6.61639" type="curve" smooth="yes"/>
      <point x="355" y="-6.61639"/>
      <point x="426" y="13.72923"/>
      <point x="467" y="46.55856" type="curve"/>
      <point x="447" y="80.46639" type="line"/>
      <point x="395" y="45.35032"/>
      <point x="344" y="32.00551"/>
      <point x="284" y="32.00551" type="curve" smooth="yes"/>
      <point x="165" y="32.00551"/>
      <point x="96" y="89.00489"/>
      <point x="96" y="191.40955" type="curve" smooth="yes"/>
      <point x="96" y="195.64694" type="line" smooth="yes"/>
      <point x="96" y="286.8815"/>
      <point x="159" y="354.30191"/>
      <point x="276" y="354.30191" type="curve" smooth="yes"/>
      <point x="382" y="354.30191"/>
      <point x="436" y="298.75235"/>
      <point x="436" y="207.22561" type="curve"/>
      <point x="453" y="216.87781" type="line"/>
      <point x="80" y="216.87781" type="line"/>
      <point x="80" y="183.17863" type="line"/>
      <point x="475" y="183.17863" type="line"/>
      <point x="475" y="205.22666" type="line" smooth="yes"/>
      <point x="475" y="321.09692"/>
      <point x="402" y="391.10937"/>
      <point x="277" y="391.10937" type="curve" smooth="yes"/>
      <point x="144" y="391.10937"/>
      <point x="53" y="310.60778"/>
      <point x="53" y="190.86478" type="curve" smooth="yes"/>
      <point x="53" y="68.47039"/>
      <point x="142" y="-6.61639"/>
    </contour>
    <contour>
      <point x="277" y="0" type="move" name="bottom"/>
    </contour>
    <contour>
      <point x="342" y="0" type="move" name="ogonek"/>
    </contour>
    <contour>
      <point x="277" y="383.81201" type="move" name="top"/>
    </contour>
  </outline>
</glyph>
<glyph name="f" format="1">
  <advance width="306"/>
  <unicode hex="0066"/>
  <outline>
    <contour>
      <point x="147" y="407.71405" type="line"/>
      <point x="147" y="479.89246"/>
      <point x="186" y="517.09099"/>
      <point x="270" y="521.78089" type="curve" smooth="yes"/>
      <point x="316" y="524.15989" type="line"/>
      <point x="311" y="560.9915" type="line"/>
      <point x="280" y="559.26931" type="line" smooth="yes"/>
      <point x="162" y="553.51402"/>
      <point x="105" y="503.39467"/>
      <point x="105" y="404.9221" type="curve" smooth="yes"/>
      <point x="105" y="372.77373" type="line"/>
      <point x="115" y="384.49298" type="line"/>
      <point x="8" y="384.49298" type="line"/>
      <point x="8" y="348.04579" type="line"/>
      <point x="105" y="348.04579" type="line"/>
      <point x="105" y="0" type="line"/>
      <point x="147" y="0" type="line"/>
      <point x="147" y="348.04579" type="line"/>
      <point x="293" y="348.04579" type="line"/>
      <point x="293" y="384.49298" type="line"/>
      <point x="147" y="384.49298" type="line"/>
    </contour>
    <contour>
      <point x="126" y="0" type="move" name="bottom"/>
    </contour>
    <contour>
      <point x="126" y="559.06502" type="move" name="top"/>
    </contour>
  </outline>
</glyph>
<glyph name="g" format="1">
  <advance width="570"/>
  <unicode hex="0067"/>
  <outline>
    <contour>
      <point x="290" y="-149.35639" type="curve" smooth="yes"/>
      <point x="419" y="-149.35639"/>
      <point x="485" y="-91.82765"/>
      <point x="485" y="21.05511" type="curve" smooth="yes"/>
      <point x="485" y="384.49298" type="line"/>
      <point x="443" y="384.49298" type="line"/>
      <point x="443" y="286.00938" type="line"/>
      <point x="454" y="286.00938" type="line"/>
      <point x="435" y="350.96291"/>
      <point x="363" y="391.10937"/>
      <point x="271" y="391.10937" type="curve" smooth="yes"/>
      <point x="136" y="391.10937"/>
      <point x="53" y="314.12027"/>
      <point x="53" y="200.31268" type="curve" smooth="yes"/>
      <point x="53" y="86.5051"/>
      <point x="136" y="8.85919"/>
      <point x="271" y="8.85919" type="curve" smooth="yes"/>
      <point x="363" y="8.85919"/>
      <point x="435" y="49.00565"/>
      <point x="454" y="114.02728" type="curve"/>
      <point x="444" y="114.02728" type="line"/>
      <point x="444" y="14.41457" type="line" smooth="yes"/>
      <point x="444" y="-66.85148"/>
      <point x="391" y="-110.73449"/>
      <point x="291" y="-110.73449" type="curve" smooth="yes"/>
      <point x="216" y="-110.73449"/>
      <point x="168" y="-97.18539"/>
      <point x="105" y="-61.20823" type="curve"/>
      <point x="85" y="-95.38845" type="line"/>
      <point x="141" y="-131.52597"/>
      <point x="210" y="-149.35639"/>
    </contour>
    <contour>
      <point x="270" y="47.48109" type="curve" smooth="yes"/>
      <point x="163" y="47.48109"/>
      <point x="96" y="106.99566"/>
      <point x="96" y="200.31268" type="curve" smooth="yes"/>
      <point x="96" y="293.62971"/>
      <point x="163" y="352.48746"/>
      <point x="270" y="352.48746" type="curve" smooth="yes"/>
      <point x="377" y="352.48746"/>
      <point x="444" y="293.62971"/>
      <point x="444" y="200.31268" type="curve" smooth="yes"/>
      <point x="444" y="106.99566"/>
      <point x="377" y="47.48109"/>
    </contour>
    <contour>
      <point x="288" y="383.81201" type="move" name="top"/>
    </contour>
  </outline>
</glyph>
<glyph name="h" format="1">
  <advance width="553"/>
  <unicode hex="0068"/>
  <outline>
    <contour>
      <point x="297" y="391.10937" type="curve" smooth="yes"/>
      <point x="212" y="391.10937"/>
      <point x="141" y="358.34814"/>
      <point x="115" y="293.57474" type="curve"/>
      <point x="127" y="293.57474" type="line"/>
      <point x="127" y="559.06502" type="line"/>
      <point x="85" y="559.06502" type="line"/>
      <point x="85" y="0" type="line"/>
      <point x="127" y="0" type="line"/>
      <point x="127" y="220.04543" type="line" smooth="yes"/>
      <point x="127" y="300.01765"/>
      <point x="194" y="352.07889"/>
      <point x="297" y="352.07889" type="curve" smooth="yes"/>
      <point x="389" y="352.07889"/>
      <point x="428" y="316.78268"/>
      <point x="428" y="239.3696" type="curve" smooth="yes"/>
      <point x="428" y="0" type="line"/>
      <point x="470" y="0" type="line"/>
      <point x="470" y="242.81398" type="line" smooth="yes"/>
      <point x="470" y="341.39859"/>
      <point x="413" y="391.10937"/>
    </contour>
    <contour>
      <point x="277" y="0" type="move" name="bottom"/>
    </contour>
    <contour>
      <point x="277" y="194.62549" type="move" name="center"/>
    </contour>
    <contour>
      <point x="204" y="279.72472" type="move" name="dot"/>
    </contour>
    <contour>
      <point x="157" y="460.96146" type="move" name="stroke"/>
    </contour>
    <contour>
      <point x="278" y="559.06502" type="move" name="top"/>
    </contour>
    <contour>
      <point x="169" y="559.06502" type="move" name="topright"/>
    </contour>
  </outline>
</glyph>
<glyph name="l" format="1">
  <advance width="275"/>
  <unicode hex="006C"/>
  <outline>
    <contour>
      <point x="217" y="-6.61639" type="curve" smooth="yes"/>
      <point x="231" y="-6.61639"/>
      <point x="247" y="-4.89419"/>
      <point x="265" y="-1.38171" type="curve"/>
      <point x="268" y="37.58067" type="line"/>
      <point x="253" y="34.47677"/>
      <point x="238" y="32.95886"/>
      <point x="221" y="32.95886" type="curve" smooth="yes"/>
      <point x="159" y="32.95886"/>
      <point x="127" y="64.17803"/>
      <point x="127" y="125.3467" type="curve" smooth="yes"/>
      <point x="127" y="559.06502" type="line"/>
      <point x="85" y="559.06502" type="line"/>
      <point x="85" y="119.93189" type="line" smooth="yes"/>
      <point x="85" y="38.81306"/>
      <point x="133" y="-6.61639"/>
    </contour>
    <contour>
      <point x="181" y="0" type="move" name="bottom"/>
    </contour>
    <contour>
      <point x="106" y="283.10101" type="move" name="center"/>
    </contour>
    <contour>
      <point x="244" y="279.72472" type="move" name="dot"/>
    </contour>
    <contour>
      <point x="106" y="559.06502" type="move" name="top"/>
    </contour>
    <contour>
      <point x="177" y="559.06502" type="move" name="topright"/>
    </contour>
  </outline>
</glyph>
<glyph name="m" format="1">
  <advance width="838"/>
  <unicode hex="006D"/>
  <outline>
    <contour>
      <point x="594" y="391.10937" type="curve" smooth="yes"/>
      <point x="507" y="391.10937"/>
      <point x="441" y="352.27652"/>
      <point x="420" y="292.16887" type="curve"/>
      <point x="435" y="292.16887" type="line"/>
      <point x="420" y="358.41623"/>
      <point x="369" y="391.10937"/>
      <point x="282" y="391.10937" type="curve" smooth="yes"/>
      <point x="201" y="391.10937"/>
      <point x="141" y="356.62594"/>
      <point x="117" y="293.57474" type="curve"/>
      <point x="128" y="293.57474" type="line"/>
      <point x="128" y="384.49298" type="line"/>
      <point x="87" y="384.49298" type="line"/>
      <point x="87" y="0" type="line"/>
      <point x="129" y="0" type="line"/>
      <point x="129" y="219.50066" type="line" smooth="yes"/>
      <point x="129" y="300.15384"/>
      <point x="188" y="352.07889"/>
      <point x="280" y="352.07889" type="curve" smooth="yes"/>
      <point x="365" y="352.07889"/>
      <point x="399" y="316.78268"/>
      <point x="399" y="239.57389" type="curve" smooth="yes"/>
      <point x="399" y="0" type="line"/>
      <point x="441" y="0" type="line"/>
      <point x="441" y="219.50066" type="line" smooth="yes"/>
      <point x="441" y="300.15384"/>
      <point x="500" y="352.07889"/>
      <point x="592" y="352.07889" type="curve" smooth="yes"/>
      <point x="677" y="352.07889"/>
      <point x="711" y="316.78268"/>
      <point x="711" y="239.57389" type="curve" smooth="yes"/>
      <point x="711" y="0" type="line"/>
      <point x="753" y="0" type="line"/>
      <point x="753" y="242.81398" type="line" smooth="yes"/>
      <point x="753" y="342.19159"/>
      <point x="699" y="391.10937"/>
    </contour>
    <contour>
      <point x="420" y="0" type="move" name="bottom"/>
    </contour>
    <contour>
      <point x="420" y="383.81201" type="move" name="top"/>
    </contour>
  </outline>
</glyph>
<glyph name="n" format="1">
  <advance width="553"/>
  <unicode hex="006E"/>
  <outline>
    <contour>
      <point x="297" y="391.10937" type="curve" smooth="yes"/>
      <point x="212" y="391.10937"/>
      <point x="141" y="358.34814"/>
      <point x="115" y="293.57474" type="curve"/>
      <point x="126" y="293.57474" type="line"/>
      <point x="126" y="384.49298" type="line"/>
      <point x="85" y="384.49298" type="line"/>
      <point x="85" y="0" type="line"/>
      <point x="127" y="0" type="line"/>
      <point x="127" y="220.04543" type="line" smooth="yes"/>
      <point x="127" y="300.01765"/>
      <point x="194" y="352.07889"/>
      <point x="297" y="352.07889" type="curve" smooth="yes"/>
      <point x="389" y="352.07889"/>
      <point x="428" y="316.78268"/>
      <point x="428" y="239.3696" type="curve" smooth="yes"/>
      <point x="428" y="0" type="line"/>
      <point x="470" y="0" type="line"/>
      <point x="470" y="242.81398" type="line" smooth="yes"/>
      <point x="470" y="342.8484"/>
      <point x="413" y="391.10937"/>
    </contour>
    <contour>
      <point x="277" y="0" type="move" name="bottom"/>
    </contour>
    <contour>
      <point x="277" y="383.81201" type="move" name="top"/>
    </contour>
  </outline>
</glyph>
<glyph name="o" format="1">
  <advance width="538"/>
  <unicode hex="006F"/>
  <outline>
    <contour>
      <point x="269" y="-6.61639" type="curve" smooth="yes"/>
      <point x="401" y="-6.61639"/>
      <point x="485" y="71.09762"/>
      <point x="485" y="192.24649" type="curve" smooth="yes"/>
      <point x="485" y="313.39536"/>
      <point x="401" y="391.10937"/>
      <point x="269" y="391.10937" type="curve" smooth="yes"/>
      <point x="137" y="391.10937"/>
      <point x="53" y="313.39536"/>
      <point x="53" y="192.24649" type="curve" smooth="yes"/>
      <point x="53" y="71.09762"/>
      <point x="137" y="-6.61639"/>
    </contour>
    <contour>
      <point x="269" y="32.00551" type="curve" smooth="yes"/>
      <point x="163" y="32.00551"/>
      <point x="96" y="90.45469"/>
      <point x="96" y="192.24649" type="curve" smooth="yes"/>
      <point x="96" y="294.03829"/>
      <point x="163" y="352.48746"/>
      <point x="269" y="352.48746" type="curve" smooth="yes"/>
      <point x="375" y="352.48746"/>
      <point x="442" y="294.03829"/>
      <point x="442" y="192.24649" type="curve" smooth="yes"/>
      <point x="442" y="90.45469"/>
      <point x="375" y="32.00551"/>
    </contour>
    <contour>
      <point x="269" y="0" type="move" name="bottom"/>
    </contour>
    <contour>
      <point x="269" y="192.24649" type="move" name="center"/>
    </contour>
    <contour>
      <point x="328" y="0" type="move" name="ogonek"/>
    </contour>
    <contour>
      <point x="269" y="383.81201" type="move" name="top"/>
    </contour>
    <contour>
      <point x="315" y="383.81201" type="move" name="topright"/>
    </contour>
  </outline>
</glyph>
<glyph name="p" format="1">
  <advance width="568"/>
  <unicode hex="0070"/>
  <outline>
    <contour>
      <point x="300" y="391.10937" type="curve" smooth="yes"/>
      <point x="207" y="391.10937"/>
      <point x="138" y="350.82671"/>
      <point x="116" y="287.63932" type="curve"/>
      <point x="127" y="287.63932" type="line"/>
      <point x="127" y="384.49298" type="line"/>
      <point x="85" y="384.49298" type="line"/>
      <point x="85" y="-142.74001" type="line"/>
      <point x="127" y="-142.74001" type="line"/>
      <point x="127" y="96.30889" type="line"/>
      <point x="116" y="96.30889" type="line"/>
      <point x="138" y="33.53007"/>
      <point x="207" y="-6.61639"/>
      <point x="300" y="-6.61639" type="curve" smooth="yes"/>
      <point x="432" y="-6.61639"/>
      <point x="515" y="70.37271"/>
      <point x="515" y="192.24649" type="curve" smooth="yes"/>
      <point x="515" y="314.12027"/>
      <point x="431" y="391.10937"/>
    </contour>
    <contour>
      <point x="299" y="352.48746" type="curve" smooth="yes"/>
      <point x="405" y="352.48746"/>
      <point x="472" y="294.03829"/>
      <point x="472" y="192.24649" type="curve" smooth="yes"/>
      <point x="472" y="90.45469"/>
      <point x="405" y="32.00551"/>
      <point x="299" y="32.00551" type="curve" smooth="yes"/>
      <point x="193" y="32.00551"/>
      <point x="126" y="90.45469"/>
      <point x="126" y="192.24649" type="curve" smooth="yes"/>
      <point x="126" y="294.03829"/>
      <point x="193" y="352.48746"/>
    </contour>
    <contour>
      <point x="282" y="0" type="move" name="bottom"/>
    </contour>
    <contour>
      <point x="282" y="383.81201" type="move" name="top"/>
    </contour>
  </outline>
</glyph>
<glyph name="q" format="1">
  <advance width="568"/>
  <unicode hex="0071"/>
  <outline>
    <contour>
      <point x="268" y="391.10937" type="curve" smooth="yes"/>
      <point x="137" y="391.10937"/>
      <point x="53" y="314.12027"/>
      <point x="53" y="192.24649" type="curve" smooth="yes"/>
      <point x="53" y="70.37271"/>
      <point x="136" y="-6.61639"/>
      <point x="268" y="-6.61639" type="curve" smooth="yes"/>
      <point x="361" y="-6.61639"/>
      <point x="430" y="33.53007"/>
      <point x="452" y="96.30889" type="curve"/>
      <point x="441" y="96.30889" type="line"/>
      <point x="441" y="-142.74001" type="line"/>
      <point x="483" y="-142.74001" type="line"/>
      <point x="483" y="384.49298" type="line"/>
      <point x="441" y="384.49298" type="line"/>
      <point x="441" y="287.63932" type="line"/>
      <point x="452" y="287.63932" type="line"/>
      <point x="430" y="350.82671"/>
      <point x="361" y="391.10937"/>
    </contour>
    <contour>
      <point x="269" y="352.48746" type="curve" smooth="yes"/>
      <point x="375" y="352.48746"/>
      <point x="442" y="294.03829"/>
      <point x="442" y="192.24649" type="curve" smooth="yes"/>
      <point x="442" y="90.45469"/>
      <point x="375" y="32.00551"/>
      <point x="269" y="32.00551" type="curve" smooth="yes"/>
      <point x="163" y="32.00551"/>
      <point x="96" y="90.45469"/>
      <point x="96" y="192.24649" type="curve" smooth="yes"/>
      <point x="96" y="294.03829"/>
      <point x="163" y="352.48746"/>
    </contour>
    <contour>
      <point x="282" y="0" type="move" name="bottom"/>
    </contour>
    <contour>
      <point x="282" y="383.81201" type="move" name="top"/>
    </contour>
  </outline>
</glyph>
<glyph name="r" format="1">
  <advance width="327"/>
  <unicode hex="0072"/>
  <outline>
    <contour>
      <point x="85" y="0" type="line"/>
      <point x="127" y="0" type="line"/>
      <point x="127" y="226.2247" type="line" smooth="yes"/>
      <point x="127" y="298.97204"/>
      <point x="185" y="344.16867"/>
      <point x="284" y="351.10138" type="curve" smooth="yes"/>
      <point x="318" y="354.75005" type="line"/>
      <point x="313" y="394.14517" type="line"/>
      <point x="292" y="392.42298" type="line" smooth="yes"/>
      <point x="198" y="386.94008"/>
      <point x="143" y="356.91811"/>
      <point x="116" y="294.20301" type="curve"/>
      <point x="126" y="294.20301" type="line"/>
      <point x="126" y="384.49298" type="line"/>
      <point x="85" y="384.49298" type="line"/>
    </contour>
    <contour>
      <point x="106" y="0" type="move" name="bottom"/>
    </contour>
    <contour>
      <point x="204" y="383.81201" type="move" name="top"/>
    </contour>
  </outline>
</glyph>
<glyph name="s" format="1">
  <advance width="475"/>
  <unicode hex="0073"/>
  <outline>
    <contour>
      <point x="236" y="-6.61639" type="curve" smooth="yes"/>
      <point x="346" y="-6.61639"/>
      <point x="417" y="35.43677"/>
      <point x="417" y="102.64186" type="curve" smooth="yes"/>
      <point x="417" y="155.07212"/>
      <point x="375" y="185.02599"/>
      <point x="288" y="201.13422" type="curve" smooth="yes"/>
      <point x="205" y="216.85802" type="line" smooth="yes"/>
      <point x="143" y="227.93587"/>
      <point x="117" y="247.32813"/>
      <point x="117" y="281.35466" type="curve" smooth="yes"/>
      <point x="117" y="325.07732"/>
      <point x="164" y="353.44082"/>
      <point x="246" y="353.44082" type="curve" smooth="yes"/>
      <point x="300" y="353.44082"/>
      <point x="349" y="337.58081"/>
      <point x="388" y="307.01845" type="curve"/>
      <point x="408" y="340.51771" type="line"/>
      <point x="373" y="372.75833"/>
      <point x="313" y="391.10937"/>
      <point x="247" y="391.10937" type="curve" smooth="yes"/>
      <point x="142" y="391.10937"/>
      <point x="73" y="346.60911"/>
      <point x="73" y="279.8807" type="curve" smooth="yes"/>
      <point x="73" y="227.45044"/>
      <point x="111" y="194.46076"/>
      <point x="195" y="179.07744" type="curve" smooth="yes"/>
      <point x="278" y="163.35363" type="line" smooth="yes"/>
      <point x="344" y="151.61898"/>
      <point x="373" y="133.81272"/>
      <point x="373" y="100.2387" type="curve" smooth="yes"/>
      <point x="373" y="57.17285"/>
      <point x="326" y="31.05216"/>
      <point x="239" y="31.05216" type="curve" smooth="yes"/>
      <point x="181" y="31.05216"/>
      <point x="125" y="44.80555"/>
      <point x="77" y="76.95391" type="curve"/>
      <point x="57" y="43.25036" type="line"/>
      <point x="98" y="11.35023"/>
      <point x="167" y="-6.61639"/>
    </contour>
    <contour>
      <point x="236" y="0" type="move" name="bottom"/>
    </contour>
    <contour>
      <point x="246" y="383.81201" type="move" name="top"/>
    </contour>
  </outline>
</glyph>
<glyph name="t" format="1">
  <advance width="320"/>
  <unicode hex="0074"/>
  <outline>
    <contour>
      <point x="258" y="32.95886" type="curve" smooth="yes"/>
      <point x="177" y="32.95886"/>
      <point x="145" y="68.25507"/>
      <point x="145" y="134.04554" type="curve" smooth="yes"/>
      <point x="145" y="348.04579" type="line"/>
      <point x="304" y="348.04579" type="line"/>
      <point x="304" y="384.49298" type="line"/>
      <point x="145" y="384.49298" type="line"/>
      <point x="145" y="503.55502" type="line"/>
      <point x="103" y="503.55502" type="line"/>
      <point x="103" y="384.49298" type="line"/>
      <point x="6" y="384.49298" type="line"/>
      <point x="6" y="348.04579" type="line"/>
      <point x="103" y="348.04579" type="line"/>
      <point x="103" y="127.18092" type="line" smooth="yes"/>
      <point x="103" y="41.71268"/>
      <point x="154" y="-6.61639"/>
      <point x="255" y="-6.61639" type="curve" smooth="yes"/>
      <point x="282" y="-6.61639"/>
      <point x="318" y="0.58871"/>
      <point x="330" y="7.54558" type="curve"/>
      <point x="320" y="43.06358" type="line"/>
      <point x="305" y="38.23748"/>
      <point x="282" y="32.95886"/>
    </contour>
    <contour>
      <point x="203" y="0" type="move" name="bottom"/>
    </contour>
    <contour>
      <point x="151" y="214.12979" type="move" name="center"/>
    </contour>
    <contour>
      <point x="124" y="503.55502" type="move" name="top"/>
    </contour>
    <contour>
      <point x="225" y="559.06502" type="move" name="topright"/>
    </contour>
  </outline>
</glyph>
<glyph name="u" format="1">
  <advance width="545"/>
  <unicode hex="0075"/>
  <outline>
    <contour>
      <point x="418" y="384.49298" type="line"/>
      <point x="418" y="165.24055" type="line" smooth="yes"/>
      <point x="418" y="85.26833"/>
      <point x="351" y="32.41409"/>
      <point x="254" y="32.41409" type="curve" smooth="yes"/>
      <point x="165" y="32.41409"/>
      <point x="125" y="68.5033"/>
      <point x="125" y="144.89493" type="curve" smooth="yes"/>
      <point x="125" y="384.49298" type="line"/>
      <point x="83" y="384.49298" type="line"/>
      <point x="83" y="142.4039" type="line" smooth="yes"/>
      <point x="83" y="44.61229"/>
      <point x="139" y="-6.61639"/>
      <point x="254" y="-6.61639" type="curve" smooth="yes"/>
      <point x="337" y="-6.61639"/>
      <point x="406" y="28.31955"/>
      <point x="431" y="93.36534" type="curve"/>
      <point x="419" y="93.36534" type="line"/>
      <point x="419" y="0" type="line"/>
      <point x="460" y="0" type="line"/>
      <point x="460" y="384.49298" type="line"/>
    </contour>
    <contour>
      <point x="273" y="0" type="move" name="bottom"/>
    </contour>
    <contour>
      <point x="460" y="0" type="move" name="ogonek"/>
    </contour>
    <contour>
      <point x="273" y="384.53692" type="move" name="top"/>
    </contour>
    <contour>
      <point x="420" y="383.81201" type="move" name="topright"/>
    </contour>
  </outline>
</glyph>
<glyph name="v" format="1">
  <advance width="504"/>
  <unicode hex="0076"/>
  <outline>
    <contour>
      <point x="228" y="0" type="line"/>
      <point x="276" y="0" type="line"/>
      <point x="482" y="384.49298" type="line"/>
      <point x="435" y="384.49298" type="line"/>
      <point x="240" y="24.76523" type="line"/>
      <point x="264" y="24.76523" type="line"/>
      <point x="70" y="384.49298" type="line"/>
      <point x="22" y="384.49298" type="line"/>
    </contour>
    <contour>
      <point x="252" y="0" type="move" name="bottom"/>
    </contour>
    <contour>
      <point x="252" y="383.81201" type="move" name="top"/>
    </contour>
  </outline>
</glyph>
<glyph name="w" format="1">
  <advance width="830"/>
  <unicode hex="0077"/>
  <outline>
    <contour>
      <point x="210" y="0" type="line"/>
      <point x="260" y="0" type="line"/>
      <point x="432" y="366.48033" type="line"/>
      <point x="401" y="366.48033" type="line"/>
      <point x="570" y="0" type="line"/>
      <point x="619" y="0" type="line"/>
      <point x="791" y="384.49298" type="line"/>
      <point x="746" y="384.49298" type="line"/>
      <point x="581" y="24.06448" type="line"/>
      <point x="607" y="24.06448" type="line"/>
      <point x="442" y="384.49298" type="line"/>
      <point x="390" y="384.49298" type="line"/>
      <point x="221" y="24.06448" type="line"/>
      <point x="247" y="24.06448" type="line"/>
      <point x="86" y="384.49298" type="line"/>
      <point x="40" y="384.49298" type="line"/>
    </contour>
    <contour>
      <point x="415" y="0" type="move" name="bottom"/>
    </contour>
    <contour>
      <point x="415" y="383.81201" type="move" name="top"/>
    </contour>
  </outline>
</glyph>
<glyph name="x" format="1">
  <advance width="506"/>
  <unicode hex="0078"/>
  <outline>
    <contour>
      <point x="271" y="188.14092" type="line"/>
      <point x="467" y="384.49298" type="line"/>
      <point x="416" y="384.49298" type="line"/>
      <point x="246" y="219.55772" type="line"/>
      <point x="261" y="219.55772" type="line"/>
      <point x="91" y="384.49298" type="line"/>
      <point x="40" y="384.49298" type="line"/>
      <point x="238" y="186.03431" type="line"/>
      <point x="238" y="211.01048" type="line"/>
      <point x="29" y="0" type="line"/>
      <point x="80" y="0" type="line"/>
      <point x="261" y="175.24426" type="line"/>
      <point x="245" y="175.24426" type="line"/>
      <point x="426" y="0" type="line"/>
      <point x="478" y="0" type="line"/>
      <point x="271" y="208.24706" type="line"/>
    </contour>
    <contour>
      <point x="253" y="0" type="move" name="bottom"/>
    </contour>
    <contour>
      <point x="253" y="383.81201" type="move" name="top"/>
    </contour>
  </outline>
</glyph>
<glyph name="y" format="1">
  <advance width="504"/>
  <unicode hex="0079"/>
  <outline>
    <contour>
      <point x="435" y="384.49298" type="line"/>
      <point x="240" y="24.76523" type="line"/>
      <point x="264" y="24.76523" type="line"/>
      <point x="70" y="384.49298" type="line"/>
      <point x="22" y="384.49298" type="line"/>
      <point x="233" y="-9.42375" type="line"/>
      <point x="233" y="10.65823" type="line"/>
      <point x="152" y="-142.74001" type="line"/>
      <point x="199" y="-142.74001" type="line"/>
      <point x="483" y="384.49298" type="line"/>
    </contour>
    <contour>
      <point x="371" y="0" type="move" name="bottom"/>
    </contour>
    <contour>
      <point x="252" y="383.81201" type="move" name="top"/>
    </contour>
  </outline>
</glyph>
<glyph name="z" format="1">
  <advance width="454"/>
  <unicode hex="007A"/>
  <outline>
    <contour>
      <point x="60" y="0" type="line"/>
      <point x="421" y="0" type="line"/>
      <point x="421" y="36.44719" type="line"/>
      <point x="100" y="36.44719" type="line"/>
      <point x="100" y="22.68943" type="line"/>
      <point x="410" y="353.75714" type="line"/>
      <point x="410" y="384.49298" type="line"/>
      <point x="60" y="384.49298" type="line"/>
      <point x="60" y="348.04579" type="line"/>
      <point x="369" y="348.04579" type="line"/>
      <point x="369" y="360.60197" type="line"/>
      <point x="60" y="30.73584" type="line"/>
    </contour>
    <contour>
      <point x="235" y="0" type="move" name="bottom"/>
    </contour>
    <contour>
      <point x="235" y="383.81201" type="move" name="top"/>
    </contour>
  </outline>
</glyph>
<glyph name="braceleft" format="1">
  <advance width="318"/>
  <unicode hex="007B"/>
  <outline>
    <contour>
      <point x="231" y="-142.74001" type="curve" smooth="yes"/>
      <point x="314" y="-142.74001" type="line"/>
      <point x="314" y="-105.56791" type="line"/>
      <point x="236" y="-105.56791" type="line" smooth="yes"/>
      <point x="206" y="-105.56791"/>
      <point x="191" y="-93.8772"/>
      <point x="191" y="-69.3623" type="curve" smooth="yes"/>
      <point x="191" y="128.73401" type="line" smooth="yes"/>
      <point x="191" y="175.99769"/>
      <point x="156" y="210.00882"/>
      <point x="105" y="210.00882" type="curve"/>
      <point x="105" y="206.83682" type="line"/>
      <point x="156" y="206.83682"/>
      <point x="191" y="240.91603"/>
      <point x="191" y="288.17971" type="curve" smooth="yes"/>
      <point x="191" y="485.68731" type="line" smooth="yes"/>
      <point x="191" y="510.20222"/>
      <point x="206" y="521.89293"/>
      <point x="236" y="521.89293" type="curve" smooth="yes"/>
      <point x="314" y="521.89293" type="line"/>
      <point x="314" y="559.06502" type="line"/>
      <point x="231" y="559.06502" type="line" smooth="yes"/>
      <point x="177" y="559.06502"/>
      <point x="149" y="533.95703"/>
      <point x="149" y="486.68898" type="curve" smooth="yes"/>
      <point x="149" y="292.12493" type="line" smooth="yes"/>
      <point x="149" y="247.98931"/>
      <point x="128" y="230.0227"/>
      <point x="73" y="227.5756" type="curve" smooth="yes"/>
      <point x="54" y="226.51022" type="line"/>
      <point x="54" y="190.40351" type="line"/>
      <point x="73" y="189.33812" type="line" smooth="yes"/>
      <point x="128" y="186.89103"/>
      <point x="149" y="168.92441"/>
      <point x="149" y="124.7888" type="curve" smooth="yes"/>
      <point x="149" y="-70.36396" type="line" smooth="yes"/>
      <point x="149" y="-117.63201"/>
      <point x="177" y="-142.74001"/>
    </contour>
  </outline>
</glyph>
<glyph name="bar" format="1">
  <advance width="244"/>
  <unicode hex="007C"/>
  <outline>
    <contour>
      <point x="101" y="-142.74001" type="line"/>
      <point x="143" y="-142.74001" type="line"/>
      <point x="143" y="559.06502" type="line"/>
      <point x="101" y="559.06502" type="line"/>
    </contour>
  </outline>
</glyph>
<glyph name="braceright" format="1">
  <advance width="318"/>
  <unicode hex="007D"/>
  <outline>
    <contour>
      <point x="87" y="-142.74001" type="line"/>
      <point x="141" y="-142.74001"/>
      <point x="169" y="-116.97521"/>
      <point x="169" y="-70.36396" type="curve" smooth="yes"/>
      <point x="169" y="124.7888" type="line" smooth="yes"/>
      <point x="169" y="169.58122"/>
      <point x="190" y="187.54783"/>
      <point x="245" y="189.33812" type="curve" smooth="yes"/>
      <point x="264" y="190.40351" type="line"/>
      <point x="264" y="226.51022" type="line"/>
      <point x="245" y="227.5756" type="line" smooth="yes"/>
      <point x="190" y="230.0908"/>
      <point x="169" y="247.33251"/>
      <point x="169" y="292.12493" type="curve" smooth="yes"/>
      <point x="169" y="486.68898" type="line" smooth="yes"/>
      <point x="169" y="533.30022"/>
      <point x="141" y="559.06502"/>
      <point x="87" y="559.06502" type="curve" smooth="yes"/>
      <point x="4" y="559.06502" type="line"/>
      <point x="4" y="521.89293" type="line"/>
      <point x="82" y="521.89293" type="line" smooth="yes"/>
      <point x="112" y="521.89293"/>
      <point x="127" y="510.20222"/>
      <point x="127" y="485.68731" type="curve" smooth="yes"/>
      <point x="127" y="288.17971" type="line" smooth="yes"/>
      <point x="127" y="240.91603"/>
      <point x="162" y="206.83682"/>
      <point x="213" y="206.83682" type="curve"/>
      <point x="213" y="210.00882" type="line"/>
      <point x="162" y="210.00882"/>
      <point x="127" y="175.9296"/>
      <point x="127" y="128.73401" type="curve" smooth="yes"/>
      <point x="127" y="-69.3623" type="line" smooth="yes"/>
      <point x="127" y="-93.8772"/>
      <point x="112" y="-105.56791"/>
      <point x="82" y="-105.56791" type="curve" smooth="yes"/>
      <point x="4" y="-105.56791" type="line"/>
      <point x="4" y="-142.74001" type="line"/>
    </contour>
  </outline>
</glyph>
<glyph name="asciitilde" format="1">
  <advance width="600"/>
  <unicode hex="007E"/>
  <outline>
    <contour>
      <point x="509" y="266.34035" type="line"/>
      <point x="489" y="230.40712"/>
      <point x="458" y="212.5767"/>
      <point x="417" y="212.5767" type="curve" smooth="yes"/>
      <point x="389" y="212.5767"/>
      <point x="362" y="223.27012"/>
      <point x="308" y="246.37916" type="curve" smooth="yes"/>
      <point x="251" y="271.07419"/>
      <point x="216" y="279.661"/>
      <point x="181" y="279.661" type="curve" smooth="yes"/>
      <point x="125" y="279.661"/>
      <point x="84" y="253.85226"/>
      <point x="56" y="204.27768" type="curve"/>
      <point x="92" y="188.84167" type="line"/>
      <point x="113" y="225.4998"/>
      <point x="142" y="242.67342"/>
      <point x="183" y="242.67342" type="curve" smooth="yes"/>
      <point x="206" y="242.67342"/>
      <point x="230" y="236.19322"/>
      <point x="287" y="210.90947" type="curve" smooth="yes"/>
      <point x="344" y="185.35334"/>
      <point x="385" y="175.52102"/>
      <point x="420" y="175.52102" type="curve" smooth="yes"/>
      <point x="476" y="175.52102"/>
      <point x="516" y="200.67295"/>
      <point x="544" y="250.83624" type="curve"/>
    </contour>
  </outline>
</glyph>
<glyph name="exclamdown" format="1">
  <advance width="211"/>
  <unicode hex="00A1"/>
  <outline>
    <contour>
      <point x="92" y="250.41891" type="line"/>
      <point x="79" y="-142.74001" type="line"/>
      <point x="132" y="-142.74001" type="line"/>
      <point x="119" y="250.41891" type="line"/>
    </contour>
    <contour>
      <point x="71" y="319.65376" type="line"/>
      <point x="140" y="319.65376" type="line"/>
      <point x="140" y="384.49298" type="line"/>
      <point x="71" y="384.49298" type="line"/>
    </contour>
  </outline>
</glyph>
<glyph name="cent" format="1">
  <advance width="600"/>
  <unicode hex="00A2"/>
  <outline>
    <contour>
      <point x="468" y="79.24503" type="line"/>
      <point x="429" y="48.68267"/>
      <point x="377" y="34.34058"/>
      <point x="322" y="34.34058" type="curve" smooth="yes"/>
      <point x="211" y="34.34058"/>
      <point x="142" y="95.3972"/>
      <point x="142" y="192.51888" type="curve" smooth="yes"/>
      <point x="142" y="287.46584"/>
      <point x="213" y="350.35669"/>
      <point x="323" y="350.35669" type="curve" smooth="yes"/>
      <point x="377" y="350.35669"/>
      <point x="429" y="335.35779"/>
      <point x="468" y="304.79543" type="curve"/>
      <point x="488" y="338.25075" type="line"/>
      <point x="453" y="369.63027"/>
      <point x="386" y="389.18288"/>
      <point x="327" y="389.25098" type="curve"/>
      <point x="336" y="370.78353" type="line"/>
      <point x="336" y="479.58489" type="line"/>
      <point x="296" y="479.58489" type="line"/>
      <point x="296" y="369.83018" type="line"/>
      <point x="305" y="388.70621" type="line"/>
      <point x="181" y="379.55047"/>
      <point x="99" y="299.72985"/>
      <point x="99" y="192.9033" type="curve" smooth="yes"/>
      <point x="99" y="82.04364"/>
      <point x="184" y="1.1818"/>
      <point x="306" y="-4.55371" type="curve"/>
      <point x="296" y="8.65928" type="line"/>
      <point x="296" y="-91.195" type="line"/>
      <point x="336" y="-91.195" type="line"/>
      <point x="336" y="7.84212" type="line"/>
      <point x="325" y="-5.68719" type="line"/>
      <point x="384" y="-5.41481"/>
      <point x="451" y="14.47829"/>
      <point x="488" y="46.51462" type="curve"/>
    </contour>
  </outline>
</glyph>
<glyph name="sterling" format="1">
  <advance width="600"/>
  <unicode hex="00A3"/>
  <outline>
    <contour>
      <point x="51" y="0" type="line"/>
      <point x="545" y="0" type="line"/>
      <point x="545" y="39.84764" type="line"/>
      <point x="204" y="39.84764" type="line"/>
      <point x="204" y="262.86306" type="line"/>
      <point x="396" y="262.86306" type="line"/>
      <point x="396" y="296.99497" type="line"/>
      <point x="204" y="296.99497" type="line"/>
      <point x="204" y="412.53577" type="line" smooth="yes"/>
      <point x="204" y="486.50447"/>
      <point x="255" y="524.72445"/>
      <point x="353" y="524.72445" type="curve" smooth="yes"/>
      <point x="430" y="524.72445"/>
      <point x="497" y="505.8528"/>
      <point x="535" y="464.25653" type="curve"/>
      <point x="558" y="501.22433" type="line"/>
      <point x="510" y="542.29999"/>
      <point x="433" y="565.68141"/>
      <point x="360" y="565.68141" type="curve" smooth="yes"/>
      <point x="229" y="565.68141"/>
      <point x="162" y="509.96274"/>
      <point x="162" y="410.4731" type="curve" smooth="yes"/>
      <point x="162" y="296.99497" type="line"/>
      <point x="51" y="296.99497" type="line"/>
      <point x="51" y="262.86306" type="line"/>
      <point x="162" y="262.86306" type="line"/>
      <point x="162" y="39.84764" type="line"/>
      <point x="51" y="39.84764" type="line"/>
    </contour>
  </outline>
</glyph>
<glyph name="currency" format="1">
  <advance width="600"/>
  <unicode hex="00A4"/>
  <outline>
    <contour>
      <point x="541" y="194.28501" type="curve" smooth="yes"/>
      <point x="541" y="241.18404"/>
      <point x="521" y="283.46127"/>
      <point x="486" y="318.08089" type="curve"/>
      <point x="559" y="376.24228" type="line"/>
      <point x="523" y="407.30985" type="line"/>
      <point x="452" y="348.42356" type="line"/>
      <point x="410" y="375.49759"/>
      <point x="358" y="390.94902"/>
      <point x="301" y="390.94902" type="curve" smooth="yes"/>
      <point x="243" y="390.94902"/>
      <point x="189" y="374.70459"/>
      <point x="148" y="346.97375" type="curve"/>
      <point x="74" y="407.10556" type="line"/>
      <point x="39" y="376.44657" type="line"/>
      <point x="113" y="316.31476" type="line"/>
      <point x="80" y="283.07685"/>
      <point x="61" y="239.93853"/>
      <point x="61" y="194.28501" type="curve" smooth="yes"/>
      <point x="61" y="148.69958"/>
      <point x="81" y="105.49316"/>
      <point x="113" y="72.25526" type="curve"/>
      <point x="39" y="12.12345" type="line"/>
      <point x="74" y="-18.46745" type="line"/>
      <point x="148" y="40.93946" type="line"/>
      <point x="190" y="13.86542"/>
      <point x="243" y="-2.379"/>
      <point x="301" y="-2.379" type="curve" smooth="yes"/>
      <point x="358" y="-2.379"/>
      <point x="410" y="13.14052"/>
      <point x="451" y="40.41884" type="curve"/>
      <point x="523" y="-18.33125" type="line"/>
      <point x="559" y="12.12345" type="line"/>
      <point x="486" y="71.00974" type="line"/>
      <point x="521" y="104.90445"/>
      <point x="541" y="147.31787"/>
    </contour>
    <contour>
      <point x="300" y="39.55109" type="curve" smooth="yes"/>
      <point x="194" y="39.55109"/>
      <point x="108" y="108.30927"/>
      <point x="108" y="194.28501" type="curve" smooth="yes"/>
      <point x="108" y="280.26074"/>
      <point x="194" y="348.36211"/>
      <point x="300" y="349.01892" type="curve" smooth="yes"/>
      <point x="407" y="349.60763"/>
      <point x="492" y="280.26074"/>
      <point x="492" y="194.28501" type="curve" smooth="yes"/>
      <point x="492" y="108.30927"/>
      <point x="407" y="39.55109"/>
    </contour>
  </outline>
</glyph>
<glyph name="yen" format="1">
  <advance width="600"/>
  <unicode hex="00A5"/>
  <outline>
    <contour>
      <point x="595" y="559.06502" type="line"/>
      <point x="545" y="559.06502" type="line"/>
      <point x="293" y="295.0333" type="line"/>
      <point x="308" y="295.0333" type="line"/>
      <point x="55" y="559.06502" type="line"/>
      <point x="5" y="559.06502" type="line"/>
      <point x="255" y="293.52642" type="line"/>
      <point x="255" y="300.23506" type="line"/>
      <point x="76" y="300.23506" type="line"/>
      <point x="76" y="266.51173" type="line"/>
      <point x="279" y="266.51173" type="line"/>
      <point x="279" y="180.4679" type="line"/>
      <point x="76" y="180.4679" type="line"/>
      <point x="76" y="146.74457" type="line"/>
      <point x="279" y="146.74457" type="line"/>
      <point x="279" y="0" type="line"/>
      <point x="321" y="0" type="line"/>
      <point x="321" y="146.74457" type="line"/>
      <point x="524" y="146.74457" type="line"/>
      <point x="524" y="180.4679" type="line"/>
      <point x="321" y="180.4679" type="line"/>
      <point x="321" y="266.51173" type="line"/>
      <point x="524" y="266.51173" type="line"/>
      <point x="524" y="300.23506" type="line"/>
      <point x="347" y="300.23506" type="line"/>
      <point x="347" y="293.52642" type="line"/>
    </contour>
  </outline>
</glyph>
<glyph name="brokenbar" format="1">
  <advance width="244"/>
  <unicode hex="00A6"/>
  <outline>
    <contour>
      <point x="101" y="294.92791" type="line"/>
      <point x="143" y="294.92791" type="line"/>
      <point x="143" y="559.06502" type="line"/>
      <point x="101" y="559.06502" type="line"/>
    </contour>
    <contour>
      <point x="101" y="-142.74001" type="line"/>
      <point x="143" y="-142.74001" type="line"/>
      <point x="143" y="121.3971" type="line"/>
      <point x="101" y="121.3971" type="line"/>
    </contour>
  </outline>
</glyph>
<glyph name="section" format="1">
  <advance width="523"/>
  <unicode hex="00A7"/>
  <outline>
    <contour>
      <point x="234" y="-149.35639" type="curve" smooth="yes"/>
      <point x="348" y="-149.35639"/>
      <point x="435" y="-97.13043"/>
      <point x="435" y="-9.87626" type="curve" smooth="yes"/>
      <point x="435" y="22.97722"/>
      <point x="425" y="43.37115"/>
      <point x="418" y="55.11018" type="curve"/>
      <point x="413" y="41.28432" type="line"/>
      <point x="447" y="64.64596"/>
      <point x="475" y="107.60415"/>
      <point x="475" y="148.36785" type="curve" smooth="yes"/>
      <point x="475" y="206.39305"/>
      <point x="444" y="243.7563"/>
      <point x="331" y="286.21367" type="curve" smooth="yes"/>
      <point x="236" y="324.25789" type="line" smooth="yes"/>
      <point x="157" y="352.82567"/>
      <point x="132" y="382.70707"/>
      <point x="132" y="427.35892" type="curve" smooth="yes"/>
      <point x="132" y="491.53923"/>
      <point x="196" y="527.28795"/>
      <point x="280" y="527.28795" type="curve" smooth="yes"/>
      <point x="342" y="527.28795"/>
      <point x="404" y="510.11434"/>
      <point x="443" y="480.86559" type="curve"/>
      <point x="463" y="514.36485" type="line"/>
      <point x="424" y="546.33308"/>
      <point x="357" y="564.9565"/>
      <point x="283" y="564.9565" type="curve" smooth="yes"/>
      <point x="175" y="564.9565"/>
      <point x="88" y="512.73054"/>
      <point x="88" y="425.47638" type="curve" smooth="yes"/>
      <point x="88" y="392.4867"/>
      <point x="98" y="372.22896"/>
      <point x="105" y="360.48994" type="curve"/>
      <point x="110" y="374.3158" type="line"/>
      <point x="76" y="350.95416"/>
      <point x="48" y="307.99596"/>
      <point x="48" y="267.23226" type="curve" smooth="yes"/>
      <point x="48" y="209.20706"/>
      <point x="79" y="171.84381"/>
      <point x="192" y="129.38645" type="curve" smooth="yes"/>
      <point x="287" y="91.34223" type="line" smooth="yes"/>
      <point x="366" y="62.77444"/>
      <point x="391" y="32.89305"/>
      <point x="391" y="-11.75881" type="curve" smooth="yes"/>
      <point x="391" y="-75.93912"/>
      <point x="327" y="-111.68784"/>
      <point x="237" y="-111.68784" type="curve" smooth="yes"/>
      <point x="171" y="-111.68784"/>
      <point x="107" y="-93.96945"/>
      <point x="68" y="-64.51642" type="curve"/>
      <point x="48" y="-98.28806" type="line"/>
      <point x="87" y="-130.39249"/>
      <point x="154" y="-149.35639"/>
    </contour>
    <contour>
      <point x="389" y="68.54724" type="curve"/>
      <point x="408" y="68.4352" type="line"/>
      <point x="388" y="89.86598"/>
      <point x="352" y="112.74657"/>
      <point x="290" y="134.76607" type="curve" smooth="yes"/>
      <point x="209" y="167.25929" type="line" smooth="yes"/>
      <point x="115" y="201.03759"/>
      <point x="89" y="230.35443"/>
      <point x="89" y="271.54212" type="curve" smooth="yes"/>
      <point x="89" y="301.6278"/>
      <point x="105" y="328.22516"/>
      <point x="134" y="347.05288" type="curve"/>
      <point x="115" y="347.16491" type="line"/>
      <point x="135" y="325.73413"/>
      <point x="171" y="302.78544"/>
      <point x="233" y="280.83405" type="curve" smooth="yes"/>
      <point x="314" y="248.34083" type="line" smooth="yes"/>
      <point x="408" y="214.63062"/>
      <point x="434" y="185.24568"/>
      <point x="434" y="144.058" type="curve" smooth="yes"/>
      <point x="434" y="113.97231"/>
      <point x="418" y="87.37495"/>
    </contour>
  </outline>
</glyph>
<glyph name="copyright" format="1">
  <advance width="815"/>
  <unicode hex="00A9"/>
  <outline>
    <contour>
      <point x="408" y="-6.61639" type="curve" smooth="yes"/>
      <point x="612" y="-6.61639"/>
      <point x="768" y="118.02081"/>
      <point x="768" y="279.92901" type="curve" smooth="yes"/>
      <point x="768" y="441.83721"/>
      <point x="612" y="565.68141"/>
      <point x="408" y="565.68141" type="curve" smooth="yes"/>
      <point x="203" y="565.68141"/>
      <point x="47" y="441.83721"/>
      <point x="47" y="279.92901" type="curve" smooth="yes"/>
      <point x="47" y="118.02081"/>
      <point x="204" y="-6.61639"/>
    </contour>
    <contour>
      <point x="408" y="24.24689" type="curve" smooth="yes"/>
      <point x="225" y="24.24689"/>
      <point x="84" y="135.10655"/>
      <point x="84" y="279.92901" type="curve" smooth="yes"/>
      <point x="84" y="424.75147"/>
      <point x="225" y="534.81813"/>
      <point x="408" y="534.81813" type="curve" smooth="yes"/>
      <point x="590" y="534.81813"/>
      <point x="731" y="424.75147"/>
      <point x="731" y="279.92901" type="curve" smooth="yes"/>
      <point x="731" y="135.10655"/>
      <point x="590" y="24.24689"/>
    </contour>
    <contour>
      <point x="417" y="108.641" type="curve" smooth="yes"/>
      <point x="468" y="108.641"/>
      <point x="524" y="125.61033"/>
      <point x="558" y="152.68437" type="curve"/>
      <point x="540" y="184.64157" type="line"/>
      <point x="501" y="156.66249"/>
      <point x="456" y="144.97178"/>
      <point x="416" y="144.97178" type="curve" smooth="yes"/>
      <point x="317" y="144.97178"/>
      <point x="258" y="197.82602"/>
      <point x="258" y="281.31072" type="curve" smooth="yes"/>
      <point x="258" y="365.52032"/>
      <point x="317" y="414.09324"/>
      <point x="416" y="414.09324" type="curve" smooth="yes"/>
      <point x="456" y="414.09324"/>
      <point x="501" y="403.05933"/>
      <point x="540" y="375.14836" type="curve"/>
      <point x="558" y="406.38066" type="line"/>
      <point x="524" y="433.45469"/>
      <point x="470" y="450.42402"/>
      <point x="417" y="450.42402" type="curve" smooth="yes"/>
      <point x="292" y="450.42402"/>
      <point x="217" y="386.12292"/>
      <point x="217" y="282.03563" type="curve" smooth="yes"/>
      <point x="217" y="177.94833"/>
      <point x="292" y="108.641"/>
    </contour>
  </outline>
</glyph>
<glyph name="ordfeminine" format="1">
  <advance width="316"/>
  <unicode hex="00AA"/>
  <outline>
    <contour>
      <point x="137" y="326.75995" type="curve" smooth="yes"/>
      <point x="184" y="326.75995"/>
      <point x="215" y="340.71763"/>
      <point x="238" y="373.16253" type="curve"/>
      <point x="240" y="373.16253" type="line"/>
      <point x="240" y="330.92924" type="line"/>
      <point x="274" y="330.92924" type="line"/>
      <point x="274" y="478.53928" type="line" smooth="yes"/>
      <point x="274" y="536.58863"/>
      <point x="236" y="565.68141"/>
      <point x="161" y="565.68141" type="curve" smooth="yes"/>
      <point x="119" y="565.68141"/>
      <point x="76" y="557.54712"/>
      <point x="44" y="540.4416" type="curve"/>
      <point x="56" y="512.90629" type="line"/>
      <point x="86" y="529.21881"/>
      <point x="123" y="537.01262"/>
      <point x="162" y="537.01262" type="curve" smooth="yes"/>
      <point x="213" y="537.01262"/>
      <point x="240" y="518.20907"/>
      <point x="240" y="479.67276" type="curve" smooth="yes"/>
      <point x="240" y="434.40367" type="line" smooth="yes"/>
      <point x="240" y="384.31285"/>
      <point x="199" y="354.67968"/>
      <point x="142" y="354.67968" type="curve" smooth="yes"/>
      <point x="90" y="354.67968"/>
      <point x="68" y="373.48323"/>
      <point x="68" y="397.6335" type="curve" smooth="yes"/>
      <point x="68" y="425.74876"/>
      <point x="107" y="439.3418"/>
      <point x="180" y="439.3418" type="curve" smooth="yes"/>
      <point x="246" y="439.3418" type="line"/>
      <point x="246" y="464.44979" type="line"/>
      <point x="179" y="464.44979" type="line" smooth="yes"/>
      <point x="94" y="464.44979"/>
      <point x="32" y="444.62479"/>
      <point x="32" y="397.42921" type="curve" smooth="yes"/>
      <point x="32" y="356.50953"/>
      <point x="77" y="326.75995"/>
    </contour>
  </outline>
</glyph>
<glyph name="logicalnot" format="1">
  <advance width="600"/>
  <unicode hex="00AC"/>
  <outline>
    <contour>
      <point x="544" y="327.40135" type="line"/>
      <point x="56" y="327.40135" type="line"/>
      <point x="56" y="289.869" type="line"/>
      <point x="504" y="289.869" type="line"/>
      <point x="504" y="122.18573" type="line"/>
      <point x="544" y="122.18573" type="line"/>
    </contour>
  </outline>
</glyph>
<glyph name="registered" format="1">
  <advance width="815"/>
  <unicode hex="00AE"/>
  <outline>
    <contour>
      <point x="408" y="-6.61639" type="curve" smooth="yes"/>
      <point x="612" y="-6.61639"/>
      <point x="768" y="118.02081"/>
      <point x="768" y="279.92901" type="curve" smooth="yes"/>
      <point x="768" y="441.83721"/>
      <point x="612" y="565.68141"/>
      <point x="408" y="565.68141" type="curve" smooth="yes"/>
      <point x="203" y="565.68141"/>
      <point x="47" y="441.83721"/>
      <point x="47" y="279.92901" type="curve" smooth="yes"/>
      <point x="47" y="118.02081"/>
      <point x="204" y="-6.61639"/>
    </contour>
    <contour>
      <point x="408" y="24.24689" type="curve" smooth="yes"/>
      <point x="225" y="24.24689"/>
      <point x="84" y="135.10655"/>
      <point x="84" y="279.92901" type="curve" smooth="yes"/>
      <point x="84" y="424.75147"/>
      <point x="225" y="534.81813"/>
      <point x="408" y="534.81813" type="curve" smooth="yes"/>
      <point x="590" y="534.81813"/>
      <point x="731" y="424.75147"/>
      <point x="731" y="279.92901" type="curve" smooth="yes"/>
      <point x="731" y="135.10655"/>
      <point x="590" y="24.24689"/>
    </contour>
    <contour>
      <point x="273" y="112.606" type="line"/>
      <point x="314" y="112.606" type="line"/>
      <point x="314" y="260.96073" type="line"/>
      <point x="303" y="253.55134" type="line"/>
      <point x="391" y="253.55134" type="line" smooth="yes"/>
      <point x="432" y="253.55134"/>
      <point x="461" y="245.89373"/>
      <point x="477" y="217.64227" type="curve" smooth="yes"/>
      <point x="533" y="112.606" type="line"/>
      <point x="576" y="112.606" type="line"/>
      <point x="519" y="219.56438" type="line" smooth="yes"/>
      <point x="503" y="253.07905"/>
      <point x="475" y="264.52153"/>
      <point x="437" y="264.52153" type="curve"/>
      <point x="434" y="257.18024" type="line"/>
      <point x="521" y="257.18024"/>
      <point x="570" y="290.48624"/>
      <point x="570" y="350.89043" type="curve" smooth="yes"/>
      <point x="570" y="411.54286"/>
      <point x="522" y="446.66331"/>
      <point x="435" y="446.66331" type="curve" smooth="yes"/>
      <point x="273" y="446.66331" type="line"/>
    </contour>
    <contour>
      <point x="314" y="287.6591" type="line"/>
      <point x="314" y="412.62365" type="line"/>
      <point x="430" y="412.62365" type="line" smooth="yes"/>
      <point x="498" y="412.62365"/>
      <point x="529" y="392.43839"/>
      <point x="529" y="350.14137" type="curve" smooth="yes"/>
      <point x="529" y="307.11946"/>
      <point x="497" y="287.6591"/>
      <point x="430" y="287.6591" type="curve" smooth="yes"/>
    </contour>
  </outline>
</glyph>
<glyph name="degree" format="1">
  <advance width="364"/>
  <unicode hex="00B0"/>
  <outline>
    <contour>
      <point x="182" y="337.06458" type="curve" smooth="yes"/>
      <point x="261" y="337.06458"/>
      <point x="322" y="386.11854"/>
      <point x="322" y="451.37299" type="curve" smooth="yes"/>
      <point x="322" y="516.55934"/>
      <point x="261" y="565.61331"/>
      <point x="182" y="565.61331" type="curve" smooth="yes"/>
      <point x="102" y="565.61331"/>
      <point x="41" y="515.83444"/>
      <point x="41" y="451.37299" type="curve" smooth="yes"/>
      <point x="41" y="386.84345"/>
      <point x="102" y="337.06458"/>
    </contour>
    <contour>
      <point x="182" y="373.00656" type="curve" smooth="yes"/>
      <point x="124" y="373.00656"/>
      <point x="84" y="405.4273"/>
      <point x="84" y="451.37299" type="curve" smooth="yes"/>
      <point x="84" y="497.25058"/>
      <point x="124" y="529.67133"/>
      <point x="182" y="529.67133" type="curve" smooth="yes"/>
      <point x="240" y="529.67133"/>
      <point x="280" y="497.25058"/>
      <point x="280" y="451.37299" type="curve" smooth="yes"/>
      <point x="280" y="405.4273"/>
      <point x="240" y="373.00656"/>
    </contour>
  </outline>
</glyph>
<glyph name="plusminus" format="1">
  <advance width="600"/>
  <unicode hex="00B1"/>
  <outline>
    <contour>
      <point x="320" y="276.24515" type="line"/>
      <point x="320" y="419.0445" type="line"/>
      <point x="280" y="419.0445" type="line"/>
      <point x="280" y="276.24515" type="line"/>
      <point x="56" y="276.24515" type="line"/>
      <point x="56" y="238.5766" type="line"/>
      <point x="280" y="238.5766" type="line"/>
      <point x="280" y="95.77725" type="line"/>
      <point x="320" y="95.77725" type="line"/>
      <point x="320" y="238.5766" type="line"/>
      <point x="544" y="238.5766" type="line"/>
      <point x="544" y="276.24515" type="line"/>
    </contour>
    <contour>
      <point x="56" y="0" type="line"/>
      <point x="544" y="0" type="line"/>
      <point x="544" y="37.53236" type="line"/>
      <point x="56" y="37.53236" type="line"/>
    </contour>
  </outline>
</glyph>
<glyph name="paragraph" format="1">
  <advance width="556"/>
  <unicode hex="00B6"/>
  <outline>
    <contour>
      <point x="460" y="559.06502" type="line"/>
      <point x="240" y="559.06502" type="line" smooth="yes"/>
      <point x="126" y="559.06502"/>
      <point x="53" y="495.53277"/>
      <point x="53" y="408.819" type="curve" smooth="yes"/>
      <point x="53" y="322.03714"/>
      <point x="126" y="258.43679"/>
      <point x="239" y="258.43679" type="curve"/>
      <point x="239" y="-142.74001" type="line"/>
      <point x="281" y="-142.74001" type="line"/>
      <point x="281" y="521.98518" type="line"/>
      <point x="418" y="521.98518" type="line"/>
      <point x="418" y="-142.74001" type="line"/>
      <point x="460" y="-142.74001" type="line"/>
    </contour>
  </outline>
</glyph>
<glyph name="periodcentered" format="1">
  <advance width="211"/>
  <unicode hex="00B7"/>
  <outline>
    <contour>
      <point x="71" y="242.87105" type="line"/>
      <point x="71" y="178.03183" type="line"/>
      <point x="140" y="178.03183" type="line"/>
      <point x="140" y="242.87105" type="line"/>
    </contour>
  </outline>
</glyph>
<glyph name="ordmasculine" format="1">
  <advance width="326"/>
  <unicode hex="00BA"/>
  <outline>
    <contour>
      <point x="163" y="326.96424" type="curve" smooth="yes"/>
      <point x="242" y="326.96424"/>
      <point x="300" y="373.88744"/>
      <point x="300" y="446.39092" type="curve" smooth="yes"/>
      <point x="300" y="518.89441"/>
      <point x="242" y="565.68141"/>
      <point x="163" y="565.68141" type="curve" smooth="yes"/>
      <point x="84" y="565.68141"/>
      <point x="26" y="518.89441"/>
      <point x="26" y="446.39092" type="curve" smooth="yes"/>
      <point x="26" y="373.88744"/>
      <point x="84" y="326.96424"/>
    </contour>
    <contour>
      <point x="163" y="355.90542" type="curve" smooth="yes"/>
      <point x="101" y="355.90542"/>
      <point x="62" y="387.6452"/>
      <point x="62" y="446.39092" type="curve" smooth="yes"/>
      <point x="62" y="505.13664"/>
      <point x="101" y="536.80833"/>
      <point x="163" y="536.80833" type="curve" smooth="yes"/>
      <point x="225" y="536.80833"/>
      <point x="264" y="505.00045"/>
      <point x="264" y="446.39092" type="curve" smooth="yes"/>
      <point x="264" y="387.78139"/>
      <point x="225" y="355.90542"/>
    </contour>
  </outline>
</glyph>
<glyph name="questiondown" format="1">
  <advance width="429"/>
  <unicode hex="00BF"/>
  <outline>
    <contour>
      <point x="248" y="249.694" type="line"/>
      <point x="218" y="249.694" type="line"/>
      <point x="216" y="232.94875" type="line" smooth="yes"/>
      <point x="210" y="190.19922"/>
      <point x="186" y="155.15124"/>
      <point x="122" y="103.40633" type="curve" smooth="yes"/>
      <point x="52" y="47.03961"/>
      <point x="32" y="11.01412"/>
      <point x="32" y="-33.39388" type="curve" smooth="yes"/>
      <point x="32" y="-102.61333"/>
      <point x="102" y="-148.63149"/>
      <point x="208" y="-148.63149" type="curve" smooth="yes"/>
      <point x="296" y="-148.63149"/>
      <point x="379" y="-121.48936"/>
      <point x="427" y="-81.52303" type="curve"/>
      <point x="407" y="-44.87155" type="line"/>
      <point x="351" y="-85.60672"/>
      <point x="287" y="-106.99356"/>
      <point x="207" y="-106.99356" type="curve" smooth="yes"/>
      <point x="126" y="-106.99356"/>
      <point x="76" y="-76.52345"/>
      <point x="76" y="-29.4245" type="curve" smooth="yes"/>
      <point x="76" y="5.1468"/>
      <point x="93" y="34.9601"/>
      <point x="154" y="81.99095" type="curve" smooth="yes"/>
      <point x="226" y="138.674"/>
      <point x="248" y="181.92436"/>
      <point x="248" y="232.96853" type="curve" smooth="yes"/>
    </contour>
    <contour>
      <point x="267" y="384.49298" type="line"/>
      <point x="199" y="384.49298" type="line"/>
      <point x="199" y="319.65376" type="line"/>
      <point x="267" y="319.65376" type="line"/>
    </contour>
  </outline>
</glyph>
<glyph name="AE" format="1">
  <advance width="971"/>
  <unicode hex="00C6"/>
  <outline>
    <contour>
      <point x="2" y="0" type="line"/>
      <point x="49" y="0" type="line"/>
      <point x="172" y="162.72098" type="line"/>
      <point x="153" y="150.27683" type="line"/>
      <point x="548" y="150.27683" type="line"/>
      <point x="528" y="163.26575" type="line"/>
      <point x="571" y="0" type="line"/>
      <point x="921" y="0" type="line"/>
      <point x="921" y="39.43906" type="line"/>
      <point x="586" y="39.43906" type="line"/>
      <point x="607" y="21.92059" type="line"/>
      <point x="538" y="275.07876" type="line"/>
      <point x="525" y="263.81203" type="line"/>
      <point x="901" y="263.81203" type="line"/>
      <point x="901" y="303.25109" type="line"/>
      <point x="517" y="303.25109" type="line"/>
      <point x="534" y="291.25946" type="line"/>
      <point x="466" y="539.9518" type="line"/>
      <point x="459" y="519.62596" type="line"/>
      <point x="921" y="519.62596" type="line"/>
      <point x="921" y="559.06502" type="line"/>
      <point x="422" y="559.06502" type="line"/>
    </contour>
    <contour>
      <point x="173" y="189.71589" type="line"/>
      <point x="182" y="178.92584" type="line"/>
      <point x="450" y="525.64926" type="line"/>
      <point x="429" y="525.64926" type="line"/>
      <point x="524" y="179.10597" type="line"/>
      <point x="530" y="189.71589" type="line"/>
    </contour>
    <contour>
      <point x="487" y="0" type="move" name="bottom"/>
    </contour>
    <contour>
      <point x="486" y="559.06502" type="move" name="top"/>
    </contour>
  </outline>
</glyph>
<glyph name="multiply" format="1">
  <advance width="600"/>
  <unicode hex="00D7"/>
  <outline>
    <contour>
      <point x="534" y="384.07565" type="line"/>
      <point x="506" y="410.97831" type="line"/>
      <point x="300" y="252.25086" type="line"/>
      <point x="94" y="410.97831" type="line"/>
      <point x="66" y="384.07565" type="line"/>
      <point x="272" y="225.4163" type="line"/>
      <point x="66" y="65.96395" type="line"/>
      <point x="94" y="39.85429" type="line"/>
      <point x="300" y="198.51364" type="line"/>
      <point x="506" y="39.85429" type="line"/>
      <point x="534" y="65.96395" type="line"/>
      <point x="328" y="225.4163" type="line"/>
    </contour>
  </outline>
</glyph>
<glyph name="Thorn" format="1">
  <advance width="616"/>
  <unicode hex="00DE"/>
  <outline>
    <contour>
      <point x="351" y="453.66849" type="curve" smooth="yes"/>
      <point x="138" y="453.66849" type="line"/>
      <point x="138" y="559.06502" type="line"/>
      <point x="96" y="559.06502" type="line"/>
      <point x="96" y="0" type="line"/>
      <point x="138" y="0" type="line"/>
      <point x="138" y="125.63011" type="line"/>
      <point x="351" y="125.63011" type="line" smooth="yes"/>
      <point x="499" y="125.63011"/>
      <point x="580" y="184.67675"/>
      <point x="580" y="289.6493" type="curve" smooth="yes"/>
      <point x="580" y="394.62185"/>
      <point x="499" y="453.66849"/>
    </contour>
    <contour>
      <point x="350" y="165.06917" type="curve" smooth="yes"/>
      <point x="138" y="165.06917" type="line"/>
      <point x="138" y="414.22943" type="line"/>
      <point x="350" y="414.22943" type="line" smooth="yes"/>
      <point x="474" y="414.22943"/>
      <point x="536" y="371.34371"/>
      <point x="536" y="289.6493" type="curve" smooth="yes"/>
      <point x="536" y="207.95489"/>
      <point x="474" y="165.06917"/>
    </contour>
    <contour>
      <point x="316" y="0" type="move" name="bottom"/>
    </contour>
    <contour>
      <point x="316" y="559.06502" type="move" name="top"/>
    </contour>
  </outline>
</glyph>
<glyph name="germandbls" format="1">
  <advance width="581"/>
  <unicode hex="00DF"/>
  <outline>
    <contour>
      <point x="85" y="0" type="line"/>
      <point x="127" y="0" type="line"/>
      <point x="127" y="393.43567" type="line" smooth="yes"/>
      <point x="127" y="479.00721"/>
      <point x="183" y="527.67238"/>
      <point x="285" y="527.67238" type="curve" smooth="yes"/>
      <point x="349" y="527.67238"/>
      <point x="387" y="504.11082"/>
      <point x="387" y="465.122" type="curve" smooth="yes"/>
      <point x="387" y="437.00674"/>
      <point x="370" y="414.89499"/>
      <point x="322" y="384.85324" type="curve" smooth="yes"/>
      <point x="260" y="343.79737"/>
      <point x="239" y="316.83537"/>
      <point x="239" y="284.18618" type="curve" smooth="yes"/>
      <point x="239" y="234.6116"/>
      <point x="276" y="205.24644"/>
      <point x="385" y="177.96811" type="curve" smooth="yes"/>
      <point x="469" y="157.30617"/>
      <point x="501" y="137.18901"/>
      <point x="501" y="102.09709" type="curve" smooth="yes"/>
      <point x="501" y="58.96314"/>
      <point x="452" y="31.73313"/>
      <point x="374" y="31.73313" type="curve" smooth="yes"/>
      <point x="324" y="31.73313"/>
      <point x="268" y="45.41842"/>
      <point x="220" y="77.83917" type="curve"/>
      <point x="200" y="43.93133" type="line"/>
      <point x="241" y="11.55452"/>
      <point x="310" y="-6.61639"/>
      <point x="374" y="-6.61639" type="curve" smooth="yes"/>
      <point x="475" y="-6.61639"/>
      <point x="545" y="37.36326"/>
      <point x="545" y="101.66873" type="curve" smooth="yes"/>
      <point x="545" y="157.45112"/>
      <point x="504" y="189.33147"/>
      <point x="398" y="215.7487" type="curve" smooth="yes"/>
      <point x="313" y="236.61493"/>
      <point x="283" y="256.86829"/>
      <point x="283" y="287.61078" type="curve" smooth="yes"/>
      <point x="283" y="311.03614"/>
      <point x="297" y="327.86928"/>
      <point x="347" y="360.24608" type="curve" smooth="yes"/>
      <point x="407" y="399.35131"/>
      <point x="430" y="427.31061"/>
      <point x="430" y="468.59055" type="curve" smooth="yes"/>
      <point x="430" y="527.38896"/>
      <point x="374" y="565.68141"/>
      <point x="283" y="565.68141" type="curve" smooth="yes"/>
      <point x="159" y="565.68141"/>
      <point x="85" y="500.60709"/>
      <point x="85" y="390.1912" type="curve" smooth="yes"/>
    </contour>
  </outline>
</glyph>
<glyph name="ae" format="1">
  <advance width="857"/>
  <unicode hex="00E6"/>
  <outline>
    <contour>
      <point x="428" y="185.35334" type="line"/>
      <point x="809" y="185.35334" type="line"/>
      <point x="809" y="205.22666" type="line" smooth="yes"/>
      <point x="809" y="321.09692"/>
      <point x="736" y="391.10937"/>
      <point x="616" y="391.10937" type="curve" smooth="yes"/>
      <point x="520" y="391.10937"/>
      <point x="449" y="354.22716"/>
      <point x="416" y="286.51021" type="curve"/>
      <point x="436" y="286.51021" type="line"/>
      <point x="423" y="355.08826"/>
      <point x="372" y="391.10937"/>
      <point x="271" y="391.10937" type="curve" smooth="yes"/>
      <point x="204" y="391.10937"/>
      <point x="135" y="373.32288"/>
      <point x="84" y="344.84298" type="curve"/>
      <point x="104" y="310.00595" type="line"/>
      <point x="161" y="340.45627"/>
      <point x="211" y="352.35127"/>
      <point x="273" y="352.35127" type="curve" smooth="yes"/>
      <point x="355" y="352.35127"/>
      <point x="394" y="320.95197"/>
      <point x="394" y="246.87124" type="curve" smooth="yes"/>
      <point x="394" y="163.85446" type="line" smooth="yes"/>
      <point x="394" y="86.46554"/>
      <point x="331" y="30.25916"/>
      <point x="236" y="30.25916" type="curve" smooth="yes"/>
      <point x="158" y="30.25916"/>
      <point x="110" y="64.03746"/>
      <point x="110" y="111.79322" type="curve" smooth="yes"/>
      <point x="110" y="170.17431"/>
      <point x="163" y="185.48953"/>
      <point x="361" y="185.48953" type="curve" smooth="yes"/>
      <point x="404" y="185.48953" type="line"/>
      <point x="404" y="219.12061" type="line"/>
      <point x="359" y="219.12061" type="line" smooth="yes"/>
      <point x="136" y="219.12061"/>
      <point x="64" y="193.92474"/>
      <point x="64" y="108.34884" type="curve" smooth="yes"/>
      <point x="64" y="43.81929"/>
      <point x="137" y="-6.61639"/>
      <point x="233" y="-6.61639" type="curve" smooth="yes"/>
      <point x="335" y="-6.61639"/>
      <point x="406" y="43.09001"/>
      <point x="422" y="122.65802" type="curve"/>
      <point x="404" y="122.65802" type="line"/>
      <point x="430" y="37.94759"/>
      <point x="508" y="-6.61639"/>
      <point x="624" y="-6.61639" type="curve" smooth="yes"/>
      <point x="689" y="-6.61639"/>
      <point x="760" y="13.72923"/>
      <point x="801" y="46.55856" type="curve"/>
      <point x="781" y="80.46639" type="line"/>
      <point x="729" y="46.80013"/>
      <point x="679" y="32.00551"/>
      <point x="620" y="32.00551" type="curve" smooth="yes"/>
      <point x="502" y="32.00551"/>
      <point x="437" y="90.45469"/>
      <point x="437" y="193.58426" type="curve" smooth="yes"/>
      <point x="437" y="199.33955" type="line" smooth="yes"/>
      <point x="437" y="293.54183"/>
      <point x="505" y="354.30191"/>
      <point x="612" y="354.30191" type="curve" smooth="yes"/>
      <point x="716" y="354.30191"/>
      <point x="770" y="298.75235"/>
      <point x="770" y="210.12523" type="curve"/>
      <point x="786" y="219.05252" type="line"/>
      <point x="428" y="219.05252" type="line"/>
    </contour>
    <contour>
      <point x="416" y="0" type="move" name="bottom"/>
    </contour>
    <contour>
      <point x="416" y="383.81201" type="move" name="top"/>
    </contour>
  </outline>
</glyph>
<glyph name="eth" format="1">
  <advance width="541"/>
  <unicode hex="00F0"/>
  <outline>
    <contour>
      <point x="269" y="-6.61639" type="curve" smooth="yes"/>
      <point x="413" y="-6.61639"/>
      <point x="488" y="72.45955"/>
      <point x="488" y="223.58207" type="curve" smooth="yes"/>
      <point x="488" y="395.2699"/>
      <point x="380" y="513.0073"/>
      <point x="165" y="563.64289" type="curve"/>
      <point x="153" y="530.93663" type="line"/>
      <point x="352" y="486.6692"/>
      <point x="448" y="379.95905"/>
      <point x="446" y="230.54331" type="curve"/>
      <point x="465" y="230.54331" type="line"/>
      <point x="440" y="318.04133"/>
      <point x="374" y="359.88582"/>
      <point x="272" y="359.88582" type="curve" smooth="yes"/>
      <point x="140" y="359.88582"/>
      <point x="53" y="287.31424"/>
      <point x="53" y="176.83901" type="curve" smooth="yes"/>
      <point x="53" y="65.8871"/>
      <point x="138" y="-6.61639"/>
    </contour>
    <contour>
      <point x="268" y="32.14171" type="curve" smooth="yes"/>
      <point x="160" y="32.14171"/>
      <point x="96" y="84.99595"/>
      <point x="96" y="176.83901" type="curve" smooth="yes"/>
      <point x="96" y="266.43926"/>
      <point x="162" y="321.46821"/>
      <point x="269" y="321.46821" type="curve" smooth="yes"/>
      <point x="376" y="321.46821"/>
      <point x="442" y="266.43926"/>
      <point x="442" y="176.83901" type="curve" smooth="yes"/>
      <point x="442" y="87.30685"/>
      <point x="375" y="32.14171"/>
    </contour>
    <contour>
      <point x="134" y="428.04654" type="line"/>
      <point x="436" y="533.59239" type="line"/>
      <point x="422" y="563.64289" type="line"/>
      <point x="120" y="458.09704" type="line"/>
    </contour>
  </outline>
</glyph>
<glyph name="divide" format="1">
  <advance width="600"/>
  <unicode hex="00F7"/>
  <outline>
    <contour>
      <point x="259" y="355.64406" type="line"/>
      <point x="329" y="355.64406" type="line"/>
      <point x="329" y="415.85272" type="line"/>
      <point x="259" y="415.85272" type="line"/>
    </contour>
    <contour>
      <point x="259" y="38.6044" type="line"/>
      <point x="329" y="38.6044" type="line"/>
      <point x="329" y="98.81305" type="line"/>
      <point x="259" y="98.81305" type="line"/>
    </contour>
    <contour>
      <point x="544" y="245.99474" type="line"/>
      <point x="56" y="245.99474" type="line"/>
      <point x="56" y="208.46238" type="line"/>
      <point x="544" y="208.46238" type="line"/>
    </contour>
  </outline>
</glyph>
<glyph name="oslash" format="1">
  <advance width="538"/>
  <unicode hex="00F8"/>
  <outline>
    <component base="_part.oslash"/>
    <component base="slashlongcomb" xOffset="1" yOffset="-2"/>
    <contour>
      <point x="268" y="383.81201" type="move" name="top"/>
    </contour>
  </outline>
</glyph>
<glyph name="dcroat" format="1">
  <advance width="568"/>
  <unicode hex="0111"/>
  <outline>
    <contour>
      <point x="268" y="-6.61639" type="curve" smooth="yes"/>
      <point x="361" y="-6.61639"/>
      <point x="430" y="33.66627"/>
      <point x="452" y="96.85366" type="curve"/>
      <point x="441" y="96.85366" type="line"/>
      <point x="441" y="0" type="line"/>
      <point x="483" y="0" type="line"/>
      <point x="483" y="443.14645" type="line"/>
      <point x="578" y="443.14645" type="line"/>
      <point x="578" y="478.77648" type="line"/>
      <point x="483" y="478.77648" type="line"/>
      <point x="483" y="559.06502" type="line"/>
      <point x="441" y="559.06502" type="line"/>
      <point x="441" y="478.77648" type="line"/>
      <point x="244" y="478.77648" type="line"/>
      <point x="244" y="443.14645" type="line"/>
      <point x="441" y="443.14645" type="line"/>
      <point x="441" y="288.18409" type="line"/>
      <point x="452" y="288.18409" type="line"/>
      <point x="430" y="350.96291"/>
      <point x="361" y="391.10937"/>
      <point x="268" y="391.10937" type="curve" smooth="yes"/>
      <point x="136" y="391.10937"/>
      <point x="53" y="314.12027"/>
      <point x="53" y="192.24649" type="curve" smooth="yes"/>
      <point x="53" y="70.37271"/>
      <point x="137" y="-6.61639"/>
    </contour>
    <contour>
      <point x="269" y="32.00551" type="curve" smooth="yes"/>
      <point x="163" y="32.00551"/>
      <point x="96" y="90.45469"/>
      <point x="96" y="192.24649" type="curve" smooth="yes"/>
      <point x="96" y="294.03829"/>
      <point x="163" y="352.48746"/>
      <point x="269" y="352.48746" type="curve" smooth="yes"/>
      <point x="375" y="352.48746"/>
      <point x="442" y="294.03829"/>
      <point x="442" y="192.24649" type="curve" smooth="yes"/>
      <point x="442" y="90.45469"/>
      <point x="375" y="32.00551"/>
    </contour>
  </outline>
</glyph>
<glyph name="Eogonek" format="1">
  <advance width="570"/>
  <unicode hex="0118"/>
  <outline>
    <component base="E"/>
    <component base="ogonekcomb" xOffset="340"/>
    <contour>
      <point x="320" y="559.06502" type="move" name="top"/>
    </contour>
  </outline>
</glyph>
<glyph name="eogonek" format="1">
  <advance width="523"/>
  <unicode hex="0119"/>
  <outline>
    <component base="e"/>
    <component base="ogonekcomb" xOffset="192"/>
    <contour>
      <point x="276" y="383.81201" type="move" name="top"/>
    </contour>
  </outline>
</glyph>
<glyph name="Hbar" format="1">
  <advance width="781"/>
  <unicode hex="0126"/>
  <outline>
    <contour>
      <point x="766" y="453.83322" type="line"/>
      <point x="670" y="453.83322" type="line"/>
      <point x="670" y="559.06502" type="line"/>
      <point x="628" y="559.06502" type="line"/>
      <point x="628" y="453.83322" type="line"/>
      <point x="153" y="453.83322" type="line"/>
      <point x="153" y="559.06502" type="line"/>
      <point x="111" y="559.06502" type="line"/>
      <point x="111" y="453.83322" type="line"/>
      <point x="15" y="453.83322" type="line"/>
      <point x="15" y="416.07241" type="line"/>
      <point x="111" y="416.07241" type="line"/>
      <point x="111" y="0" type="line"/>
      <point x="153" y="0" type="line"/>
      <point x="153" y="263.33535" type="line"/>
      <point x="628" y="263.33535" type="line"/>
      <point x="628" y="0" type="line"/>
      <point x="670" y="0" type="line"/>
      <point x="670" y="416.07241" type="line"/>
      <point x="766" y="416.07241" type="line"/>
    </contour>
    <contour>
      <point x="628" y="303.59157" type="line"/>
      <point x="153" y="303.59157" type="line"/>
      <point x="153" y="416.07241" type="line"/>
      <point x="628" y="416.07241" type="line"/>
    </contour>
  </outline>
</glyph>
<glyph name="hbar" format="1">
  <advance width="553"/>
  <unicode hex="0127"/>
  <outline>
    <contour>
      <point x="297" y="391.10937" type="curve" smooth="yes"/>
      <point x="212" y="391.10937"/>
      <point x="141" y="358.34814"/>
      <point x="115" y="293.57474" type="curve"/>
      <point x="127" y="293.57474" type="line"/>
      <point x="127" y="443.14645" type="line"/>
      <point x="324" y="443.14645" type="line"/>
      <point x="324" y="478.77648" type="line"/>
      <point x="127" y="478.77648" type="line"/>
      <point x="127" y="559.06502" type="line"/>
      <point x="85" y="559.06502" type="line"/>
      <point x="85" y="478.77648" type="line"/>
      <point x="-10" y="478.77648" type="line"/>
      <point x="-10" y="443.14645" type="line"/>
      <point x="85" y="443.14645" type="line"/>
      <point x="85" y="0" type="line"/>
      <point x="127" y="0" type="line"/>
      <point x="127" y="220.04543" type="line" smooth="yes"/>
      <point x="127" y="300.01765"/>
      <point x="194" y="352.07889"/>
      <point x="297" y="352.07889" type="curve" smooth="yes"/>
      <point x="389" y="352.07889"/>
      <point x="428" y="316.78268"/>
      <point x="428" y="239.3696" type="curve" smooth="yes"/>
      <point x="428" y="0" type="line"/>
      <point x="470" y="0" type="line"/>
      <point x="470" y="242.81398" type="line" smooth="yes"/>
      <point x="470" y="341.39859"/>
      <point x="413" y="391.10937"/>
    </contour>
  </outline>
</glyph>
<glyph name="kgreenlandic" format="1">
  <advance width="468"/>
  <unicode hex="0138"/>
  <outline>
    <contour>
      <point x="467" y="0" type="line"/>
      <point x="154" y="213.63771" type="line"/>
      <point x="154" y="182.91062" type="line"/>
      <point x="440" y="384.49298" type="line"/>
      <point x="380" y="384.49298" type="line"/>
      <point x="129" y="209.04006" type="line"/>
      <point x="127" y="209.04006" type="line"/>
      <point x="127" y="390.29221" type="line"/>
      <point x="85" y="390.29221" type="line"/>
      <point x="85" y="0" type="line"/>
      <point x="127" y="0" type="line"/>
      <point x="127" y="185.28525" type="line"/>
      <point x="129" y="185.28525" type="line"/>
      <point x="408" y="0" type="line"/>
    </contour>
    <contour>
      <point x="234" y="0" type="move" name="bottom"/>
    </contour>
    <contour>
      <point x="234" y="383.81201" type="move" name="top"/>
    </contour>
  </outline>
</glyph>
<glyph name="Eng" format="1">
  <advance width="732"/>
  <unicode hex="014A"/>
  <outline>
    <contour>
      <point x="636" y="-12.56721" type="curve" smooth="yes"/>
      <point x="636" y="559.06502" type="line"/>
      <point x="597" y="559.06502" type="line"/>
      <point x="597" y="51.89633" type="line"/>
      <point x="619" y="51.89633" type="line"/>
      <point x="131" y="559.06502" type="line"/>
      <point x="96" y="559.06502" type="line"/>
      <point x="96" y="0" type="line"/>
      <point x="135" y="0" type="line"/>
      <point x="135" y="507.16869" type="line"/>
      <point x="114" y="507.16869" type="line"/>
      <point x="602" y="0" type="line"/>
      <point x="597" y="23.29792" type="line"/>
      <point x="597" y="-15.40311" type="line" smooth="yes"/>
      <point x="597" y="-75.57448"/>
      <point x="559" y="-109.14849"/>
      <point x="489" y="-113.04539" type="curve" smooth="yes"/>
      <point x="448" y="-115.62868" type="line"/>
      <point x="451" y="-153.04901" type="line"/>
      <point x="494" y="-150.67001" type="line" smooth="yes"/>
      <point x="584" y="-145.43533"/>
      <point x="636" y="-98.05962"/>
    </contour>
    <contour>
      <point x="366" y="0" type="move" name="bottom"/>
    </contour>
    <contour>
      <point x="366" y="559.06502" type="move" name="top"/>
    </contour>
  </outline>
</glyph>
<glyph name="eng" format="1">
  <advance width="553"/>
  <unicode hex="014B"/>
  <outline>
    <contour>
      <point x="470" y="-12.56721" type="curve" smooth="yes"/>
      <point x="470" y="242.81398" type="line" smooth="yes"/>
      <point x="470" y="342.8484"/>
      <point x="413" y="391.10937"/>
      <point x="297" y="391.10937" type="curve" smooth="yes"/>
      <point x="212" y="391.10937"/>
      <point x="141" y="358.34814"/>
      <point x="115" y="293.57474" type="curve"/>
      <point x="126" y="293.57474" type="line"/>
      <point x="126" y="384.49298" type="line"/>
      <point x="85" y="384.49298" type="line"/>
      <point x="85" y="0" type="line"/>
      <point x="127" y="0" type="line"/>
      <point x="127" y="220.04543" type="line" smooth="yes"/>
      <point x="127" y="300.01765"/>
      <point x="194" y="352.07889"/>
      <point x="297" y="352.07889" type="curve" smooth="yes"/>
      <point x="389" y="352.07889"/>
      <point x="428" y="316.78268"/>
      <point x="428" y="239.3696" type="curve" smooth="yes"/>
      <point x="428" y="-15.40311" type="line" smooth="yes"/>
      <point x="428" y="-75.57448"/>
      <point x="391" y="-109.14849"/>
      <point x="323" y="-113.04539" type="curve" smooth="yes"/>
      <point x="282" y="-115.62868" type="line"/>
      <point x="285" y="-153.04901" type="line"/>
      <point x="328" y="-150.67001" type="line" smooth="yes"/>
      <point x="418" y="-145.43533"/>
      <point x="470" y="-98.05962"/>
    </contour>
  </outline>
</glyph>
<glyph name="OE" format="1">
  <advance width="1038"/>
  <unicode hex="0152"/>
  <outline>
    <contour>
      <point x="988" y="519.62596" type="line"/>
      <point x="988" y="559.06502" type="line"/>
      <point x="412" y="559.06502" type="line" smooth="yes"/>
      <point x="191" y="559.06502"/>
      <point x="67" y="461.77425"/>
      <point x="67" y="279.92901" type="curve" smooth="yes"/>
      <point x="67" y="98.01568"/>
      <point x="191" y="0"/>
      <point x="412" y="0" type="curve" smooth="yes"/>
      <point x="988" y="0" type="line"/>
      <point x="988" y="39.43906" type="line"/>
      <point x="606" y="39.43906" type="line"/>
      <point x="606" y="263.81203" type="line"/>
      <point x="968" y="263.81203" type="line"/>
      <point x="968" y="303.25109" type="line"/>
      <point x="606" y="303.25109" type="line"/>
      <point x="606" y="519.62596" type="line"/>
    </contour>
    <contour>
      <point x="564" y="40.12002" type="line"/>
      <point x="416" y="40.12002" type="line" smooth="yes"/>
      <point x="213" y="40.12002"/>
      <point x="112" y="120.8413"/>
      <point x="112" y="279.92901" type="curve" smooth="yes"/>
      <point x="112" y="439.01672"/>
      <point x="213" y="518.945"/>
      <point x="416" y="518.945" type="curve" smooth="yes"/>
      <point x="564" y="518.945" type="line"/>
    </contour>
    <contour>
      <point x="585" y="0" type="move" name="bottom"/>
    </contour>
    <contour>
      <point x="585" y="559.06502" type="move" name="top"/>
    </contour>
  </outline>
</glyph>
<glyph name="oe" format="1">
  <advance width="906"/>
  <unicode hex="0153"/>
  <outline>
    <contour>
      <point x="269" y="-6.61639" type="curve" smooth="yes"/>
      <point x="372" y="-6.61639"/>
      <point x="446" y="41.09543"/>
      <point x="471" y="120.88752" type="curve"/>
      <point x="453" y="120.88752" type="line"/>
      <point x="478" y="37.53901"/>
      <point x="557" y="-6.61639"/>
      <point x="673" y="-6.61639" type="curve" smooth="yes"/>
      <point x="741" y="-6.61639"/>
      <point x="810" y="13.72923"/>
      <point x="850" y="46.55856" type="curve"/>
      <point x="830" y="80.46639" type="line"/>
      <point x="778" y="46.80013"/>
      <point x="728" y="32.00551"/>
      <point x="671" y="32.00551" type="curve" smooth="yes"/>
      <point x="551" y="32.00551"/>
      <point x="486" y="90.45469"/>
      <point x="486" y="191.34145" type="curve" smooth="yes"/>
      <point x="486" y="196.30374" type="line" smooth="yes"/>
      <point x="486" y="286.8815"/>
      <point x="549" y="354.30191"/>
      <point x="661" y="354.30191" type="curve" smooth="yes"/>
      <point x="765" y="354.30191"/>
      <point x="819" y="298.75235"/>
      <point x="819" y="209.40032" type="curve"/>
      <point x="835" y="216.87781" type="line"/>
      <point x="466" y="216.87781" type="line"/>
      <point x="466" y="183.17863" type="line"/>
      <point x="858" y="183.17863" type="line"/>
      <point x="858" y="205.22666" type="line" smooth="yes"/>
      <point x="858" y="321.09692"/>
      <point x="785" y="391.10937"/>
      <point x="665" y="391.10937" type="curve" smooth="yes"/>
      <point x="560" y="391.10937"/>
      <point x="480" y="343.80613"/>
      <point x="454" y="262.24791" type="curve"/>
      <point x="473" y="262.24791" type="line"/>
      <point x="448" y="343.01313"/>
      <point x="373" y="391.10937"/>
      <point x="269" y="391.10937" type="curve" smooth="yes"/>
      <point x="137" y="391.10937"/>
      <point x="53" y="313.39536"/>
      <point x="53" y="192.24649" type="curve" smooth="yes"/>
      <point x="53" y="71.09762"/>
      <point x="137" y="-6.61639"/>
    </contour>
    <contour>
      <point x="269" y="32.00551" type="curve" smooth="yes"/>
      <point x="163" y="32.00551"/>
      <point x="96" y="90.45469"/>
      <point x="96" y="192.24649" type="curve" smooth="yes"/>
      <point x="96" y="294.03829"/>
      <point x="163" y="352.48746"/>
      <point x="269" y="352.48746" type="curve" smooth="yes"/>
      <point x="375" y="352.48746"/>
      <point x="442" y="294.03829"/>
      <point x="442" y="192.24649" type="curve" smooth="yes"/>
      <point x="442" y="90.45469"/>
      <point x="375" y="32.00551"/>
    </contour>
    <contour>
      <point x="464" y="0" type="move" name="bottom"/>
    </contour>
    <contour>
      <point x="464" y="383.81201" type="move" name="top"/>
    </contour>
  </outline>
</glyph>
<glyph name="florin" format="1">
  <advance width="600"/>
  <unicode hex="0192"/>
  <outline>
    <contour>
      <point x="49" y="-149.35639" type="line"/>
      <point x="88" y="-149.35639" type="line" smooth="yes"/>
      <point x="186" y="-149.35639"/>
      <point x="236" y="-104.76388"/>
      <point x="257" y="-25.50344" type="curve" smooth="yes"/>
      <point x="362" y="353.44082" type="line"/>
      <point x="346" y="348.04579" type="line"/>
      <point x="500" y="348.04579" type="line"/>
      <point x="500" y="384.49298" type="line"/>
      <point x="357" y="384.49298" type="line"/>
      <point x="366" y="374.29601" type="line"/>
      <point x="384" y="437.86346" type="line" smooth="yes"/>
      <point x="403" y="506.10102"/>
      <point x="443" y="526.44664"/>
      <point x="511" y="526.44664" type="curve" smooth="yes"/>
      <point x="549" y="526.44664" type="line"/>
      <point x="549" y="565.68141" type="line"/>
      <point x="511" y="565.68141" type="line" smooth="yes"/>
      <point x="412" y="565.68141"/>
      <point x="362" y="521.0208"/>
      <point x="342" y="441.03546" type="curve" smooth="yes"/>
      <point x="323" y="374.29601" type="line"/>
      <point x="333" y="384.49298" type="line"/>
      <point x="187" y="384.49298" type="line"/>
      <point x="187" y="348.04579" type="line"/>
      <point x="328" y="348.04579" type="line"/>
      <point x="318" y="352.0591" type="line"/>
      <point x="215" y="-22.33144" type="line" smooth="yes"/>
      <point x="196" y="-89.1873"/>
      <point x="155" y="-111.57143"/>
      <point x="88" y="-111.57143" type="curve" smooth="yes"/>
      <point x="49" y="-111.57143" type="line"/>
    </contour>
  </outline>
</glyph>
<glyph name="Ohorn" format="1">
  <advance width="751"/>
  <unicode hex="01A0"/>
  <outline>
    <component base="horncomb.O.case" xOffset="364"/>
    <component base="O"/>
    <contour>
      <point x="376" y="0" type="move" name="bottom"/>
    </contour>
    <contour>
      <point x="375" y="559.06502" type="move" name="top"/>
    </contour>
  </outline>
</glyph>
<glyph name="ohorn" format="1">
  <advance width="538"/>
  <unicode hex="01A1"/>
  <outline>
    <component base="horncomb" xOffset="166"/>
    <component base="o"/>
    <contour>
      <point x="268" y="0" type="move" name="bottom"/>
    </contour>
    <contour>
      <point x="268" y="383.81201" type="move" name="top"/>
    </contour>
  </outline>
</glyph>
<glyph name="uhorn" format="1">
  <advance width="545"/>
  <unicode hex="01B0"/>
  <outline>
    <component base="horncomb" xOffset="271"/>
    <component base="u"/>
    <contour>
      <point x="273" y="0" type="move" name="bottom"/>
    </contour>
    <contour>
      <point x="273" y="383.81201" type="move" name="top"/>
    </contour>
  </outline>
</glyph>
<glyph name="acutecomb" format="1">
  <advance width="300"/>
  <unicode hex="0301"/>
  <outline>
    <contour>
      <point x="168" y="435.96988" type="line"/>
      <point x="290" y="595.04657" type="line"/>
      <point x="236" y="595.04657" type="line"/>
      <point x="132" y="435.96988" type="line"/>
    </contour>
    <contour>
      <point x="150" y="383.81201" type="move" name="_top"/>
    </contour>
    <contour>
      <point x="150" y="543.20502" type="move" name="top"/>
    </contour>
  </outline>
</glyph>
<glyph name="hookabovecomb" format="1">
  <advance width="300"/>
  <unicode hex="0309"/>
  <outline>
    <contour>
      <point x="168" y="448.00108" type="line"/>
      <point x="168" y="494.03902"/>
      <point x="241" y="494.24331"/>
      <point x="241" y="546.92179" type="curve" smooth="yes"/>
      <point x="241" y="580.04766"/>
      <point x="208" y="599.35205"/>
      <point x="152" y="599.35205" type="curve" smooth="yes"/>
      <point x="122" y="599.35205"/>
      <point x="95" y="594.38976"/>
      <point x="74" y="583.01537" type="curve"/>
      <point x="83" y="554.64313" type="line"/>
      <point x="108" y="563.95484"/>
      <point x="128" y="567.19494"/>
      <point x="148" y="567.19494" type="curve" smooth="yes"/>
      <point x="184" y="567.19494"/>
      <point x="200" y="558.88051"/>
      <point x="200" y="543.361" type="curve" smooth="yes"/>
      <point x="200" y="510.35154"/>
      <point x="132" y="502.94215"/>
      <point x="132" y="452.03417" type="curve" smooth="yes"/>
      <point x="132" y="435.96988" type="line"/>
      <point x="168" y="435.96988" type="line"/>
    </contour>
    <contour>
      <point x="150" y="383.81201" type="move" name="_top"/>
    </contour>
    <contour>
      <point x="150" y="543.20502" type="move" name="top"/>
    </contour>
  </outline>
</glyph>
<glyph name="dotbelowcomb" format="1">
  <advance width="300"/>
  <unicode hex="0323"/>
  <outline>
    <contour>
      <point x="118" y="-83.57695" type="line"/>
      <point x="118" y="-140.75418" type="line"/>
      <point x="182" y="-140.75418" type="line"/>
      <point x="182" y="-83.57695" type="line"/>
    </contour>
    <contour>
      <point x="150" y="0" type="move" name="_bottom"/>
    </contour>
    <contour>
      <point x="150" y="-134.81001" type="move" name="bottom"/>
    </contour>
  </outline>
</glyph>
<glyph name="Delta" format="1">
  <advance width="716"/>
  <unicode hex="0394"/>
  <outline>
    <contour>
      <point x="48" y="0" type="line"/>
      <point x="668" y="0" type="line"/>
      <point x="668" y="28.8533" type="line"/>
      <point x="378" y="559.06502" type="line"/>
      <point x="338" y="559.06502" type="line"/>
      <point x="48" y="28.8533" type="line"/>
    </contour>
    <contour>
      <point x="83" y="13.90271" type="line"/>
      <point x="371" y="529.02555" type="line"/>
      <point x="345" y="529.02555" type="line"/>
      <point x="633" y="13.90271" type="line"/>
      <point x="633" y="39.43906" type="line"/>
      <point x="83" y="39.43906" type="line"/>
    </contour>
  </outline>
</glyph>
<glyph name="Sigma" format="1">
  <advance width="600"/>
  <unicode hex="03A3"/>
  <outline>
    <contour>
      <point x="545" y="-102.61998" type="line"/>
      <point x="100" y="-102.61998" type="line"/>
      <point x="100" y="-116.35359" type="line"/>
      <point x="377" y="192.62654" type="line"/>
      <point x="377" y="223.69848" type="line"/>
      <point x="100" y="532.6786" type="line"/>
      <point x="100" y="518.945" type="line"/>
      <point x="545" y="518.945" type="line"/>
      <point x="545" y="559.06502" type="line"/>
      <point x="55" y="559.06502" type="line"/>
      <point x="55" y="526.37854" type="line"/>
      <point x="346" y="198.54218" type="line"/>
      <point x="346" y="217.78284" type="line"/>
      <point x="55" y="-110.05353" type="line"/>
      <point x="55" y="-142.74001" type="line"/>
      <point x="545" y="-142.74001" type="line"/>
    </contour>
  </outline>
</glyph>
<glyph name="Omega" format="1">
  <advance width="760"/>
  <unicode hex="03A9"/>
  <outline>
    <contour>
      <point x="45" y="0" type="line"/>
      <point x="319" y="0" type="line"/>
      <point x="319" y="37.40054" type="line"/>
      <point x="173" y="114.4292"/>
      <point x="106" y="204.28206"/>
      <point x="106" y="311.35247" type="curve" smooth="yes"/>
      <point x="106" y="445.94943"/>
      <point x="209" y="523.703"/>
      <point x="380" y="523.703" type="curve" smooth="yes"/>
      <point x="551" y="523.703"/>
      <point x="654" y="446.67434"/>
      <point x="654" y="311.35247" type="curve" smooth="yes"/>
      <point x="654" y="204.28206"/>
      <point x="587" y="114.4292"/>
      <point x="441" y="37.40054" type="curve"/>
      <point x="441" y="0" type="line"/>
      <point x="715" y="0" type="line"/>
      <point x="715" y="39.12273" type="line"/>
      <point x="475" y="39.12273" type="line"/>
      <point x="475" y="24.18755" type="line"/>
      <point x="627" y="98.58898"/>
      <point x="699" y="195.80729"/>
      <point x="699" y="313.66775" type="curve" smooth="yes"/>
      <point x="699" y="471.4506"/>
      <point x="575" y="565.61331"/>
      <point x="380" y="565.61331" type="curve" smooth="yes"/>
      <point x="185" y="565.61331"/>
      <point x="61" y="470.72569"/>
      <point x="61" y="313.66775" type="curve" smooth="yes"/>
      <point x="61" y="195.80729"/>
      <point x="133" y="98.58898"/>
      <point x="285" y="24.18755" type="curve"/>
      <point x="285" y="39.12273" type="line"/>
      <point x="45" y="39.12273" type="line"/>
    </contour>
  </outline>
</glyph>
<glyph name="mu" format="1">
  <advance width="545"/>
  <unicode hex="03BC"/>
  <outline>
    <contour>
      <point x="460" y="384.49298" type="line"/>
      <point x="418" y="384.49298" type="line"/>
      <point x="418" y="165.24055" type="line" smooth="yes"/>
      <point x="418" y="85.26833"/>
      <point x="352" y="33.8639"/>
      <point x="252" y="33.8639" type="curve" smooth="yes"/>
      <point x="165" y="33.8639"/>
      <point x="125" y="68.5033"/>
      <point x="125" y="144.89493" type="curve" smooth="yes"/>
      <point x="125" y="384.49298" type="line"/>
      <point x="83" y="384.49298" type="line"/>
      <point x="83" y="-142.74001" type="line"/>
      <point x="125" y="-142.74001" type="line"/>
      <point x="121" y="60.07912" type="line"/>
      <point x="104" y="60.07912" type="line"/>
      <point x="131" y="8.69884"/>
      <point x="186" y="-6.61639"/>
      <point x="254" y="-6.61639" type="curve" smooth="yes"/>
      <point x="337" y="-6.61639"/>
      <point x="406" y="28.31955"/>
      <point x="431" y="93.36534" type="curve"/>
      <point x="419" y="93.36534" type="line"/>
      <point x="419" y="0" type="line"/>
      <point x="460" y="0" type="line"/>
    </contour>
  </outline>
</glyph>
<glyph name="pi" format="1">
  <advance width="560"/>
  <unicode hex="03C0"/>
  <outline>
    <contour>
      <point x="548" y="41.069" type="line"/>
      <point x="528" y="38.10129"/>
      <point x="510" y="36.58338"/>
      <point x="494" y="36.58338" type="curve" smooth="yes"/>
      <point x="419" y="36.58338"/>
      <point x="389" y="68.79984"/>
      <point x="389" y="133.5974" type="curve" smooth="yes"/>
      <point x="389" y="348.04579" type="line"/>
      <point x="516" y="348.04579" type="line"/>
      <point x="516" y="384.49298" type="line"/>
      <point x="5" y="384.49298" type="line"/>
      <point x="5" y="348.04579" type="line"/>
      <point x="105" y="348.04579" type="line"/>
      <point x="103" y="216.16831"/>
      <point x="78" y="98.15625"/>
      <point x="32" y="-0.13619" type="curve"/>
      <point x="79" y="-0.13619" type="line"/>
      <point x="121" y="92.44052"/>
      <point x="144" y="205.40241"/>
      <point x="147" y="348.04579" type="curve"/>
      <point x="347" y="348.04579" type="line"/>
      <point x="347" y="132.82418" type="line" smooth="yes"/>
      <point x="347" y="48.73764"/>
      <point x="388" y="-2.99187"/>
      <point x="489" y="-2.99187" type="curve" smooth="yes"/>
      <point x="506" y="-2.99187"/>
      <point x="525" y="-1.40587"/>
      <point x="546" y="1.76613" type="curve"/>
    </contour>
  </outline>
</glyph>
<glyph name="figuredash" format="1">
  <advance width="600"/>
  <unicode hex="2012"/>
  <outline>
    <contour>
      <point x="76" y="194.86934" type="line"/>
      <point x="524" y="194.86934" type="line"/>
      <point x="524" y="226.69035" type="line"/>
      <point x="76" y="226.69035" type="line"/>
    </contour>
  </outline>
</glyph>
<glyph name="emdash" format="1">
  <advance width="1000"/>
  <unicode hex="2014"/>
  <outline>
    <contour>
      <point x="0" y="194.86934" type="line"/>
      <point x="1000" y="194.86934" type="line"/>
      <point x="1000" y="226.69035" type="line"/>
      <point x="0" y="226.69035" type="line"/>
    </contour>
  </outline>
</glyph>
<glyph name="quoteleft" format="1">
  <advance width="211"/>
  <unicode hex="2018"/>
  <outline>
    <contour>
      <point x="115" y="563.3705" type="line"/>
      <point x="82" y="533.00368"/>
      <point x="71" y="501.4155"/>
      <point x="71" y="463.91167" type="curve" smooth="yes"/>
      <point x="71" y="416.05053" type="line"/>
      <point x="140" y="416.05053" type="line"/>
      <point x="140" y="480.88975" type="line"/>
      <point x="90" y="480.88975" type="line"/>
      <point x="108" y="472.99931" type="line"/>
      <point x="108" y="495.8645"/>
      <point x="113" y="517.05143"/>
      <point x="142" y="544.71855" type="curve"/>
    </contour>
  </outline>
</glyph>
<glyph name="quoteright" format="1">
  <advance width="211"/>
  <unicode hex="2019"/>
  <outline>
    <contour>
      <point x="97" y="411.74505" type="line"/>
      <point x="131" y="441.38697"/>
      <point x="141" y="473.70006"/>
      <point x="141" y="510.47898" type="curve" smooth="yes"/>
      <point x="141" y="559.06502" type="line"/>
      <point x="72" y="559.06502" type="line"/>
      <point x="72" y="494.22581" type="line"/>
      <point x="123" y="494.22581" type="line"/>
      <point x="104" y="502.04815" type="line"/>
      <point x="104" y="479.25106"/>
      <point x="100" y="457.33922"/>
      <point x="71" y="430.39701" type="curve"/>
    </contour>
  </outline>
</glyph>
<glyph name="quotesinglbase" format="1">
  <advance width="211"/>
  <unicode hex="201A"/>
  <outline>
    <contour>
      <point x="97" y="-82.48075" type="line"/>
      <point x="127" y="-55.73845"/>
      <point x="141" y="-24.87517"/>
      <point x="141" y="16.25317" type="curve" smooth="yes"/>
      <point x="141" y="64.83922" type="line"/>
      <point x="72" y="64.83922" type="line"/>
      <point x="72" y="0" type="line"/>
      <point x="123" y="0" type="line"/>
      <point x="104" y="7.82234" type="line"/>
      <point x="104" y="-21.49888"/>
      <point x="95" y="-41.236"/>
      <point x="71" y="-63.8288" type="curve"/>
    </contour>
  </outline>
</glyph>
<glyph name="dagger" format="1">
  <advance width="306"/>
  <unicode hex="2020"/>
  <outline>
    <contour>
      <point x="170" y="559.06502" type="line"/>
      <point x="136" y="559.06502" type="line"/>
      <point x="136" y="464.58598" type="line"/>
      <point x="20" y="464.58598" type="line"/>
      <point x="20" y="432.53653" type="line"/>
      <point x="136" y="432.53653" type="line"/>
      <point x="136" y="124.501" type="line"/>
      <point x="170" y="124.501" type="line"/>
      <point x="170" y="432.53653" type="line"/>
      <point x="286" y="432.53653" type="line"/>
      <point x="286" y="464.58598" type="line"/>
      <point x="170" y="464.58598" type="line"/>
    </contour>
  </outline>
</glyph>
<glyph name="daggerdbl" format="1">
  <advance width="306"/>
  <unicode hex="2021"/>
  <outline>
    <contour>
      <point x="170" y="559.06502" type="line"/>
      <point x="136" y="559.06502" type="line"/>
      <point x="136" y="464.79027" type="line"/>
      <point x="20" y="464.79027" type="line"/>
      <point x="20" y="432.67272" type="line"/>
      <point x="136" y="432.67272" type="line"/>
      <point x="136" y="250.82521" type="line"/>
      <point x="20" y="250.82521" type="line"/>
      <point x="20" y="218.84385" type="line"/>
      <point x="136" y="218.84385" type="line"/>
      <point x="136" y="124.36481" type="line"/>
      <point x="170" y="124.36481" type="line"/>
      <point x="170" y="218.84385" type="line"/>
      <point x="286" y="218.84385" type="line"/>
      <point x="286" y="250.82521" type="line"/>
      <point x="170" y="250.82521" type="line"/>
      <point x="170" y="432.67272" type="line"/>
      <point x="286" y="432.67272" type="line"/>
      <point x="286" y="464.79027" type="line"/>
      <point x="170" y="464.79027" type="line"/>
    </contour>
  </outline>
</glyph>
<glyph name="bullet" format="1">
  <advance width="524"/>
  <unicode hex="2022"/>
  <outline>
    <contour>
      <point x="262" y="69.784" type="curve" smooth="yes"/>
      <point x="361" y="69.784"/>
      <point x="443" y="132.43101"/>
      <point x="443" y="210.14501" type="curve" smooth="yes"/>
      <point x="443" y="291.03101"/>
      <point x="358" y="351.29901"/>
      <point x="262" y="351.29901" type="curve" smooth="yes"/>
      <point x="157" y="351.29901"/>
      <point x="81" y="282.30801"/>
      <point x="81" y="210.14501" type="curve" smooth="yes"/>
      <point x="81" y="130.84501"/>
      <point x="164" y="69.784"/>
    </contour>
  </outline>
</glyph>
<glyph name="perthousand" format="1">
  <advance width="1311"/>
  <unicode hex="2030"/>
  <outline>
    <contour>
      <point x="1082" y="-6.61639" type="curve" smooth="yes"/>
      <point x="1183" y="-6.61639"/>
      <point x="1245" y="55.91858"/>
      <point x="1245" y="164.73972" type="curve" smooth="yes"/>
      <point x="1245" y="272.69976"/>
      <point x="1182" y="335.16663"/>
      <point x="1082" y="335.16663" type="curve" smooth="yes"/>
      <point x="982" y="335.16663"/>
      <point x="919" y="272.97214"/>
      <point x="919" y="164.73972" type="curve" smooth="yes"/>
      <point x="919" y="55.19368"/>
      <point x="981" y="-6.61639"/>
    </contour>
    <contour>
      <point x="1082" y="28.64901" type="curve" smooth="yes"/>
      <point x="1007" y="28.64901"/>
      <point x="961" y="74.81876"/>
      <point x="961" y="164.73972" type="curve" smooth="yes"/>
      <point x="961" y="253.93577"/>
      <point x="1007" y="299.90123"/>
      <point x="1082" y="299.90123" type="curve" smooth="yes"/>
      <point x="1157" y="299.90123"/>
      <point x="1203" y="253.73148"/>
      <point x="1203" y="164.73972" type="curve" smooth="yes"/>
      <point x="1203" y="75.02305"/>
      <point x="1157" y="28.64901"/>
    </contour>
    <component base="percent"/>
  </outline>
</glyph>
<glyph name="guilsinglleft" format="1">
  <advance width="236"/>
  <unicode hex="2039"/>
  <outline>
    <contour>
      <point x="152" y="72.47495" type="line"/>
      <point x="186" y="84.67087" type="line"/>
      <point x="105" y="210.2812" type="line"/>
      <point x="186" y="335.03043" type="line"/>
      <point x="152" y="348.01935" type="line"/>
      <point x="60" y="221.65996" type="line"/>
      <point x="60" y="198.83434" type="line"/>
    </contour>
  </outline>
</glyph>
<glyph name="guilsinglright" format="1">
  <advance width="236"/>
  <unicode hex="203A"/>
  <outline>
    <contour>
      <point x="84" y="72.47495" type="line"/>
      <point x="176" y="198.83434" type="line"/>
      <point x="176" y="221.65996" type="line"/>
      <point x="84" y="348.01935" type="line"/>
      <point x="50" y="335.03043" type="line"/>
      <point x="131" y="210.2812" type="line"/>
      <point x="50" y="84.67087" type="line"/>
    </contour>
  </outline>
</glyph>
<glyph name="fraction" format="1">
  <advance width="157"/>
  <unicode hex="2044"/>
  <outline>
    <contour>
      <point x="-116" y="-17.53825" type="line"/>
      <point x="304" y="557.72287" type="line"/>
      <point x="273" y="576.60328" type="line"/>
      <point x="-147" y="1.34215" type="line"/>
    </contour>
  </outline>
</glyph>
<glyph name="franc" format="1">
  <advance width="600"/>
  <unicode hex="20A3"/>
  <outline>
    <contour>
      <point x="127" y="0" type="line"/>
      <point x="169" y="0" type="line"/>
      <point x="169" y="121.32025" type="line"/>
      <point x="396" y="121.32025" type="line"/>
      <point x="396" y="155.45216" type="line"/>
      <point x="169" y="155.45216" type="line"/>
      <point x="169" y="271.12916" type="line"/>
      <point x="521" y="271.12916" type="line"/>
      <point x="521" y="310.56822" type="line"/>
      <point x="169" y="310.56822" type="line"/>
      <point x="169" y="519.62596" type="line"/>
      <point x="541" y="519.62596" type="line"/>
      <point x="541" y="559.06502" type="line"/>
      <point x="127" y="559.06502" type="line"/>
      <point x="127" y="155.45216" type="line"/>
      <point x="51" y="155.45216" type="line"/>
      <point x="51" y="121.32025" type="line"/>
      <point x="127" y="121.32025" type="line"/>
    </contour>
  </outline>
</glyph>
<glyph name="lira" format="1">
  <advance width="600"/>
  <unicode hex="20A4"/>
  <outline>
    <contour>
      <point x="204" y="203.18376" type="line"/>
      <point x="396" y="203.18376" type="line"/>
      <point x="396" y="236.9071" type="line"/>
      <point x="204" y="236.9071" type="line"/>
      <point x="204" y="322.95093" type="line"/>
      <point x="396" y="322.95093" type="line"/>
      <point x="396" y="356.67426" type="line"/>
      <point x="199" y="356.67426" type="line"/>
      <point x="204" y="350.93875" type="line"/>
      <point x="204" y="412.53577" type="line" smooth="yes"/>
      <point x="204" y="486.50447"/>
      <point x="255" y="524.72445"/>
      <point x="353" y="524.72445" type="curve" smooth="yes"/>
      <point x="430" y="524.72445"/>
      <point x="487" y="505.8528"/>
      <point x="535" y="464.25653" type="curve"/>
      <point x="558" y="501.22433" type="line"/>
      <point x="510" y="542.29999"/>
      <point x="433" y="565.68141"/>
      <point x="360" y="565.68141" type="curve" smooth="yes"/>
      <point x="229" y="565.68141"/>
      <point x="162" y="509.96274"/>
      <point x="162" y="410.4731" type="curve" smooth="yes"/>
      <point x="162" y="349.16824" type="line"/>
      <point x="169" y="356.67426" type="line"/>
      <point x="51" y="356.67426" type="line"/>
      <point x="51" y="322.54235" type="line"/>
      <point x="162" y="322.54235" type="line"/>
      <point x="162" y="236.9071" type="line"/>
      <point x="51" y="236.9071" type="line"/>
      <point x="51" y="203.18376" type="line"/>
      <point x="162" y="203.18376" type="line"/>
      <point x="162" y="39.84764" type="line"/>
      <point x="51" y="39.84764" type="line"/>
      <point x="51" y="0" type="line"/>
      <point x="545" y="0" type="line"/>
      <point x="545" y="39.84764" type="line"/>
      <point x="204" y="39.84764" type="line"/>
    </contour>
  </outline>
</glyph>
<glyph name="peseta" format="1">
  <advance width="600"/>
  <unicode hex="20A7"/>
  <outline>
    <contour>
      <point x="115" y="0" type="line"/>
      <point x="157" y="0" type="line"/>
      <point x="157" y="205.99112" type="line"/>
      <point x="271" y="205.99112" type="line" smooth="yes"/>
      <point x="412" y="205.99112"/>
      <point x="498" y="269.00277"/>
      <point x="502" y="374.01925" type="curve"/>
      <point x="487" y="365.42807" type="line"/>
      <point x="586" y="365.42807" type="line"/>
      <point x="586" y="399.55998" type="line"/>
      <point x="487" y="399.55998" type="line"/>
      <point x="502" y="393.14351" type="line"/>
      <point x="497" y="501.05961"/>
      <point x="417" y="559.06502"/>
      <point x="271" y="559.06502" type="curve" smooth="yes"/>
      <point x="115" y="559.06502" type="line"/>
      <point x="115" y="399.55998" type="line"/>
      <point x="14" y="399.55998" type="line"/>
      <point x="14" y="365.42807" type="line"/>
      <point x="115" y="365.42807" type="line"/>
    </contour>
    <contour>
      <point x="157" y="245.0897" type="line"/>
      <point x="157" y="519.83025" type="line"/>
      <point x="269" y="519.83025" type="line" smooth="yes"/>
      <point x="399" y="519.83025"/>
      <point x="460" y="476.62821"/>
      <point x="460" y="383.08274" type="curve" smooth="yes"/>
      <point x="460" y="290.26217"/>
      <point x="397" y="245.0897"/>
      <point x="269" y="245.0897" type="curve" smooth="yes"/>
    </contour>
  </outline>
</glyph>
<glyph name="dong" format="1">
  <advance width="600"/>
  <unicode hex="20AB"/>
  <outline>
    <contour>
      <point x="278" y="-6.61639" type="curve" smooth="yes"/>
      <point x="367" y="-6.61639"/>
      <point x="427" y="31.26311"/>
      <point x="449" y="96.51318" type="curve"/>
      <point x="438" y="96.51318" type="line"/>
      <point x="438" y="0" type="line"/>
      <point x="480" y="0" type="line"/>
      <point x="480" y="442.03712" type="line"/>
      <point x="558" y="442.03712" type="line"/>
      <point x="558" y="476.16903" type="line"/>
      <point x="480" y="476.16903" type="line"/>
      <point x="480" y="559.06502" type="line"/>
      <point x="438" y="559.06502" type="line"/>
      <point x="438" y="476.16903" type="line"/>
      <point x="282" y="476.16903" type="line"/>
      <point x="282" y="442.03712" type="line"/>
      <point x="438" y="442.03712" type="line"/>
      <point x="438" y="288.04789" type="line"/>
      <point x="449" y="288.04789" type="line"/>
      <point x="427" y="353.29797"/>
      <point x="367" y="391.10937"/>
      <point x="278" y="391.10937" type="curve" smooth="yes"/>
      <point x="153" y="391.10937"/>
      <point x="75" y="313.71169"/>
      <point x="75" y="192.51888" type="curve" smooth="yes"/>
      <point x="75" y="71.12177"/>
      <point x="154" y="-6.61639"/>
    </contour>
    <contour>
      <point x="87" y="-103.70725" type="line"/>
      <point x="480" y="-103.70725" type="line"/>
      <point x="480" y="-69.57534" type="line"/>
      <point x="87" y="-69.57534" type="line"/>
    </contour>
    <contour>
      <point x="278" y="32.00551" type="curve" smooth="yes"/>
      <point x="177" y="32.00551"/>
      <point x="118" y="88.14379"/>
      <point x="118" y="192.17839" type="curve" smooth="yes"/>
      <point x="118" y="294.03829"/>
      <point x="179" y="352.48746"/>
      <point x="279" y="352.48746" type="curve" smooth="yes"/>
      <point x="378" y="352.48746"/>
      <point x="439" y="294.03829"/>
      <point x="439" y="192.17839" type="curve" smooth="yes"/>
      <point x="439" y="88.14379"/>
      <point x="378" y="32.00551"/>
    </contour>
  </outline>
</glyph>
<glyph name="trademark" format="1">
  <advance width="899"/>
  <unicode hex="2122"/>
  <outline>
    <contour>
      <point x="155" y="225.21201" type="line"/>
      <point x="195" y="225.21201" type="line"/>
      <point x="195" y="522.89022" type="line"/>
      <point x="346" y="522.89022" type="line"/>
      <point x="346" y="559.06502" type="line"/>
      <point x="4" y="559.06502" type="line"/>
      <point x="4" y="522.89022" type="line"/>
      <point x="155" y="522.89022" type="line"/>
    </contour>
    <contour>
      <point x="414" y="225.21201" type="line"/>
      <point x="453" y="225.21201" type="line"/>
      <point x="453" y="502.6281" type="line"/>
      <point x="435" y="502.6281" type="line"/>
      <point x="598" y="276.46484" type="line"/>
      <point x="628" y="276.46484" type="line"/>
      <point x="788" y="502.6281" type="line"/>
      <point x="772" y="502.6281" type="line"/>
      <point x="772" y="225.21201" type="line"/>
      <point x="811" y="225.21201" type="line"/>
      <point x="811" y="559.06502" type="line"/>
      <point x="777" y="559.06502" type="line"/>
      <point x="603" y="308.49452" type="line"/>
      <point x="622" y="308.49452" type="line"/>
      <point x="448" y="559.06502" type="line"/>
      <point x="414" y="559.06502" type="line"/>
    </contour>
  </outline>
</glyph>
<glyph name="estimated" format="1">
  <advance width="894"/>
  <unicode hex="212E"/>
  <outline>
    <contour>
      <point x="448" y="-3.965" type="curve" smooth="yes"/>
      <point x="612" y="-3.965"/>
      <point x="696" y="31.72"/>
      <point x="775" y="106.262" type="curve"/>
      <point x="704" y="106.262" type="line"/>
      <point x="636" y="53.924"/>
      <point x="558" y="21.411"/>
      <point x="445" y="21.411" type="curve" smooth="yes"/>
      <point x="341" y="21.411"/>
      <point x="256" y="47.58"/>
      <point x="203" y="98.332" type="curve" smooth="yes"/>
      <point x="198" y="103.09"/>
      <point x="196" y="114.192"/>
      <point x="196" y="121.329" type="curve" smooth="yes"/>
      <point x="196" y="257.72501" type="line" smooth="yes"/>
      <point x="196" y="260.89701"/>
      <point x="198" y="262.48301"/>
      <point x="201" y="262.48301" type="curve" smooth="yes"/>
      <point x="844" y="262.48301" type="line"/>
      <point x="844" y="406.01602"/>
      <point x="752" y="563.03002"/>
      <point x="446" y="563.03002" type="curve" smooth="yes"/>
      <point x="199" y="563.03002"/>
      <point x="50" y="421.87602"/>
      <point x="50" y="273.58501" type="curve" smooth="yes"/>
      <point x="50" y="125.294"/>
      <point x="195" y="-3.965"/>
    </contour>
    <contour>
      <point x="201" y="287.06601" type="line"/>
      <point x="198" y="287.06601"/>
      <point x="196" y="288.65201"/>
      <point x="196" y="291.82401" type="curve" smooth="yes"/>
      <point x="196" y="441.70102" type="line" smooth="yes"/>
      <point x="196" y="449.63102"/>
      <point x="199" y="458.35402"/>
      <point x="205" y="463.11202" type="curve" smooth="yes"/>
      <point x="276" y="519.41502"/>
      <point x="365" y="538.44702"/>
      <point x="443" y="538.44702" type="curve" smooth="yes"/>
      <point x="513" y="538.44702"/>
      <point x="619" y="525.75902"/>
      <point x="688" y="461.52602" type="curve" smooth="yes"/>
      <point x="694" y="455.97502"/>
      <point x="698" y="448.04502"/>
      <point x="698" y="440.90802" type="curve" smooth="yes"/>
      <point x="698" y="291.82401" type="line" smooth="yes"/>
      <point x="698" y="288.65201"/>
      <point x="696" y="287.06601"/>
      <point x="693" y="287.06601" type="curve" smooth="yes"/>
    </contour>
  </outline>
</glyph>
<glyph name="partialdiff" format="1">
  <advance width="600"/>
  <unicode hex="2202"/>
  <outline>
    <contour>
      <point x="298" y="-6.61639" type="curve" smooth="yes"/>
      <point x="447" y="-6.61639"/>
      <point x="534" y="83.35726"/>
      <point x="534" y="244.88103" type="curve" smooth="yes"/>
      <point x="534" y="453.05125"/>
      <point x="425" y="565.68141"/>
      <point x="209" y="565.68141" type="curve" smooth="yes"/>
      <point x="188" y="565.68141"/>
      <point x="174" y="564.09541"/>
      <point x="153" y="561.51212" type="curve"/>
      <point x="153" y="527.82835" type="line"/>
      <point x="203" y="527.82835" type="line" smooth="yes"/>
      <point x="387" y="527.82835"/>
      <point x="483" y="442.37323"/>
      <point x="490" y="275.03919" type="curve"/>
      <point x="499" y="275.03919" type="line"/>
      <point x="467" y="341.39859"/>
      <point x="395" y="375.65357"/>
      <point x="299" y="375.65357" type="curve" smooth="yes"/>
      <point x="164" y="375.65357"/>
      <point x="66" y="295.10805"/>
      <point x="66" y="182.97872" type="curve" smooth="yes"/>
      <point x="66" y="71.16571"/>
      <point x="162" y="-6.61639"/>
    </contour>
    <contour>
      <point x="300" y="31.93742" type="curve" smooth="yes"/>
      <point x="186" y="31.93742"/>
      <point x="109" y="93.10608"/>
      <point x="109" y="183.83981" type="curve" smooth="yes"/>
      <point x="109" y="275.16226"/>
      <point x="187" y="337.57644"/>
      <point x="299" y="337.57644" type="curve" smooth="yes"/>
      <point x="410" y="337.57644"/>
      <point x="489" y="281.75449"/>
      <point x="489" y="201.9624" type="curve" smooth="yes"/>
      <point x="489" y="98.11231"/>
      <point x="415" y="31.93742"/>
    </contour>
  </outline>
</glyph>
<glyph name="emptyset" format="1">
  <advance width="600"/>
  <unicode hex="2205"/>
  <outline>
    <contour>
      <point x="32" y="2.56351" type="line"/>
      <point x="76" y="-21.11446" type="line"/>
      <point x="152" y="59.77155" type="line"/>
      <point x="196" y="40.94383"/>
      <point x="248" y="29.25312"/>
      <point x="301" y="29.25312" type="curve" smooth="yes"/>
      <point x="463" y="29.25312"/>
      <point x="596" y="129.96413"/>
      <point x="596" y="252.87913" type="curve" smooth="yes"/>
      <point x="596" y="319.21875"/>
      <point x="559" y="376.90346"/>
      <point x="503" y="416.62156" type="curve"/>
      <point x="579" y="496.12585" type="line"/>
      <point x="536" y="522.31901" type="line"/>
      <point x="460" y="442.81472" type="line"/>
      <point x="413" y="465.47124"/>
      <point x="357" y="478.09114"/>
      <point x="301" y="478.09114" type="curve" smooth="yes"/>
      <point x="131" y="478.09114"/>
      <point x="4" y="371.82914"/>
      <point x="4" y="252.87913" type="curve" smooth="yes"/>
      <point x="4" y="183.29942"/>
      <point x="45" y="123.82442"/>
      <point x="108" y="83.44951" type="curve"/>
    </contour>
    <contour>
      <point x="135" y="113.99647" type="line"/>
      <point x="85" y="148.2075"/>
      <point x="56" y="197.86996"/>
      <point x="56" y="252.87913" type="curve" smooth="yes"/>
      <point x="56" y="359.40915"/>
      <point x="163" y="439.52193"/>
      <point x="301" y="439.52193" type="curve" smooth="yes"/>
      <point x="350" y="439.52193"/>
      <point x="395" y="429.48532"/>
      <point x="432" y="411.92728" type="curve"/>
    </contour>
    <contour>
      <point x="301" y="65.51143" type="curve" smooth="yes"/>
      <point x="255" y="65.51143"/>
      <point x="214" y="74.55075"/>
      <point x="179" y="89.00489" type="curve"/>
      <point x="475" y="385.21351" type="line"/>
      <point x="518" y="351.00247"/>
      <point x="545" y="304.6482"/>
      <point x="545" y="252.87913" type="curve" smooth="yes"/>
      <point x="545" y="143.24521"/>
      <point x="433" y="65.51143"/>
    </contour>
  </outline>
</glyph>
<glyph name="product" format="1">
  <advance width="600"/>
  <unicode hex="220F"/>
  <outline>
    <contour>
      <point x="544" y="559.06502" type="line"/>
      <point x="56" y="559.06502" type="line"/>
      <point x="56" y="-142.74001" type="line"/>
      <point x="98" y="-142.74001" type="line"/>
      <point x="98" y="519.62596" type="line"/>
      <point x="502" y="519.62596" type="line"/>
      <point x="502" y="-142.74001" type="line"/>
      <point x="544" y="-142.74001" type="line"/>
    </contour>
  </outline>
</glyph>
<glyph name="radical" format="1">
  <advance width="600"/>
  <unicode hex="221A"/>
  <outline>
    <contour>
      <point x="583" y="601.09402" type="line"/>
      <point x="538" y="601.09402" type="line"/>
      <point x="264" y="-114.08225" type="line"/>
      <point x="291" y="-114.08225" type="line"/>
      <point x="127" y="243.95622" type="line"/>
      <point x="6" y="243.95622" type="line"/>
      <point x="6" y="205.33432" type="line"/>
      <point x="119" y="205.33432" type="line"/>
      <point x="92" y="218.2793" type="line"/>
      <point x="259" y="-142.74001" type="line"/>
      <point x="295" y="-142.74001" type="line"/>
    </contour>
  </outline>
</glyph>
<glyph name="infinity" format="1">
  <advance width="600"/>
  <unicode hex="221E"/>
  <outline>
    <contour>
      <point x="428" y="327.79015" type="curve" smooth="yes"/>
      <point x="384" y="327.79015"/>
      <point x="331" y="308.1255"/>
      <point x="300" y="263.51321" type="curve"/>
      <point x="269" y="308.1255"/>
      <point x="216" y="327.79015"/>
      <point x="172" y="327.79015" type="curve" smooth="yes"/>
      <point x="95" y="327.79015"/>
      <point x="50" y="280.8428"/>
      <point x="50" y="225.21201" type="curve" smooth="yes"/>
      <point x="50" y="169.30883"/>
      <point x="95" y="122.63387"/>
      <point x="172" y="122.63387" type="curve" smooth="yes"/>
      <point x="216" y="122.63387"/>
      <point x="269" y="142.29852"/>
      <point x="300" y="186.91081" type="curve"/>
      <point x="331" y="142.29852"/>
      <point x="384" y="122.63387"/>
      <point x="428" y="122.63387" type="curve" smooth="yes"/>
      <point x="505" y="122.63387"/>
      <point x="550" y="169.30883"/>
      <point x="550" y="225.21201" type="curve" smooth="yes"/>
      <point x="550" y="280.8428"/>
      <point x="505" y="327.79015"/>
    </contour>
    <contour>
      <point x="171" y="156.56149" type="curve" smooth="yes"/>
      <point x="120" y="156.56149"/>
      <point x="90" y="187.2842"/>
      <point x="90" y="225.21201" type="curve" smooth="yes"/>
      <point x="90" y="263.13982"/>
      <point x="120" y="293.86253"/>
      <point x="171" y="293.86253" type="curve" smooth="yes"/>
      <point x="205" y="293.86253"/>
      <point x="247" y="284.70679"/>
      <point x="282" y="226.00501" type="curve"/>
      <point x="247" y="166.51022"/>
      <point x="205" y="156.56149"/>
    </contour>
    <contour>
      <point x="429" y="156.56149" type="curve" smooth="yes"/>
      <point x="395" y="156.56149"/>
      <point x="353" y="166.51022"/>
      <point x="318" y="226.00501" type="curve"/>
      <point x="353" y="284.70679"/>
      <point x="395" y="293.86253"/>
      <point x="429" y="293.86253" type="curve" smooth="yes"/>
      <point x="480" y="293.86253"/>
      <point x="510" y="263.13982"/>
      <point x="510" y="225.21201" type="curve" smooth="yes"/>
      <point x="510" y="187.2842"/>
      <point x="480" y="156.56149"/>
    </contour>
  </outline>
</glyph>
<glyph name="integral" format="1">
  <advance width="600"/>
  <unicode hex="222B"/>
  <outline>
    <contour>
      <point x="424" y="565.68141" type="line"/>
      <point x="328" y="565.68141"/>
      <point x="279" y="522.88356"/>
      <point x="279" y="443.68684" type="curve" smooth="yes"/>
      <point x="279" y="-24.98283" type="line" smooth="yes"/>
      <point x="279" y="-88.46239"/>
      <point x="244" y="-110.18972"/>
      <point x="179" y="-110.18972" type="curve" smooth="yes"/>
      <point x="138" y="-110.18972" type="line"/>
      <point x="138" y="-149.35639" type="line"/>
      <point x="176" y="-149.35639" type="line" smooth="yes"/>
      <point x="272" y="-149.35639"/>
      <point x="321" y="-107.35155"/>
      <point x="321" y="-28.15483" type="curve" smooth="yes"/>
      <point x="321" y="440.51484" type="line" smooth="yes"/>
      <point x="321" y="504.71931"/>
      <point x="355" y="525.72174"/>
      <point x="421" y="525.72174" type="curve" smooth="yes"/>
      <point x="462" y="525.72174" type="line"/>
      <point x="462" y="565.68141" type="line"/>
    </contour>
  </outline>
</glyph>
